<?xml version="1.0" encoding="UTF-8"?>
<!DOCTYPE svg PUBLIC "-//W3C//DTD SVG 1.1//EN" "http://www.w3.org/Graphics/SVG/1.1/DTD/svg11.dtd">
<!-- Creator: CorelDRAW X7 -->
<svg xmlns="http://www.w3.org/2000/svg" xml:space="preserve" width="8.4674mm" height="3.3899mm" version="1.1" style="shape-rendering:geometricPrecision; text-rendering:geometricPrecision; image-rendering:optimizeQuality; fill-rule:evenodd; clip-rule:evenodd"
viewBox="0 0 834 334"
 xmlns:xlink="http://www.w3.org/1999/xlink">
 <defs>
  <style type="text/css">
   <![CDATA[
    .fil3 {fill:#FEFEFE}
    .fil2 {fill:#8EC63F}
    .fil4 {fill:#2B2A29;fill-rule:nonzero}
    .fil1 {fill:#8EC63F;fill-rule:nonzero}
    .fil0 {fill:#EF7F1A;fill-rule:nonzero}
   ]]>
  </style>
 </defs>
 <g id="Layer_x0020_1">
  <metadata id="CorelCorpID_0Corel-Layer"/>
  <polygon class="fil0" points="0,255 74,255 74,230 32,230 32,145 0,145 "/>
  <polygon id="1" class="fil0" points="90,255 169,255 169,231 122,231 122,210 158,210 158,188 122,188 122,169 167,169 167,145 90,145 "/>
  <path id="2" class="fil0" d="M178 255l29 0 6 -21 37 0 6 21 33 0 -35 -110 -41 0 -35 110zm54 -85l12 43 -25 0 13 -43z"/>
  <path id="3" class="fil0" d="M303 255l32 0 0 -40 7 0 23 40 33 0 -26 -46c11,-4 20,-13 20,-29l0 0c0,-24 -16,-35 -45,-35l-44 0 0 110zm32 -60l0 -27 10 0c11,0 16,4 16,13l0 0c0,9 -5,14 -16,14l-10 0z"/>
  <polygon id="4" class="fil0" points="413,255 441,255 441,186 481,255 511,255 511,145 484,145 484,207 448,145 413,145 "/>
  <polygon id="5" class="fil0" points="561,255 593,255 593,208 627,145 597,145 578,182 559,145 525,145 561,208 "/>
  <polygon id="6" class="fil0" points="669,255 705,255 741,145 712,145 689,222 667,145 632,145 "/>
  <polygon id="7" class="fil0" points="755,255 834,255 834,231 787,231 787,210 822,210 822,188 787,188 787,169 832,169 832,145 755,145 "/>
  <polygon class="fil1" points="52,77 126,105 202,77 762,77 762,84 202,84 126,113 52,85 "/>
  <path class="fil2" d="M810 103c12,0 22,-10 22,-21 0,-12 -10,-21 -22,-21l-34 0c-11,0 -21,9 -21,21 0,11 10,21 21,21l34 0z"/>
  <path class="fil3" d="M770 77l13 0c2,0 3,1 3,3l0 0c0,3 -1,4 -3,4l-13 0c-2,0 -4,-1 -4,-4l0 0c0,-2 2,-3 4,-3z"/>
  <path class="fil2" d="M216 55l26 -10 -115 -45 -65 26 26 10 39 -15 89 34zm-203 -10l0 0 0 52 -7 16 10 23 9 -23 -6 -17 0 -49 108 43 66 -26 -26 -10 -40 15 -87 -35 -27 11z"/>
  <path class="fil4" d="M165 297l0 -12 3 0c5,0 7,2 7,6 0,4 -2,6 -7,6l-3 0zm5 7c9,0 13,-5 13,-13 0,-8 -4,-13 -13,-13l-14 0 0 44 9 0 0 -18 5 0z"/>
  <path id="1" class="fil4" d="M200 316c-4,0 -6,-3 -6,-10 0,-6 2,-9 6,-9 3,0 5,3 5,9 0,7 -2,10 -5,10zm0 -26c-9,0 -14,6 -14,16 0,11 5,17 14,17 8,0 13,-6 13,-17 0,-10 -5,-16 -13,-16z"/>
  <polygon id="2" class="fil4" points="233,291 228,311 224,291 216,291 224,322 232,322 237,301 242,322 251,322 258,291 250,291 246,311 241,291 "/>
  <path id="3" class="fil4" d="M269 303c0,-4 2,-7 5,-7 3,0 5,3 5,7l-10 0zm5 -13c-8,0 -13,7 -13,16 0,10 5,17 14,17 7,0 11,-6 11,-11l-7 -1c0,3 -1,5 -4,5 -5,0 -6,-4 -6,-8l18 0c0,0 0,-2 0,-3 0,-10 -5,-15 -13,-15z"/>
  <path id="4" class="fil4" d="M309 291c0,-1 -1,-1 -1,-1 -4,0 -7,2 -7,6l0 -5 -8 0 0 31 8 0 0 -16c0,-5 3,-7 7,-7 0,0 1,0 1,0l0 -8z"/>
  <path id="5" class="fil4" d="M322 322l0 -31 -8 0 0 31 8 0zm-9 -41c0,3 2,5 5,5 3,0 5,-2 5,-5 0,-3 -2,-5 -5,-5 -3,0 -5,2 -5,5z"/>
  <path id="6" class="fil4" d="M338 291l-8 0 0 31 8 0 0 -20c0,-3 2,-4 4,-4 3,0 4,1 4,4l0 20 8 0 0 -23c0,-5 -3,-9 -9,-9 -3,0 -6,2 -7,5l0 -4z"/>
  <path id="7" class="fil4" d="M373 327c-3,0 -5,-1 -6,-4l-7 1c1,5 6,10 13,10 8,0 13,-6 13,-15l0 -28 -7 0 0 3c-1,-2 -4,-4 -7,-4 -6,0 -12,4 -12,15 0,11 6,15 12,15 3,0 6,-2 6,-3l0 4c0,4 -2,6 -5,6zm0 -14c-2,0 -5,-2 -5,-8 0,-6 2,-8 5,-8 3,0 5,2 5,8 0,6 -2,8 -5,8z"/>
  <path id="8" class="fil4" d="M416 314l0 -28 3 0c6,0 9,5 9,14 0,9 -3,14 -9,14l-3 0zm4 8c5,0 17,-2 17,-22 0,-20 -12,-22 -17,-22l-13 0 0 44 13 0z"/>
  <path id="9" class="fil4" d="M451 322l0 -31 -8 0 0 31 8 0zm-9 -41c0,3 2,5 5,5 3,0 5,-2 5,-5 0,-3 -2,-5 -5,-5 -3,0 -5,2 -5,5z"/>
  <path id="10" class="fil4" d="M470 327c-3,0 -5,-1 -6,-4l-7 1c1,5 6,10 13,10 9,0 14,-6 14,-15l0 -28 -8 0 0 3c-1,-2 -3,-4 -7,-4 -6,0 -11,4 -11,15 0,11 6,15 11,15 4,0 6,-2 7,-3l0 4c0,4 -2,6 -6,6zm1 -14c-3,0 -5,-2 -5,-8 0,-6 2,-8 5,-8 3,0 5,2 5,8 0,6 -2,8 -5,8z"/>
  <path id="11" class="fil4" d="M499 322l0 -31 -8 0 0 31 8 0zm-9 -41c0,3 2,5 5,5 3,0 5,-2 5,-5 0,-3 -2,-5 -5,-5 -3,0 -5,2 -5,5z"/>
  <path id="12" class="fil4" d="M517 282l-7 0 0 5c0,2 -1,4 -3,4l-3 0 0 7 5 0 0 15c0,7 4,9 10,9 2,0 4,0 4,0l0 -7c-1,0 -1,0 -2,0 -2,0 -4,-1 -4,-4l0 -13 6 0 0 -7 -6 0 0 -9z"/>
  <path id="13" class="fil4" d="M527 313c0,6 4,10 10,10 3,0 6,-2 7,-5 0,2 0,4 0,4l8 0c0,-1 -1,-3 -1,-5l0 -16c0,-8 -5,-11 -11,-11 -8,0 -12,5 -12,10l7 1c0,-3 2,-5 4,-5 3,0 4,2 4,4l0 0c0,2 0,2 -2,2l-5 2c-5,1 -9,4 -9,9l0 0zm8 0c0,-2 2,-3 4,-4l2 -1c1,0 2,0 2,-1l0 4c0,4 -1,5 -4,5 -2,0 -4,-1 -4,-3l0 0z"/>
  <polygon id="14" class="fil4" points="567,322 567,277 559,277 559,322 "/>
  <polygon id="15" class="fil4" points="611,322 611,314 596,314 596,303 609,303 609,296 596,296 596,286 611,286 611,278 588,278 588,322 "/>
  <path id="16" class="fil4" d="M616 306c0,12 5,17 12,17 2,0 5,-2 7,-5 0,2 0,3 0,4l8 0c0,-1 -1,-4 -1,-7l0 -38 -8 0 0 17c0,-3 -3,-4 -6,-4 -7,0 -12,5 -12,16l0 0zm13 10c-3,0 -5,-3 -5,-10 0,-7 2,-9 5,-9 3,0 5,2 5,9 0,7 -2,10 -5,10z"/>
  <path id="17" class="fil4" d="M674 322c0,-1 0,-3 0,-6l0 -25 -8 0 0 20c0,3 -2,5 -4,5 -2,0 -4,-1 -4,-5l0 -20 -8 0 0 22c0,6 4,10 9,10 3,0 7,-2 8,-5 0,1 0,3 0,4l7 0z"/>
  <path id="18" class="fil4" d="M688 306c0,-6 2,-9 6,-9 3,0 4,2 4,5l7 -1c0,-4 -3,-11 -11,-11 -9,0 -14,6 -14,16 0,11 5,17 14,17 7,0 11,-6 11,-12l-7 0c0,2 -1,5 -4,5 -4,0 -6,-3 -6,-10z"/>
  <path id="19" class="fil4" d="M710 313c0,6 3,10 9,10 3,0 6,-2 7,-5 0,2 0,4 0,4l8 0c0,-1 -1,-3 -1,-5l0 -16c0,-8 -4,-11 -11,-11 -8,0 -12,5 -12,10l7 1c0,-3 2,-5 5,-5 2,0 3,2 3,4l0 0c0,2 0,2 -2,2l-5 2c-5,1 -8,4 -8,9l0 0zm8 0c0,-2 1,-3 3,-4l3 -1c1,0 1,0 1,-1l0 4c0,4 -1,5 -4,5 -2,0 -3,-1 -3,-3l0 0z"/>
  <path id="20" class="fil4" d="M751 282l-7 0 0 5c0,2 -1,4 -4,4l-2 0 0 7 5 0 0 15c0,7 4,9 9,9 3,0 4,0 4,0l0 -7c0,0 -1,0 -2,0 -2,0 -3,-1 -3,-4l0 -13 5 0 0 -7 -5 0 0 -9z"/>
  <path id="21" class="fil4" d="M771 322l0 -31 -8 0 0 31 8 0zm-9 -41c0,3 2,5 5,5 2,0 5,-2 5,-5 0,-3 -3,-5 -5,-5 -3,0 -5,2 -5,5z"/>
  <path id="22" class="fil4" d="M790 316c-3,0 -5,-3 -5,-10 0,-6 2,-9 5,-9 4,0 6,3 6,9 0,7 -2,10 -6,10zm0 -26c-8,0 -13,6 -13,16 0,11 5,17 13,17 9,0 14,-6 14,-17 0,-10 -6,-16 -14,-16z"/>
  <path id="23" class="fil4" d="M818 291l-8 0 0 31 8 0 0 -20c0,-3 2,-4 4,-4 2,0 4,1 4,4l0 20 8 0 0 -23c0,-5 -3,-9 -9,-9 -3,0 -6,2 -7,5l0 -4z"/>
 </g>
</svg>
