<?xml version="1.0" encoding="UTF-8"?>
<!DOCTYPE svg PUBLIC "-//W3C//DTD SVG 1.1//EN" "http://www.w3.org/Graphics/SVG/1.1/DTD/svg11.dtd">
<!-- Creator: CorelDRAW X7 -->
<svg xmlns="http://www.w3.org/2000/svg" xml:space="preserve" width="100px" height="40px" version="1.1" style="shape-rendering:geometricPrecision; text-rendering:geometricPrecision; image-rendering:optimizeQuality; fill-rule:evenodd; clip-rule:evenodd"
viewBox="0 0 9853798 3945363"
 xmlns:xlink="http://www.w3.org/1999/xlink">
 <defs>
  <style type="text/css">
   <![CDATA[
    .fil3 {fill:#FEFEFE}
    .fil2 {fill:#8EC63F}
    .fil4 {fill:#2B2A29;fill-rule:nonzero}
    .fil0 {fill:#EF7F1A;fill-rule:nonzero}
    .fil1 {fill:#8EC63F;fill-rule:nonzero}
   ]]>
  </style>
 </defs>
 <g id="Layer_x0020_1">
  <metadata id="CorelCorpID_0Corel-Layer"/>
  <polygon class="fil0" points="0,3012349 868826,3012349 868826,2722158 376048,2722158 376048,1707246 0,1707246 "/>
  <polygon id="1" class="fil0" points="1067917,3012349 1998835,3012349 1998835,2723905 1440238,2723905 1440238,2486719 1861952,2486719 1861952,2220177 1440238,2220177 1440238,1995690 1969595,1995690 1969595,1707246 1067917,1707246 "/>
  <path id="2" class="fil0" d="M2101235 3012349l348555 0 69432 -242778 432549 0 69315 242778 396085 0 -414259 -1305103 -483690 0 -417987 1305103zm635135 -1002097l142358 501980 -286580 0 144222 -501980z"/>
  <path id="3" class="fil0" d="M3585275 3012349l372321 0 0 -467265 87604 0 264679 467265 394338 0 -312209 -540308c136883,-52889 235555,-156920 235555,-343080l0 -7339c0,-275629 -189888,-414376 -531221,-414376l-511067 0 0 1305103zm372321 -710042l0 -313957 122320 0c120457,0 186160,42055 186160,147834l0 7339c0,105895 -61975,158784 -188024,158784l-120456 0z"/>
  <polygon id="4" class="fil0" points="4875932,3012349 5204450,3012349 5204450,2192801 5680801,3012349 6042171,3012349 6042171,1707246 5715401,1707246 5715401,2442917 5297530,1707246 4875932,1707246 "/>
  <polygon id="5" class="fil0" points="6626398,3012349 7002446,3012349 7002446,2453868 7407619,1707246 7049860,1707246 6828984,2147134 6608108,1707246 6201072,1707246 6626398,2453868 "/>
  <polygon id="6" class="fil0" points="7904240,3012349 8329567,3012349 8756640,1707246 8406221,1707246 8139795,2623602 7875116,1707246 7471692,1707246 "/>
  <polygon id="7" class="fil0" points="8922880,3012349 9853798,3012349 9853798,2723905 9295200,2723905 9295200,2486719 9716915,2486719 9716915,2220177 9295200,2220177 9295200,1995690 9824557,1995690 9824557,1707246 8922880,1707246 "/>
  <polygon class="fil1" points="616962,906454 1491496,1242777 2389678,906920 9003961,906803 9003961,995573 2389678,995690 1491612,1337488 616962,1001048 "/>
  <path class="fil2" d="M9574324 1215867c138397,0 250466,-112069 250466,-250350 0,-138280 -112069,-250466 -250466,-250466l-402493 0c-138280,0 -250349,112186 -250349,250466 0,138281 112069,250350 250349,250350l402493 0z"/>
  <path class="fil3" d="M9094828 906454l150745 0c24464,0 44385,19921 44385,44385l0 0c0,24347 -19921,44385 -44385,44385l-150745 0c-24348,0 -44385,-20038 -44385,-44385l0 0c0,-24464 20037,-44385 44385,-44385z"/>
  <path class="fil2" d="M2546948 653774l312675 -123019 -1354963 -530755 -777260 304404 314189 122204 463187 -181501 1042172 408667zm-2397134 -123019l0 0 233 611370 -73393 187558 110555 282269 110554 -282269 -75023 -191402 0 -578985 1282036 502330 777493 -304753 -314305 -122087 -463188 181500 -1035065 -410997 -319897 125466z"/>
  <path class="fil4" d="M1946761 3506640l0 -137115 42055 0c51608,0 77354,21435 77354,68616 0,45666 -25746,68499 -77354,68499l-42055 0zm58248 86324c105429,0 160648,-63374 160648,-155522 0,-91449 -55219,-155639 -160648,-155639l-157735 0 0 522717 98788 0 0 -211556 58947 0z"/>
  <path id="1" class="fil4" d="M2357409 3732992c-39142,0 -63490,-35415 -63490,-113467 0,-79683 23649,-114283 63490,-114283 39026,0 62675,34600 62675,114283 0,78052 -24348,113467 -62675,113467zm0 -308831c-96575,0 -157852,75955 -157852,196063 0,119408 59763,195363 157852,195363 97274,0 157735,-75955 157735,-195363 0,-120923 -61975,-196063 -157735,-196063z"/>
  <polygon id="2" class="fil4" points="2751747,3435228 2697227,3676957 2647833,3435228 2548346,3435228 2641193,3804520 2740680,3804520 2798928,3561277 2862302,3804520 2961906,3804520 3047414,3435228 2947810,3435228 2905871,3679171 2844595,3435228 "/>
  <path id="3" class="fil4" d="M3179986 3575955c699,-44967 24348,-75140 60461,-75140 37628,0 54520,28775 54520,75140l-114981 0zm59762 -151794c-99604,0 -155638,84693 -155638,196762 0,117194 59762,194664 160065,194664 91333,0 135601,-75256 139329,-127563l-84110 -8853c-2213,30987 -20620,56733 -55219,56733 -53821,0 -66402,-50792 -66402,-97274l209343 0c815,-2912 2213,-19105 2213,-33900 0,-119408 -56733,-180569 -149581,-180569z"/>
  <path id="4" class="fil4" d="M3649464 3433015c-3611,-816 -9553,-1515 -15494,-1515 -39026,0 -72227,24348 -80265,64190l0 -60462 -90751 0 0 369292 95177 0 0 -184296c0,-63374 29474,-91450 76655,-91450 5125,0 10251,0 14678,1515l0 -97274z"/>
  <path id="5" class="fil4" d="M3808015 3804520l0 -369292 -95177 0 0 369292 95177 0zm-106244 -482176c0,33201 25862,59063 58248,59063 33201,0 59762,-25862 59762,-59063 0,-33085 -26561,-59646 -59762,-59646 -32386,0 -58248,26561 -58248,59646z"/>
  <path id="6" class="fil4" d="M3991496 3435228l-91449 0 0 369292 95177 0 0 -230778c0,-39725 22017,-58248 49394,-58248 26444,0 44152,14795 44152,55335l0 233691 95177 0 0 -266076c0,-68616 -35415,-111370 -102516,-111370 -40541,0 -79567,22134 -89935,60461l0 -52307z"/>
  <path id="7" class="fil4" d="M4403541 3864981c-33201,0 -59762,-17707 -65587,-53122l-82595 19222c7339,61859 63374,114282 146668,114282 104730,0 160764,-67101 160764,-173229l0 -336906 -89236 0 0 41240c-9552,-27959 -38327,-49394 -79566,-49394 -70014,0 -136417,52306 -136417,177656 0,129077 69315,176957 138630,176957 37628,0 66286,-20620 72927,-40541l0 48579c0,52423 -24348,75256 -65588,75256zm7340 -161463c-33085,0 -57433,-27959 -57433,-99487 0,-66403 23532,-97391 57433,-97391 34715,0 57549,31804 57549,97391 0,70713 -22834,99487 -57549,99487z"/>
  <path id="8" class="fil4" d="M4910764 3708644l0 -333178 42754 0c70014,0 105429,59762 105429,166589 0,108341 -35415,166589 -104730,166589l-43453 0zm50093 95876c62675,0 197577,-28774 197577,-262465 0,-232875 -134902,-260252 -197577,-260252l-147367 0 0 522717 147367 0z"/>
  <path id="9" class="fil4" d="M5331664 3804520l0 -369292 -95178 0 0 369292 95178 0zm-106245 -482176c0,33201 25862,59063 58248,59063 33202,0 59763,-25862 59763,-59063 0,-33085 -26561,-59646 -59763,-59646 -32386,0 -58248,26561 -58248,59646z"/>
  <path id="10" class="fil4" d="M5553472 3864981c-33202,0 -59763,-17707 -65588,-53122l-82595 19222c7339,61859 63374,114282 146668,114282 104730,0 160764,-67101 160764,-173229l0 -336906 -89235 0 0 41240c-9553,-27959 -38328,-49394 -79567,-49394 -70014,0 -136417,52306 -136417,177656 0,129077 69315,176957 138630,176957 37628,0 66286,-20620 72927,-40541l0 48579c0,52423 -24348,75256 -65587,75256zm7339 -161463c-33085,0 -57433,-27959 -57433,-99487 0,-66403 23533,-97391 57433,-97391 34716,0 57549,31804 57549,97391 0,70713 -22833,99487 -57549,99487z"/>
  <path id="11" class="fil4" d="M5899231 3804520l0 -369292 -95177 0 0 369292 95177 0zm-106244 -482176c0,33201 25862,59063 58248,59063 33201,0 59762,-25862 59762,-59063 0,-33085 -26561,-59646 -59762,-59646 -32386,0 -58248,26561 -58248,59646z"/>
  <path id="12" class="fil4" d="M6112884 3329800l-86206 0 0 61160c0,28774 -10369,44268 -41240,44268l-25862 0 0 81780 58248 0 0 183598c0,76654 46482,109855 109855,109855 29474,0 45667,-7455 50094,-9669l0 -83993c-5126,1514 -14679,3728 -25746,3728 -23649,0 -39143,-10369 -39143,-41356l0 -162163 65704 0 0 -81780 -65704 0 0 -105428z"/>
  <path id="13" class="fil4" d="M6231477 3703518c0,60461 44968,107642 109856,107642 40540,0 70130,-19222 81896,-50093 0,19105 2214,40541 3612,43453l90750 0c-1515,-5941 -5242,-30172 -5242,-61160l0 -189539c0,-88420 -55918,-129660 -137815,-129660 -91449,0 -134902,60462 -137815,115681l83994 11766c2912,-31687 22134,-51492 52307,-51492 29590,0 46481,16892 46481,44152l0 4427c0,13980 -5941,18407 -25745,24348l-64888 19222c-56035,16193 -97391,47879 -97391,111253l0 0zm94362 -7339c0,-25047 14096,-38327 43569,-47181l27260 -8155c11766,-3611 18407,-5824 22134,-9552l0 47880c0,37628 -17707,58946 -50209,58946 -26445,0 -42754,-18406 -42754,-41938l0 0z"/>
  <polygon id="14" class="fil4" points="6698858,3804520 6698858,3270853 6602283,3270853 6602283,3804520 "/>
  <polygon id="15" class="fil4" points="7214935,3804520 7214935,3710158 7047647,3710158 7047647,3585624 7196528,3585624 7196528,3497903 7047647,3497903 7047647,3375466 7214236,3375466 7214236,3281803 6950373,3281803 6950373,3804520 "/>
  <path id="16" class="fil4" d="M7278308 3619525c0,134902 61860,193150 140028,193150 30289,0 66403,-14096 81897,-53821 699,17707 2213,35298 3611,45666l89935 0c-1398,-10368 -4427,-43453 -4427,-78169l0 -455498 -94361 0 0 201188c-9553,-28774 -40541,-45666 -78868,-45666 -75140,0 -137815,60461 -137815,193150l0 0zm155522 112768c-36113,0 -61160,-31687 -61160,-112768 0,-81081 25047,-112885 61160,-112885 36114,0 61161,31804 61161,112885 0,81081 -25047,112768 -61161,112768z"/>
  <path id="17" class="fil4" d="M7966799 3804520c-1515,-6640 -5126,-33201 -5126,-67102l0 -302190 -93663 0 0 237302c0,39842 -22134,56035 -47880,56035 -22833,0 -45782,-12465 -45782,-53821l0 -239516 -94362 0 0 257223c0,72227 41356,120224 112069,120224 33201,0 75955,-18523 83294,-53821 0,15494 816,29473 3728,45666l87722 0z"/>
  <path id="18" class="fil4" d="M8131873 3619525c0,-76655 22134,-112885 62675,-112885 36813,0 50093,28775 53006,61277l86323 -13280c-3728,-44269 -34716,-130476 -138630,-130476 -97274,0 -158551,75140 -158551,196063 0,121621 61277,195363 159250,195363 85508,0 132689,-71528 137931,-138630l-84809 -8038c-2912,30172 -16193,62675 -54520,62675 -41356,0 -62675,-36930 -62675,-112069z"/>
  <path id="19" class="fil4" d="M8383155 3703518c0,60461 44967,107642 109855,107642 40541,0 70131,-19222 81897,-50093 0,19105 2213,40541 3611,43453l90750 0c-1514,-5941 -5242,-30172 -5242,-61160l0 -189539c0,-88420 -55918,-129660 -137814,-129660 -91450,0 -134903,60462 -137815,115681l83993 11766c2913,-31687 22135,-51492 52307,-51492 29590,0 46482,16892 46482,44152l0 4427c0,13980 -5941,18407 -25746,24348l-64888 19222c-56034,16193 -97390,47879 -97390,111253l0 0zm94361 -7339c0,-25047 14096,-38327 43570,-47181l27260 -8155c11766,-3611 18406,-5824 22134,-9552l0 47880c0,37628 -17707,58946 -50210,58946 -26444,0 -42754,-18406 -42754,-41938l0 0z"/>
  <path id="20" class="fil4" d="M8871855 3329800l-86207 0 0 61160c0,28774 -10368,44268 -41240,44268l-25862 0 0 81780 58248 0 0 183598c0,76654 46482,109855 109856,109855 29473,0 45666,-7455 50093,-9669l0 -83993c-5126,1514 -14679,3728 -25746,3728 -23648,0 -39142,-10369 -39142,-41356l0 -162163 65703 0 0 -81780 -65703 0 0 -105428z"/>
  <path id="21" class="fil4" d="M9105545 3804520l0 -369292 -95177 0 0 369292 95177 0zm-106244 -482176c0,33201 25862,59063 58248,59063 33201,0 59762,-25862 59762,-59063 0,-33085 -26561,-59646 -59762,-59646 -32386,0 -58248,26561 -58248,59646z"/>
  <path id="22" class="fil4" d="M9337721 3732992c-39142,0 -63490,-35415 -63490,-113467 0,-79683 23649,-114283 63490,-114283 39026,0 62675,34600 62675,114283 0,78052 -24348,113467 -62675,113467zm0 -308831c-96575,0 -157851,75955 -157851,196063 0,119408 59762,195363 157851,195363 97274,0 157736,-75955 157736,-195363 0,-120923 -61976,-196063 -157736,-196063z"/>
  <path id="23" class="fil4" d="M9660531 3435228l-91449 0 0 369292 95177 0 0 -230778c0,-39725 22018,-58248 49394,-58248 26445,0 44152,14795 44152,55335l0 233691 95177 0 0 -266076c0,-68616 -35414,-111370 -102516,-111370 -40541,0 -79567,22134 -89935,60461l0 -52307z"/>
 </g>
</svg>
