<?xml version="1.0" encoding="UTF-8"?>
<svg xmlns="http://www.w3.org/2000/svg" xmlns:xlink="http://www.w3.org/1999/xlink" width="212pt" height="85pt" viewBox="0 0 212 85" version="1.1">
<g id="surface1">
<path style=" stroke:none;fill-rule:nonzero;fill:rgb(93.72549%,49.803922%,10.196078%);fill-opacity:1;" d="M 0.0351562 64.957031 L 18.839844 64.957031 L 18.839844 58.589844 L 8.167969 58.589844 L 8.167969 36.9375 L 0.0351562 36.9375 Z M 0.0351562 64.957031 "/>
<path style=" stroke:none;fill-rule:nonzero;fill:rgb(93.72549%,49.803922%,10.196078%);fill-opacity:1;" d="M 22.90625 64.957031 L 42.984375 64.957031 L 42.984375 58.84375 L 31.039062 58.84375 L 31.039062 53.492188 L 40.1875 53.492188 L 40.1875 47.890625 L 31.039062 47.890625 L 31.039062 43.050781 L 42.476562 43.050781 L 42.476562 36.9375 L 22.90625 36.9375 Z M 22.90625 64.957031 "/>
<path style=" stroke:none;fill-rule:nonzero;fill:rgb(93.72549%,49.803922%,10.196078%);fill-opacity:1;" d="M 45.269531 64.957031 L 52.640625 64.957031 L 54.164062 59.609375 L 63.570312 59.609375 L 65.09375 64.957031 L 73.480469 64.957031 L 64.585938 36.9375 L 54.164062 36.9375 Z M 58.996094 43.304688 L 62.042969 54.257812 L 55.691406 54.257812 Z M 58.996094 43.304688 "/>
<path style=" stroke:none;fill-rule:nonzero;fill:rgb(93.72549%,49.803922%,10.196078%);fill-opacity:1;" d="M 77.039062 64.957031 L 85.171875 64.957031 L 85.171875 54.769531 L 86.949219 54.769531 L 92.792969 64.957031 L 101.179688 64.957031 L 94.574219 53.238281 C 97.367188 52.21875 99.65625 49.929688 99.65625 45.851562 C 99.65625 39.738281 95.589844 36.9375 88.21875 36.9375 L 77.039062 36.9375 Z M 85.171875 49.671875 L 85.171875 42.796875 L 87.710938 42.796875 C 90.507812 42.796875 91.777344 43.8125 91.777344 46.105469 C 91.777344 48.398438 90.507812 49.671875 87.710938 49.671875 Z M 85.171875 49.671875 "/>
<path style=" stroke:none;fill-rule:nonzero;fill:rgb(93.72549%,49.803922%,10.196078%);fill-opacity:1;" d="M 104.992188 64.957031 L 112.109375 64.957031 L 112.109375 47.378906 L 122.273438 64.957031 L 129.898438 64.957031 L 129.898438 36.9375 L 123.035156 36.9375 L 123.035156 52.730469 L 113.886719 36.9375 L 104.992188 36.9375 Z M 104.992188 64.957031 "/>
<path style=" stroke:none;fill-rule:nonzero;fill:rgb(93.72549%,49.803922%,10.196078%);fill-opacity:1;" d="M 142.605469 64.957031 L 150.738281 64.957031 L 150.738281 52.984375 L 159.378906 36.9375 L 151.753906 36.9375 L 146.925781 46.363281 L 142.097656 36.9375 L 133.457031 36.9375 L 142.605469 52.984375 Z M 142.605469 64.957031 "/>
<path style=" stroke:none;fill-rule:nonzero;fill:rgb(93.72549%,49.803922%,10.196078%);fill-opacity:1;" d="M 170.050781 64.957031 L 179.199219 64.957031 L 188.347656 36.9375 L 180.980469 36.9375 L 175.132812 56.550781 L 169.542969 36.9375 L 160.648438 36.9375 Z M 170.050781 64.957031 "/>
<path style=" stroke:none;fill-rule:nonzero;fill:rgb(93.72549%,49.803922%,10.196078%);fill-opacity:1;" d="M 191.90625 64.957031 L 211.984375 64.957031 L 211.984375 58.84375 L 200.039062 58.84375 L 200.039062 53.492188 L 208.933594 53.492188 L 208.933594 47.890625 L 200.039062 47.890625 L 200.039062 43.050781 L 211.476562 43.050781 L 211.476562 36.9375 L 191.90625 36.9375 Z M 191.90625 64.957031 "/>
<path style=" stroke:none;fill-rule:nonzero;fill:rgb(55.686275%,77.647059%,24.705882%);fill-opacity:1;" d="M 13.25 19.613281 L 32.054688 26.746094 L 51.371094 19.613281 L 193.6875 19.613281 L 193.6875 21.398438 L 51.371094 21.398438 L 32.054688 28.785156 L 13.25 21.652344 Z M 13.25 19.613281 "/>
<path style=" stroke:none;fill-rule:evenodd;fill:rgb(55.686275%,77.647059%,24.705882%);fill-opacity:1;" d="M 205.882812 26.238281 C 208.933594 26.238281 211.476562 23.691406 211.476562 20.886719 C 211.476562 17.832031 208.933594 15.539062 205.882812 15.539062 L 197.242188 15.539062 C 194.449219 15.539062 191.90625 17.832031 191.90625 20.886719 C 191.90625 23.691406 194.449219 26.238281 197.242188 26.238281 Z M 205.882812 26.238281 "/>
<path style=" stroke:none;fill-rule:evenodd;fill:rgb(99.607843%,99.607843%,99.607843%);fill-opacity:1;" d="M 195.71875 19.613281 L 199.023438 19.613281 C 199.53125 19.613281 199.785156 19.871094 199.785156 20.378906 C 199.785156 21.144531 199.53125 21.398438 199.023438 21.398438 L 195.71875 21.398438 C 195.210938 21.398438 194.703125 21.144531 194.703125 20.378906 C 194.703125 19.871094 195.210938 19.613281 195.71875 19.613281 Z M 195.71875 19.613281 "/>
<path style=" stroke:none;fill-rule:evenodd;fill:rgb(55.686275%,77.647059%,24.705882%);fill-opacity:1;" d="M 54.929688 14.011719 L 61.535156 11.464844 L 32.308594 0 L 15.792969 6.625 L 22.398438 9.171875 L 32.308594 5.347656 Z M 3.339844 11.464844 L 3.339844 24.710938 L 1.558594 28.785156 L 4.101562 34.644531 L 6.386719 28.785156 L 4.863281 24.453125 L 4.863281 11.972656 L 32.308594 22.925781 L 49.082031 16.304688 L 42.476562 13.753906 L 32.308594 17.578125 L 10.199219 8.660156 Z M 3.339844 11.464844 "/>
<path style=" stroke:none;fill-rule:nonzero;fill:rgb(16.862745%,16.470588%,16.078431%);fill-opacity:1;" d="M 41.96875 75.65625 L 41.96875 72.597656 L 42.730469 72.597656 C 44 72.597656 44.507812 73.109375 44.507812 74.128906 C 44.507812 75.148438 44 75.65625 42.730469 75.65625 Z M 43.238281 77.4375 C 45.523438 77.4375 46.542969 76.164062 46.542969 74.128906 C 46.542969 72.089844 45.523438 70.816406 43.238281 70.816406 L 39.679688 70.816406 L 39.679688 82.023438 L 41.96875 82.023438 L 41.96875 77.4375 Z M 43.238281 77.4375 "/>
<path style=" stroke:none;fill-rule:nonzero;fill:rgb(16.862745%,16.470588%,16.078431%);fill-opacity:1;" d="M 50.863281 80.496094 C 49.84375 80.496094 49.335938 79.730469 49.335938 77.949219 C 49.335938 76.421875 49.84375 75.65625 50.863281 75.65625 C 51.625 75.65625 52.132812 76.421875 52.132812 77.949219 C 52.132812 79.730469 51.625 80.496094 50.863281 80.496094 Z M 50.863281 73.871094 C 48.574219 73.871094 47.304688 75.402344 47.304688 77.949219 C 47.304688 80.75 48.574219 82.277344 50.863281 82.277344 C 52.894531 82.277344 54.164062 80.75 54.164062 77.949219 C 54.164062 75.402344 52.894531 73.871094 50.863281 73.871094 Z M 50.863281 73.871094 "/>
<path style=" stroke:none;fill-rule:nonzero;fill:rgb(16.862745%,16.470588%,16.078431%);fill-opacity:1;" d="M 59.25 74.128906 L 57.976562 79.222656 L 56.960938 74.128906 L 54.929688 74.128906 L 56.960938 82.023438 L 58.996094 82.023438 L 60.265625 76.675781 L 61.535156 82.023438 L 63.824219 82.023438 L 65.601562 74.128906 L 63.570312 74.128906 L 62.550781 79.222656 L 61.28125 74.128906 Z M 59.25 74.128906 "/>
<path style=" stroke:none;fill-rule:nonzero;fill:rgb(16.862745%,16.470588%,16.078431%);fill-opacity:1;" d="M 68.398438 77.183594 C 68.398438 76.164062 68.90625 75.402344 69.667969 75.402344 C 70.429688 75.402344 70.9375 76.164062 70.9375 77.183594 Z M 69.667969 73.871094 C 67.636719 73.871094 66.363281 75.65625 66.363281 77.949219 C 66.363281 80.496094 67.636719 82.277344 69.921875 82.277344 C 71.699219 82.277344 72.71875 80.75 72.71875 79.476562 L 70.9375 79.222656 C 70.9375 79.988281 70.683594 80.496094 69.921875 80.496094 C 68.652344 80.496094 68.398438 79.476562 68.398438 78.457031 L 72.972656 78.457031 C 72.972656 78.457031 72.972656 77.949219 72.972656 77.695312 C 72.972656 75.148438 71.699219 73.871094 69.667969 73.871094 Z M 69.667969 73.871094 "/>
<path style=" stroke:none;fill-rule:nonzero;fill:rgb(16.862745%,16.470588%,16.078431%);fill-opacity:1;" d="M 78.5625 74.128906 C 78.5625 73.871094 78.308594 73.871094 78.308594 73.871094 C 77.292969 73.871094 76.53125 74.382812 76.53125 75.402344 L 76.53125 74.128906 L 74.496094 74.128906 L 74.496094 82.023438 L 76.53125 82.023438 L 76.53125 77.949219 C 76.53125 76.675781 77.292969 76.164062 78.308594 76.164062 C 78.308594 76.164062 78.5625 76.164062 78.5625 76.164062 Z M 78.5625 74.128906 "/>
<path style=" stroke:none;fill-rule:nonzero;fill:rgb(16.862745%,16.470588%,16.078431%);fill-opacity:1;" d="M 81.867188 82.023438 L 81.867188 74.128906 L 79.832031 74.128906 L 79.832031 82.023438 Z M 79.578125 71.582031 C 79.578125 72.34375 80.085938 72.855469 80.851562 72.855469 C 81.613281 72.855469 82.121094 72.34375 82.121094 71.582031 C 82.121094 70.816406 81.613281 70.304688 80.851562 70.304688 C 80.085938 70.304688 79.578125 70.816406 79.578125 71.582031 Z M 79.578125 71.582031 "/>
<path style=" stroke:none;fill-rule:nonzero;fill:rgb(16.862745%,16.470588%,16.078431%);fill-opacity:1;" d="M 85.933594 74.128906 L 83.898438 74.128906 L 83.898438 82.023438 L 85.933594 82.023438 L 85.933594 76.929688 C 85.933594 76.164062 86.441406 75.910156 86.949219 75.910156 C 87.710938 75.910156 87.964844 76.164062 87.964844 76.929688 L 87.964844 82.023438 L 90 82.023438 L 90 76.164062 C 90 74.890625 89.234375 73.871094 87.710938 73.871094 C 86.949219 73.871094 86.1875 74.382812 85.933594 75.148438 Z M 85.933594 74.128906 "/>
<path style=" stroke:none;fill-rule:nonzero;fill:rgb(16.862745%,16.470588%,16.078431%);fill-opacity:1;" d="M 94.828125 83.296875 C 94.066406 83.296875 93.554688 83.042969 93.300781 82.277344 L 91.523438 82.535156 C 91.777344 83.808594 93.046875 85.082031 94.828125 85.082031 C 96.859375 85.082031 98.132812 83.554688 98.132812 81.261719 L 98.132812 74.128906 L 96.351562 74.128906 L 96.351562 74.890625 C 96.097656 74.382812 95.335938 73.871094 94.574219 73.871094 C 93.046875 73.871094 91.523438 74.890625 91.523438 77.695312 C 91.523438 80.496094 93.046875 81.515625 94.574219 81.515625 C 95.335938 81.515625 96.097656 81.003906 96.097656 80.75 L 96.097656 81.769531 C 96.097656 82.789062 95.589844 83.296875 94.828125 83.296875 Z M 94.828125 79.730469 C 94.320312 79.730469 93.554688 79.222656 93.554688 77.695312 C 93.554688 76.164062 94.066406 75.65625 94.828125 75.65625 C 95.589844 75.65625 96.097656 76.164062 96.097656 77.695312 C 96.097656 79.222656 95.589844 79.730469 94.828125 79.730469 Z M 94.828125 79.730469 "/>
<path style=" stroke:none;fill-rule:nonzero;fill:rgb(16.862745%,16.470588%,16.078431%);fill-opacity:1;" d="M 105.753906 79.988281 L 105.753906 72.855469 L 106.515625 72.855469 C 108.042969 72.855469 108.804688 74.128906 108.804688 76.421875 C 108.804688 78.710938 108.042969 79.988281 106.515625 79.988281 Z M 106.773438 82.023438 C 108.042969 82.023438 111.09375 81.515625 111.09375 76.421875 C 111.09375 71.324219 108.042969 70.816406 106.773438 70.816406 L 103.46875 70.816406 L 103.46875 82.023438 Z M 106.773438 82.023438 "/>
<path style=" stroke:none;fill-rule:nonzero;fill:rgb(16.862745%,16.470588%,16.078431%);fill-opacity:1;" d="M 114.648438 82.023438 L 114.648438 74.128906 L 112.617188 74.128906 L 112.617188 82.023438 Z M 112.363281 71.582031 C 112.363281 72.34375 112.871094 72.855469 113.632812 72.855469 C 114.394531 72.855469 114.902344 72.34375 114.902344 71.582031 C 114.902344 70.816406 114.394531 70.304688 113.632812 70.304688 C 112.871094 70.304688 112.363281 70.816406 112.363281 71.582031 Z M 112.363281 71.582031 "/>
<path style=" stroke:none;fill-rule:nonzero;fill:rgb(16.862745%,16.470588%,16.078431%);fill-opacity:1;" d="M 119.476562 83.296875 C 118.714844 83.296875 118.207031 83.042969 117.953125 82.277344 L 116.175781 82.535156 C 116.429688 83.808594 117.699219 85.082031 119.476562 85.082031 C 121.765625 85.082031 123.035156 83.554688 123.035156 81.261719 L 123.035156 74.128906 L 121.003906 74.128906 L 121.003906 74.890625 C 120.75 74.382812 120.242188 73.871094 119.222656 73.871094 C 117.699219 73.871094 116.429688 74.890625 116.429688 77.695312 C 116.429688 80.496094 117.953125 81.515625 119.222656 81.515625 C 120.242188 81.515625 120.75 81.003906 121.003906 80.75 L 121.003906 81.769531 C 121.003906 82.789062 120.496094 83.296875 119.476562 83.296875 Z M 119.734375 79.730469 C 118.96875 79.730469 118.460938 79.222656 118.460938 77.695312 C 118.460938 76.164062 118.96875 75.65625 119.734375 75.65625 C 120.496094 75.65625 121.003906 76.164062 121.003906 77.695312 C 121.003906 79.222656 120.496094 79.730469 119.734375 79.730469 Z M 119.734375 79.730469 "/>
<path style=" stroke:none;fill-rule:nonzero;fill:rgb(16.862745%,16.470588%,16.078431%);fill-opacity:1;" d="M 126.847656 82.023438 L 126.847656 74.128906 L 124.816406 74.128906 L 124.816406 82.023438 Z M 124.5625 71.582031 C 124.5625 72.34375 125.070312 72.855469 125.832031 72.855469 C 126.59375 72.855469 127.101562 72.34375 127.101562 71.582031 C 127.101562 70.816406 126.59375 70.304688 125.832031 70.304688 C 125.070312 70.304688 124.5625 70.816406 124.5625 71.582031 Z M 124.5625 71.582031 "/>
<path style=" stroke:none;fill-rule:nonzero;fill:rgb(16.862745%,16.470588%,16.078431%);fill-opacity:1;" d="M 131.421875 71.835938 L 129.644531 71.835938 L 129.644531 73.109375 C 129.644531 73.617188 129.390625 74.128906 128.882812 74.128906 L 128.117188 74.128906 L 128.117188 75.910156 L 129.390625 75.910156 L 129.390625 79.730469 C 129.390625 81.515625 130.40625 82.023438 131.929688 82.023438 C 132.4375 82.023438 132.949219 82.023438 132.949219 82.023438 L 132.949219 80.242188 C 132.691406 80.242188 132.691406 80.242188 132.4375 80.242188 C 131.929688 80.242188 131.421875 79.988281 131.421875 79.222656 L 131.421875 75.910156 L 132.949219 75.910156 L 132.949219 74.128906 L 131.421875 74.128906 Z M 131.421875 71.835938 "/>
<path style=" stroke:none;fill-rule:nonzero;fill:rgb(16.862745%,16.470588%,16.078431%);fill-opacity:1;" d="M 133.964844 79.730469 C 133.964844 81.261719 134.980469 82.277344 136.503906 82.277344 C 137.269531 82.277344 138.03125 81.769531 138.285156 81.003906 C 138.285156 81.515625 138.285156 82.023438 138.285156 82.023438 L 140.316406 82.023438 C 140.316406 81.769531 140.0625 81.261719 140.0625 80.75 L 140.0625 76.675781 C 140.0625 74.636719 138.792969 73.871094 137.269531 73.871094 C 135.234375 73.871094 134.21875 75.148438 134.21875 76.421875 L 135.996094 76.675781 C 135.996094 75.910156 136.503906 75.402344 137.011719 75.402344 C 137.777344 75.402344 138.03125 75.910156 138.03125 76.421875 C 138.03125 76.929688 138.03125 76.929688 137.523438 76.929688 L 136.25 77.4375 C 134.980469 77.695312 133.964844 78.457031 133.964844 79.730469 Z M 135.996094 79.730469 C 135.996094 79.222656 136.503906 78.96875 137.011719 78.710938 L 137.523438 78.457031 C 137.777344 78.457031 138.03125 78.457031 138.03125 78.203125 L 138.03125 79.222656 C 138.03125 80.242188 137.777344 80.496094 137.011719 80.496094 C 136.503906 80.496094 135.996094 80.242188 135.996094 79.730469 Z M 135.996094 79.730469 "/>
<path style=" stroke:none;fill-rule:nonzero;fill:rgb(16.862745%,16.470588%,16.078431%);fill-opacity:1;" d="M 144.128906 82.023438 L 144.128906 70.5625 L 142.097656 70.5625 L 142.097656 82.023438 Z M 144.128906 82.023438 "/>
<path style=" stroke:none;fill-rule:nonzero;fill:rgb(16.862745%,16.470588%,16.078431%);fill-opacity:1;" d="M 155.3125 82.023438 L 155.3125 79.988281 L 151.5 79.988281 L 151.5 77.183594 L 154.804688 77.183594 L 154.804688 75.402344 L 151.5 75.402344 L 151.5 72.855469 L 155.3125 72.855469 L 155.3125 70.816406 L 149.464844 70.816406 L 149.464844 82.023438 Z M 155.3125 82.023438 "/>
<path style=" stroke:none;fill-rule:nonzero;fill:rgb(16.862745%,16.470588%,16.078431%);fill-opacity:1;" d="M 156.582031 77.949219 C 156.582031 81.003906 157.851562 82.277344 159.632812 82.277344 C 160.140625 82.277344 160.902344 81.769531 161.410156 81.003906 C 161.410156 81.515625 161.410156 81.769531 161.410156 82.023438 L 163.445312 82.023438 C 163.445312 81.769531 163.191406 81.003906 163.191406 80.242188 L 163.191406 70.5625 L 161.15625 70.5625 L 161.15625 74.890625 C 161.15625 74.128906 160.394531 73.871094 159.632812 73.871094 C 157.851562 73.871094 156.582031 75.148438 156.582031 77.949219 Z M 159.886719 80.496094 C 159.125 80.496094 158.613281 79.730469 158.613281 77.949219 C 158.613281 76.164062 159.125 75.65625 159.886719 75.65625 C 160.648438 75.65625 161.15625 76.164062 161.15625 77.949219 C 161.15625 79.730469 160.648438 80.496094 159.886719 80.496094 Z M 159.886719 80.496094 "/>
<path style=" stroke:none;fill-rule:nonzero;fill:rgb(16.862745%,16.470588%,16.078431%);fill-opacity:1;" d="M 171.320312 82.023438 C 171.320312 81.769531 171.320312 81.261719 171.320312 80.496094 L 171.320312 74.128906 L 169.289062 74.128906 L 169.289062 79.222656 C 169.289062 79.988281 168.78125 80.496094 168.273438 80.496094 C 167.765625 80.496094 167.253906 80.242188 167.253906 79.222656 L 167.253906 74.128906 L 165.222656 74.128906 L 165.222656 79.730469 C 165.222656 81.261719 166.238281 82.277344 167.507812 82.277344 C 168.273438 82.277344 169.289062 81.769531 169.542969 81.003906 C 169.542969 81.261719 169.542969 81.769531 169.542969 82.023438 Z M 171.320312 82.023438 "/>
<path style=" stroke:none;fill-rule:nonzero;fill:rgb(16.862745%,16.470588%,16.078431%);fill-opacity:1;" d="M 174.878906 77.949219 C 174.878906 76.421875 175.386719 75.65625 176.40625 75.65625 C 177.167969 75.65625 177.421875 76.164062 177.421875 76.929688 L 179.199219 76.675781 C 179.199219 75.65625 178.4375 73.871094 176.40625 73.871094 C 174.117188 73.871094 172.847656 75.402344 172.847656 77.949219 C 172.847656 80.75 174.117188 82.277344 176.40625 82.277344 C 178.183594 82.277344 179.199219 80.75 179.199219 79.222656 L 177.421875 79.222656 C 177.421875 79.730469 177.167969 80.496094 176.40625 80.496094 C 175.386719 80.496094 174.878906 79.730469 174.878906 77.949219 Z M 174.878906 77.949219 "/>
<path style=" stroke:none;fill-rule:nonzero;fill:rgb(16.862745%,16.470588%,16.078431%);fill-opacity:1;" d="M 180.46875 79.730469 C 180.46875 81.261719 181.234375 82.277344 182.757812 82.277344 C 183.519531 82.277344 184.28125 81.769531 184.535156 81.003906 C 184.535156 81.515625 184.535156 82.023438 184.535156 82.023438 L 186.570312 82.023438 C 186.570312 81.769531 186.316406 81.261719 186.316406 80.75 L 186.316406 76.675781 C 186.316406 74.636719 185.300781 73.871094 183.519531 73.871094 C 181.488281 73.871094 180.46875 75.148438 180.46875 76.421875 L 182.25 76.675781 C 182.25 75.910156 182.757812 75.402344 183.519531 75.402344 C 184.027344 75.402344 184.28125 75.910156 184.28125 76.421875 C 184.28125 76.929688 184.28125 76.929688 183.773438 76.929688 L 182.503906 77.4375 C 181.234375 77.695312 180.46875 78.457031 180.46875 79.730469 Z M 182.503906 79.730469 C 182.503906 79.222656 182.757812 78.96875 183.265625 78.710938 L 184.027344 78.457031 C 184.28125 78.457031 184.28125 78.457031 184.28125 78.203125 L 184.28125 79.222656 C 184.28125 80.242188 184.027344 80.496094 183.265625 80.496094 C 182.757812 80.496094 182.503906 80.242188 182.503906 79.730469 Z M 182.503906 79.730469 "/>
<path style=" stroke:none;fill-rule:nonzero;fill:rgb(16.862745%,16.470588%,16.078431%);fill-opacity:1;" d="M 190.890625 71.835938 L 189.109375 71.835938 L 189.109375 73.109375 C 189.109375 73.617188 188.855469 74.128906 188.09375 74.128906 L 187.585938 74.128906 L 187.585938 75.910156 L 188.855469 75.910156 L 188.855469 79.730469 C 188.855469 81.515625 189.875 82.023438 191.144531 82.023438 C 191.90625 82.023438 192.160156 82.023438 192.160156 82.023438 L 192.160156 80.242188 C 192.160156 80.242188 191.90625 80.242188 191.652344 80.242188 C 191.144531 80.242188 190.890625 79.988281 190.890625 79.222656 L 190.890625 75.910156 L 192.160156 75.910156 L 192.160156 74.128906 L 190.890625 74.128906 Z M 190.890625 71.835938 "/>
<path style=" stroke:none;fill-rule:nonzero;fill:rgb(16.862745%,16.470588%,16.078431%);fill-opacity:1;" d="M 195.972656 82.023438 L 195.972656 74.128906 L 193.941406 74.128906 L 193.941406 82.023438 Z M 193.6875 71.582031 C 193.6875 72.34375 194.195312 72.855469 194.957031 72.855469 C 195.464844 72.855469 196.226562 72.34375 196.226562 71.582031 C 196.226562 70.816406 195.464844 70.304688 194.957031 70.304688 C 194.195312 70.304688 193.6875 70.816406 193.6875 71.582031 Z M 193.6875 71.582031 "/>
<path style=" stroke:none;fill-rule:nonzero;fill:rgb(16.862745%,16.470588%,16.078431%);fill-opacity:1;" d="M 200.800781 80.496094 C 200.039062 80.496094 199.53125 79.730469 199.53125 77.949219 C 199.53125 76.421875 200.039062 75.65625 200.800781 75.65625 C 201.816406 75.65625 202.328125 76.421875 202.328125 77.949219 C 202.328125 79.730469 201.816406 80.496094 200.800781 80.496094 Z M 200.800781 73.871094 C 198.769531 73.871094 197.496094 75.402344 197.496094 77.949219 C 197.496094 80.75 198.769531 82.277344 200.800781 82.277344 C 203.089844 82.277344 204.359375 80.75 204.359375 77.949219 C 204.359375 75.402344 202.835938 73.871094 200.800781 73.871094 Z M 200.800781 73.871094 "/>
<path style=" stroke:none;fill-rule:nonzero;fill:rgb(16.862745%,16.470588%,16.078431%);fill-opacity:1;" d="M 207.917969 74.128906 L 205.882812 74.128906 L 205.882812 82.023438 L 207.917969 82.023438 L 207.917969 76.929688 C 207.917969 76.164062 208.425781 75.910156 208.933594 75.910156 C 209.441406 75.910156 209.949219 76.164062 209.949219 76.929688 L 209.949219 82.023438 L 211.984375 82.023438 L 211.984375 76.164062 C 211.984375 74.890625 211.222656 73.871094 209.695312 73.871094 C 208.933594 73.871094 208.171875 74.382812 207.917969 75.148438 Z M 207.917969 74.128906 "/>
</g>
</svg>
