<?xml version="1.0" encoding="UTF-8"?>
<svg xmlns="http://www.w3.org/2000/svg" xmlns:xlink="http://www.w3.org/1999/xlink" width="137pt" height="55pt" viewBox="0 0 137 55" version="1.1">
<g id="surface1">
<path style=" stroke:none;fill-rule:nonzero;fill:rgb(93.72549%,49.803922%,10.196078%);fill-opacity:1;" d="M 0.0234375 42.03125 L 12.175781 42.03125 L 12.175781 37.910156 L 5.277344 37.910156 L 5.277344 23.898438 L 0.0234375 23.898438 Z M 0.0234375 42.03125 "/>
<path style=" stroke:none;fill-rule:nonzero;fill:rgb(93.72549%,49.803922%,10.196078%);fill-opacity:1;" d="M 14.804688 42.03125 L 27.777344 42.03125 L 27.777344 38.074219 L 20.058594 38.074219 L 20.058594 34.613281 L 25.972656 34.613281 L 25.972656 30.988281 L 20.058594 30.988281 L 20.058594 27.855469 L 27.449219 27.855469 L 27.449219 23.898438 L 14.804688 23.898438 Z M 14.804688 42.03125 "/>
<path style=" stroke:none;fill-rule:nonzero;fill:rgb(93.72549%,49.803922%,10.196078%);fill-opacity:1;" d="M 29.253906 42.03125 L 34.019531 42.03125 L 35.003906 38.570312 L 41.078125 38.570312 L 42.066406 42.03125 L 47.484375 42.03125 L 41.738281 23.898438 L 35.003906 23.898438 Z M 38.125 28.019531 L 40.09375 35.109375 L 35.988281 35.109375 Z M 38.125 28.019531 "/>
<path style=" stroke:none;fill-rule:nonzero;fill:rgb(93.72549%,49.803922%,10.196078%);fill-opacity:1;" d="M 49.785156 42.03125 L 55.039062 42.03125 L 55.039062 35.4375 L 56.1875 35.4375 L 59.964844 42.03125 L 65.386719 42.03125 L 61.117188 34.449219 C 62.921875 33.789062 64.398438 32.304688 64.398438 29.667969 C 64.398438 25.714844 61.773438 23.898438 57.011719 23.898438 L 49.785156 23.898438 Z M 55.039062 32.140625 L 55.039062 27.691406 L 56.679688 27.691406 C 58.488281 27.691406 59.308594 28.351562 59.308594 29.832031 C 59.308594 31.316406 58.488281 32.140625 56.679688 32.140625 Z M 55.039062 32.140625 "/>
<path style=" stroke:none;fill-rule:nonzero;fill:rgb(93.72549%,49.803922%,10.196078%);fill-opacity:1;" d="M 67.847656 42.03125 L 72.449219 42.03125 L 72.449219 30.65625 L 79.015625 42.03125 L 83.945312 42.03125 L 83.945312 23.898438 L 79.507812 23.898438 L 79.507812 34.121094 L 73.597656 23.898438 L 67.847656 23.898438 Z M 67.847656 42.03125 "/>
<path style=" stroke:none;fill-rule:nonzero;fill:rgb(93.72549%,49.803922%,10.196078%);fill-opacity:1;" d="M 92.15625 42.03125 L 97.410156 42.03125 L 97.410156 34.285156 L 102.992188 23.898438 L 98.066406 23.898438 L 94.945312 30 L 91.828125 23.898438 L 86.242188 23.898438 L 92.15625 34.285156 Z M 92.15625 42.03125 "/>
<path style=" stroke:none;fill-rule:nonzero;fill:rgb(93.72549%,49.803922%,10.196078%);fill-opacity:1;" d="M 109.890625 42.03125 L 115.804688 42.03125 L 121.714844 23.898438 L 116.953125 23.898438 L 113.175781 36.589844 L 109.5625 23.898438 L 103.816406 23.898438 Z M 109.890625 42.03125 "/>
<path style=" stroke:none;fill-rule:nonzero;fill:rgb(93.72549%,49.803922%,10.196078%);fill-opacity:1;" d="M 124.015625 42.03125 L 136.988281 42.03125 L 136.988281 38.074219 L 129.269531 38.074219 L 129.269531 34.613281 L 135.019531 34.613281 L 135.019531 30.988281 L 129.269531 30.988281 L 129.269531 27.855469 L 136.660156 27.855469 L 136.660156 23.898438 L 124.015625 23.898438 Z M 124.015625 42.03125 "/>
<path style=" stroke:none;fill-rule:nonzero;fill:rgb(55.686275%,77.647059%,24.705882%);fill-opacity:1;" d="M 8.5625 12.691406 L 20.714844 17.308594 L 33.195312 12.691406 L 125.164062 12.691406 L 125.164062 13.84375 L 33.195312 13.84375 L 20.714844 18.625 L 8.5625 14.011719 Z M 8.5625 12.691406 "/>
<path style=" stroke:none;fill-rule:evenodd;fill:rgb(55.686275%,77.647059%,24.705882%);fill-opacity:1;" d="M 133.046875 16.976562 C 135.019531 16.976562 136.660156 15.328125 136.660156 13.515625 C 136.660156 11.539062 135.019531 10.054688 133.046875 10.054688 L 127.464844 10.054688 C 125.65625 10.054688 124.015625 11.539062 124.015625 13.515625 C 124.015625 15.328125 125.65625 16.976562 127.464844 16.976562 Z M 133.046875 16.976562 "/>
<path style=" stroke:none;fill-rule:evenodd;fill:rgb(99.607843%,99.607843%,99.607843%);fill-opacity:1;" d="M 126.480469 12.691406 L 128.613281 12.691406 C 128.941406 12.691406 129.105469 12.855469 129.105469 13.1875 C 129.105469 13.679688 128.941406 13.84375 128.613281 13.84375 L 126.480469 13.84375 C 126.148438 13.84375 125.820312 13.679688 125.820312 13.1875 C 125.820312 12.855469 126.148438 12.691406 126.480469 12.691406 Z M 126.480469 12.691406 "/>
<path style=" stroke:none;fill-rule:evenodd;fill:rgb(55.686275%,77.647059%,24.705882%);fill-opacity:1;" d="M 35.496094 9.066406 L 39.765625 7.417969 L 20.878906 0 L 10.203125 4.285156 L 14.476562 5.933594 L 20.878906 3.460938 Z M 2.15625 7.417969 L 2.15625 15.988281 L 1.007812 18.625 L 2.648438 22.417969 L 4.128906 18.625 L 3.144531 15.824219 L 3.144531 7.746094 L 20.878906 14.835938 L 31.71875 10.550781 L 27.449219 8.902344 L 20.878906 11.375 L 6.589844 5.605469 Z M 2.15625 7.417969 "/>
<path style=" stroke:none;fill-rule:nonzero;fill:rgb(16.862745%,16.470588%,16.078431%);fill-opacity:1;" d="M 27.121094 48.953125 L 27.121094 46.976562 L 27.613281 46.976562 C 28.433594 46.976562 28.761719 47.304688 28.761719 47.964844 C 28.761719 48.625 28.433594 48.953125 27.613281 48.953125 Z M 27.941406 50.109375 C 29.417969 50.109375 30.078125 49.285156 30.078125 47.964844 C 30.078125 46.644531 29.417969 45.820312 27.941406 45.820312 L 25.640625 45.820312 L 25.640625 53.074219 L 27.121094 53.074219 L 27.121094 50.109375 Z M 27.941406 50.109375 "/>
<path style=" stroke:none;fill-rule:nonzero;fill:rgb(16.862745%,16.470588%,16.078431%);fill-opacity:1;" d="M 32.867188 52.085938 C 32.210938 52.085938 31.882812 51.589844 31.882812 50.4375 C 31.882812 49.449219 32.210938 48.953125 32.867188 48.953125 C 33.359375 48.953125 33.691406 49.449219 33.691406 50.4375 C 33.691406 51.589844 33.359375 52.085938 32.867188 52.085938 Z M 32.867188 47.800781 C 31.390625 47.800781 30.570312 48.789062 30.570312 50.4375 C 30.570312 52.25 31.390625 53.238281 32.867188 53.238281 C 34.183594 53.238281 35.003906 52.25 35.003906 50.4375 C 35.003906 48.789062 34.183594 47.800781 32.867188 47.800781 Z M 32.867188 47.800781 "/>
<path style=" stroke:none;fill-rule:nonzero;fill:rgb(16.862745%,16.470588%,16.078431%);fill-opacity:1;" d="M 38.289062 47.964844 L 37.464844 51.261719 L 36.808594 47.964844 L 35.496094 47.964844 L 36.808594 53.074219 L 38.125 53.074219 L 38.945312 49.613281 L 39.765625 53.074219 L 41.242188 53.074219 L 42.394531 47.964844 L 41.078125 47.964844 L 40.421875 51.261719 L 39.601562 47.964844 Z M 38.289062 47.964844 "/>
<path style=" stroke:none;fill-rule:nonzero;fill:rgb(16.862745%,16.470588%,16.078431%);fill-opacity:1;" d="M 44.199219 49.941406 C 44.199219 49.285156 44.527344 48.789062 45.019531 48.789062 C 45.515625 48.789062 45.84375 49.285156 45.84375 49.941406 Z M 45.019531 47.800781 C 43.707031 47.800781 42.886719 48.953125 42.886719 50.4375 C 42.886719 52.085938 43.707031 53.238281 45.183594 53.238281 C 46.335938 53.238281 46.992188 52.25 46.992188 51.425781 L 45.84375 51.261719 C 45.84375 51.757812 45.679688 52.085938 45.183594 52.085938 C 44.363281 52.085938 44.199219 51.425781 44.199219 50.765625 L 47.15625 50.765625 C 47.15625 50.765625 47.15625 50.4375 47.15625 50.273438 C 47.15625 48.625 46.335938 47.800781 45.019531 47.800781 Z M 45.019531 47.800781 "/>
<path style=" stroke:none;fill-rule:nonzero;fill:rgb(16.862745%,16.470588%,16.078431%);fill-opacity:1;" d="M 50.769531 47.964844 C 50.769531 47.800781 50.605469 47.800781 50.605469 47.800781 C 49.949219 47.800781 49.457031 48.128906 49.457031 48.789062 L 49.457031 47.964844 L 48.140625 47.964844 L 48.140625 53.074219 L 49.457031 53.074219 L 49.457031 50.4375 C 49.457031 49.613281 49.949219 49.285156 50.605469 49.285156 C 50.605469 49.285156 50.769531 49.285156 50.769531 49.285156 Z M 50.769531 47.964844 "/>
<path style=" stroke:none;fill-rule:nonzero;fill:rgb(16.862745%,16.470588%,16.078431%);fill-opacity:1;" d="M 52.902344 53.074219 L 52.902344 47.964844 L 51.589844 47.964844 L 51.589844 53.074219 Z M 51.425781 46.316406 C 51.425781 46.8125 51.753906 47.140625 52.246094 47.140625 C 52.738281 47.140625 53.070312 46.8125 53.070312 46.316406 C 53.070312 45.820312 52.738281 45.492188 52.246094 45.492188 C 51.753906 45.492188 51.425781 45.820312 51.425781 46.316406 Z M 51.425781 46.316406 "/>
<path style=" stroke:none;fill-rule:nonzero;fill:rgb(16.862745%,16.470588%,16.078431%);fill-opacity:1;" d="M 55.53125 47.964844 L 54.21875 47.964844 L 54.21875 53.074219 L 55.53125 53.074219 L 55.53125 49.777344 C 55.53125 49.285156 55.859375 49.117188 56.1875 49.117188 C 56.679688 49.117188 56.847656 49.285156 56.847656 49.777344 L 56.847656 53.074219 L 58.160156 53.074219 L 58.160156 49.285156 C 58.160156 48.460938 57.667969 47.800781 56.679688 47.800781 C 56.1875 47.800781 55.695312 48.128906 55.53125 48.625 Z M 55.53125 47.964844 "/>
<path style=" stroke:none;fill-rule:nonzero;fill:rgb(16.862745%,16.470588%,16.078431%);fill-opacity:1;" d="M 61.28125 53.898438 C 60.789062 53.898438 60.457031 53.734375 60.292969 53.238281 L 59.144531 53.402344 C 59.308594 54.226562 60.128906 55.050781 61.28125 55.050781 C 62.59375 55.050781 63.414062 54.0625 63.414062 52.582031 L 63.414062 47.964844 L 62.265625 47.964844 L 62.265625 48.460938 C 62.101562 48.128906 61.609375 47.800781 61.117188 47.800781 C 60.128906 47.800781 59.144531 48.460938 59.144531 50.273438 C 59.144531 52.085938 60.128906 52.746094 61.117188 52.746094 C 61.609375 52.746094 62.101562 52.414062 62.101562 52.25 L 62.101562 52.910156 C 62.101562 53.570312 61.773438 53.898438 61.28125 53.898438 Z M 61.28125 51.589844 C 60.953125 51.589844 60.457031 51.261719 60.457031 50.273438 C 60.457031 49.285156 60.789062 48.953125 61.28125 48.953125 C 61.773438 48.953125 62.101562 49.285156 62.101562 50.273438 C 62.101562 51.261719 61.773438 51.589844 61.28125 51.589844 Z M 61.28125 51.589844 "/>
<path style=" stroke:none;fill-rule:nonzero;fill:rgb(16.862745%,16.470588%,16.078431%);fill-opacity:1;" d="M 68.339844 51.757812 L 68.339844 47.140625 L 68.835938 47.140625 C 69.820312 47.140625 70.3125 47.964844 70.3125 49.449219 C 70.3125 50.933594 69.820312 51.757812 68.835938 51.757812 Z M 69 53.074219 C 69.820312 53.074219 71.789062 52.746094 71.789062 49.449219 C 71.789062 46.152344 69.820312 45.820312 69 45.820312 L 66.863281 45.820312 L 66.863281 53.074219 Z M 69 53.074219 "/>
<path style=" stroke:none;fill-rule:nonzero;fill:rgb(16.862745%,16.470588%,16.078431%);fill-opacity:1;" d="M 74.089844 53.074219 L 74.089844 47.964844 L 72.777344 47.964844 L 72.777344 53.074219 Z M 72.613281 46.316406 C 72.613281 46.8125 72.941406 47.140625 73.433594 47.140625 C 73.925781 47.140625 74.253906 46.8125 74.253906 46.316406 C 74.253906 45.820312 73.925781 45.492188 73.433594 45.492188 C 72.941406 45.492188 72.613281 45.820312 72.613281 46.316406 Z M 72.613281 46.316406 "/>
<path style=" stroke:none;fill-rule:nonzero;fill:rgb(16.862745%,16.470588%,16.078431%);fill-opacity:1;" d="M 77.210938 53.898438 C 76.71875 53.898438 76.390625 53.734375 76.226562 53.238281 L 75.074219 53.402344 C 75.238281 54.226562 76.058594 55.050781 77.210938 55.050781 C 78.6875 55.050781 79.507812 54.0625 79.507812 52.582031 L 79.507812 47.964844 L 78.195312 47.964844 L 78.195312 48.460938 C 78.03125 48.128906 77.703125 47.800781 77.046875 47.800781 C 76.058594 47.800781 75.238281 48.460938 75.238281 50.273438 C 75.238281 52.085938 76.226562 52.746094 77.046875 52.746094 C 77.703125 52.746094 78.03125 52.414062 78.195312 52.25 L 78.195312 52.910156 C 78.195312 53.570312 77.867188 53.898438 77.210938 53.898438 Z M 77.375 51.589844 C 76.882812 51.589844 76.554688 51.261719 76.554688 50.273438 C 76.554688 49.285156 76.882812 48.953125 77.375 48.953125 C 77.867188 48.953125 78.195312 49.285156 78.195312 50.273438 C 78.195312 51.261719 77.867188 51.589844 77.375 51.589844 Z M 77.375 51.589844 "/>
<path style=" stroke:none;fill-rule:nonzero;fill:rgb(16.862745%,16.470588%,16.078431%);fill-opacity:1;" d="M 81.972656 53.074219 L 81.972656 47.964844 L 80.660156 47.964844 L 80.660156 53.074219 Z M 80.496094 46.316406 C 80.496094 46.8125 80.824219 47.140625 81.316406 47.140625 C 81.808594 47.140625 82.136719 46.8125 82.136719 46.316406 C 82.136719 45.820312 81.808594 45.492188 81.316406 45.492188 C 80.824219 45.492188 80.496094 45.820312 80.496094 46.316406 Z M 80.496094 46.316406 "/>
<path style=" stroke:none;fill-rule:nonzero;fill:rgb(16.862745%,16.470588%,16.078431%);fill-opacity:1;" d="M 84.929688 46.480469 L 83.777344 46.480469 L 83.777344 47.304688 C 83.777344 47.636719 83.613281 47.964844 83.285156 47.964844 L 82.792969 47.964844 L 82.792969 49.117188 L 83.613281 49.117188 L 83.613281 51.589844 C 83.613281 52.746094 84.273438 53.074219 85.257812 53.074219 C 85.585938 53.074219 85.914062 53.074219 85.914062 53.074219 L 85.914062 51.921875 C 85.75 51.921875 85.75 51.921875 85.585938 51.921875 C 85.257812 51.921875 84.929688 51.757812 84.929688 51.261719 L 84.929688 49.117188 L 85.914062 49.117188 L 85.914062 47.964844 L 84.929688 47.964844 Z M 84.929688 46.480469 "/>
<path style=" stroke:none;fill-rule:nonzero;fill:rgb(16.862745%,16.470588%,16.078431%);fill-opacity:1;" d="M 86.570312 51.589844 C 86.570312 52.582031 87.226562 53.238281 88.214844 53.238281 C 88.707031 53.238281 89.199219 52.910156 89.363281 52.414062 C 89.363281 52.746094 89.363281 53.074219 89.363281 53.074219 L 90.675781 53.074219 C 90.675781 52.910156 90.511719 52.582031 90.511719 52.25 L 90.511719 49.613281 C 90.511719 48.292969 89.691406 47.800781 88.707031 47.800781 C 87.390625 47.800781 86.734375 48.625 86.734375 49.449219 L 87.886719 49.613281 C 87.886719 49.117188 88.214844 48.789062 88.542969 48.789062 C 89.035156 48.789062 89.199219 49.117188 89.199219 49.449219 C 89.199219 49.777344 89.199219 49.777344 88.871094 49.777344 L 88.050781 50.109375 C 87.226562 50.273438 86.570312 50.765625 86.570312 51.589844 Z M 87.886719 51.589844 C 87.886719 51.261719 88.214844 51.097656 88.542969 50.933594 L 88.871094 50.765625 C 89.035156 50.765625 89.199219 50.765625 89.199219 50.601562 L 89.199219 51.261719 C 89.199219 51.921875 89.035156 52.085938 88.542969 52.085938 C 88.214844 52.085938 87.886719 51.921875 87.886719 51.589844 Z M 87.886719 51.589844 "/>
<path style=" stroke:none;fill-rule:nonzero;fill:rgb(16.862745%,16.470588%,16.078431%);fill-opacity:1;" d="M 93.140625 53.074219 L 93.140625 45.65625 L 91.828125 45.65625 L 91.828125 53.074219 Z M 93.140625 53.074219 "/>
<path style=" stroke:none;fill-rule:nonzero;fill:rgb(16.862745%,16.470588%,16.078431%);fill-opacity:1;" d="M 100.367188 53.074219 L 100.367188 51.757812 L 97.902344 51.757812 L 97.902344 49.941406 L 100.039062 49.941406 L 100.039062 48.789062 L 97.902344 48.789062 L 97.902344 47.140625 L 100.367188 47.140625 L 100.367188 45.820312 L 96.589844 45.820312 L 96.589844 53.074219 Z M 100.367188 53.074219 "/>
<path style=" stroke:none;fill-rule:nonzero;fill:rgb(16.862745%,16.470588%,16.078431%);fill-opacity:1;" d="M 101.1875 50.4375 C 101.1875 52.414062 102.007812 53.238281 103.15625 53.238281 C 103.488281 53.238281 103.980469 52.910156 104.308594 52.414062 C 104.308594 52.746094 104.308594 52.910156 104.308594 53.074219 L 105.621094 53.074219 C 105.621094 52.910156 105.457031 52.414062 105.457031 51.921875 L 105.457031 45.65625 L 104.144531 45.65625 L 104.144531 48.460938 C 104.144531 47.964844 103.652344 47.800781 103.15625 47.800781 C 102.007812 47.800781 101.1875 48.625 101.1875 50.4375 Z M 103.324219 52.085938 C 102.828125 52.085938 102.5 51.589844 102.5 50.4375 C 102.5 49.285156 102.828125 48.953125 103.324219 48.953125 C 103.816406 48.953125 104.144531 49.285156 104.144531 50.4375 C 104.144531 51.589844 103.816406 52.085938 103.324219 52.085938 Z M 103.324219 52.085938 "/>
<path style=" stroke:none;fill-rule:nonzero;fill:rgb(16.862745%,16.470588%,16.078431%);fill-opacity:1;" d="M 110.710938 53.074219 C 110.710938 52.910156 110.710938 52.582031 110.710938 52.085938 L 110.710938 47.964844 L 109.398438 47.964844 L 109.398438 51.261719 C 109.398438 51.757812 109.070312 52.085938 108.742188 52.085938 C 108.414062 52.085938 108.085938 51.921875 108.085938 51.261719 L 108.085938 47.964844 L 106.769531 47.964844 L 106.769531 51.589844 C 106.769531 52.582031 107.429688 53.238281 108.25 53.238281 C 108.742188 53.238281 109.398438 52.910156 109.5625 52.414062 C 109.5625 52.582031 109.5625 52.910156 109.5625 53.074219 Z M 110.710938 53.074219 "/>
<path style=" stroke:none;fill-rule:nonzero;fill:rgb(16.862745%,16.470588%,16.078431%);fill-opacity:1;" d="M 113.011719 50.4375 C 113.011719 49.449219 113.339844 48.953125 113.996094 48.953125 C 114.488281 48.953125 114.652344 49.285156 114.652344 49.777344 L 115.804688 49.613281 C 115.804688 48.953125 115.3125 47.800781 113.996094 47.800781 C 112.519531 47.800781 111.699219 48.789062 111.699219 50.4375 C 111.699219 52.25 112.519531 53.238281 113.996094 53.238281 C 115.148438 53.238281 115.804688 52.25 115.804688 51.261719 L 114.652344 51.261719 C 114.652344 51.589844 114.488281 52.085938 113.996094 52.085938 C 113.339844 52.085938 113.011719 51.589844 113.011719 50.4375 Z M 113.011719 50.4375 "/>
<path style=" stroke:none;fill-rule:nonzero;fill:rgb(16.862745%,16.470588%,16.078431%);fill-opacity:1;" d="M 116.625 51.589844 C 116.625 52.582031 117.117188 53.238281 118.101562 53.238281 C 118.59375 53.238281 119.089844 52.910156 119.253906 52.414062 C 119.253906 52.746094 119.253906 53.074219 119.253906 53.074219 L 120.566406 53.074219 C 120.566406 52.910156 120.402344 52.582031 120.402344 52.25 L 120.402344 49.613281 C 120.402344 48.292969 119.746094 47.800781 118.59375 47.800781 C 117.28125 47.800781 116.625 48.625 116.625 49.449219 L 117.773438 49.613281 C 117.773438 49.117188 118.101562 48.789062 118.59375 48.789062 C 118.925781 48.789062 119.089844 49.117188 119.089844 49.449219 C 119.089844 49.777344 119.089844 49.777344 118.761719 49.777344 L 117.9375 50.109375 C 117.117188 50.273438 116.625 50.765625 116.625 51.589844 Z M 117.9375 51.589844 C 117.9375 51.261719 118.101562 51.097656 118.429688 50.933594 L 118.925781 50.765625 C 119.089844 50.765625 119.089844 50.765625 119.089844 50.601562 L 119.089844 51.261719 C 119.089844 51.921875 118.925781 52.085938 118.429688 52.085938 C 118.101562 52.085938 117.9375 51.921875 117.9375 51.589844 Z M 117.9375 51.589844 "/>
<path style=" stroke:none;fill-rule:nonzero;fill:rgb(16.862745%,16.470588%,16.078431%);fill-opacity:1;" d="M 123.359375 46.480469 L 122.207031 46.480469 L 122.207031 47.304688 C 122.207031 47.636719 122.042969 47.964844 121.550781 47.964844 L 121.222656 47.964844 L 121.222656 49.117188 L 122.042969 49.117188 L 122.042969 51.589844 C 122.042969 52.746094 122.703125 53.074219 123.523438 53.074219 C 124.015625 53.074219 124.179688 53.074219 124.179688 53.074219 L 124.179688 51.921875 C 124.179688 51.921875 124.015625 51.921875 123.851562 51.921875 C 123.523438 51.921875 123.359375 51.757812 123.359375 51.261719 L 123.359375 49.117188 L 124.179688 49.117188 L 124.179688 47.964844 L 123.359375 47.964844 Z M 123.359375 46.480469 "/>
<path style=" stroke:none;fill-rule:nonzero;fill:rgb(16.862745%,16.470588%,16.078431%);fill-opacity:1;" d="M 126.644531 53.074219 L 126.644531 47.964844 L 125.328125 47.964844 L 125.328125 53.074219 Z M 125.164062 46.316406 C 125.164062 46.8125 125.492188 47.140625 125.984375 47.140625 C 126.3125 47.140625 126.808594 46.8125 126.808594 46.316406 C 126.808594 45.820312 126.3125 45.492188 125.984375 45.492188 C 125.492188 45.492188 125.164062 45.820312 125.164062 46.316406 Z M 125.164062 46.316406 "/>
<path style=" stroke:none;fill-rule:nonzero;fill:rgb(16.862745%,16.470588%,16.078431%);fill-opacity:1;" d="M 129.761719 52.085938 C 129.269531 52.085938 128.941406 51.589844 128.941406 50.4375 C 128.941406 49.449219 129.269531 48.953125 129.761719 48.953125 C 130.421875 48.953125 130.75 49.449219 130.75 50.4375 C 130.75 51.589844 130.421875 52.085938 129.761719 52.085938 Z M 129.761719 47.800781 C 128.449219 47.800781 127.628906 48.789062 127.628906 50.4375 C 127.628906 52.25 128.449219 53.238281 129.761719 53.238281 C 131.242188 53.238281 132.0625 52.25 132.0625 50.4375 C 132.0625 48.789062 131.078125 47.800781 129.761719 47.800781 Z M 129.761719 47.800781 "/>
<path style=" stroke:none;fill-rule:nonzero;fill:rgb(16.862745%,16.470588%,16.078431%);fill-opacity:1;" d="M 134.363281 47.964844 L 133.046875 47.964844 L 133.046875 53.074219 L 134.363281 53.074219 L 134.363281 49.777344 C 134.363281 49.285156 134.691406 49.117188 135.019531 49.117188 C 135.347656 49.117188 135.675781 49.285156 135.675781 49.777344 L 135.675781 53.074219 L 136.988281 53.074219 L 136.988281 49.285156 C 136.988281 48.460938 136.496094 47.800781 135.511719 47.800781 C 135.019531 47.800781 134.527344 48.128906 134.363281 48.625 Z M 134.363281 47.964844 "/>
</g>
</svg>
