<?xml version="1.0" encoding="UTF-8"?>
<svg xmlns="http://www.w3.org/2000/svg" xmlns:xlink="http://www.w3.org/1999/xlink" width="215pt" height="86pt" viewBox="0 0 215 86" version="1.1">
<g id="surface1">
<path style=" stroke:none;fill-rule:nonzero;fill:rgb(93.72549%,49.803922%,10.196078%);fill-opacity:1;" d="M 0.0351562 65.722656 L 19.109375 65.722656 L 19.109375 59.277344 L 8.28125 59.277344 L 8.28125 37.371094 L 0.0351562 37.371094 Z M 0.0351562 65.722656 "/>
<path style=" stroke:none;fill-rule:nonzero;fill:rgb(93.72549%,49.803922%,10.196078%);fill-opacity:1;" d="M 23.230469 65.722656 L 43.59375 65.722656 L 43.59375 59.535156 L 31.480469 59.535156 L 31.480469 54.125 L 40.757812 54.125 L 40.757812 48.453125 L 31.480469 48.453125 L 31.480469 43.554688 L 43.078125 43.554688 L 43.078125 37.371094 L 23.230469 37.371094 Z M 23.230469 65.722656 "/>
<path style=" stroke:none;fill-rule:nonzero;fill:rgb(93.72549%,49.803922%,10.196078%);fill-opacity:1;" d="M 45.910156 65.722656 L 53.386719 65.722656 L 54.933594 60.308594 L 64.46875 60.308594 L 66.015625 65.722656 L 74.519531 65.722656 L 65.5 37.371094 L 54.933594 37.371094 Z M 59.828125 43.8125 L 62.921875 54.898438 L 56.480469 54.898438 Z M 59.828125 43.8125 "/>
<path style=" stroke:none;fill-rule:nonzero;fill:rgb(93.72549%,49.803922%,10.196078%);fill-opacity:1;" d="M 78.128906 65.722656 L 86.375 65.722656 L 86.375 55.414062 L 88.179688 55.414062 L 94.105469 65.722656 L 102.613281 65.722656 L 95.910156 53.867188 C 98.746094 52.835938 101.066406 50.515625 101.066406 46.390625 C 101.066406 40.207031 96.941406 37.371094 89.46875 37.371094 L 78.128906 37.371094 Z M 86.375 50.257812 L 86.375 43.296875 L 88.953125 43.296875 C 91.789062 43.296875 93.078125 44.328125 93.078125 46.648438 C 93.078125 48.96875 91.789062 50.257812 88.953125 50.257812 Z M 86.375 50.257812 "/>
<path style=" stroke:none;fill-rule:nonzero;fill:rgb(93.72549%,49.803922%,10.196078%);fill-opacity:1;" d="M 106.476562 65.722656 L 113.695312 65.722656 L 113.695312 47.9375 L 124.003906 65.722656 L 131.734375 65.722656 L 131.734375 37.371094 L 124.777344 37.371094 L 124.777344 53.351562 L 115.5 37.371094 L 106.476562 37.371094 Z M 106.476562 65.722656 "/>
<path style=" stroke:none;fill-rule:nonzero;fill:rgb(93.72549%,49.803922%,10.196078%);fill-opacity:1;" d="M 144.621094 65.722656 L 152.871094 65.722656 L 152.871094 53.609375 L 161.632812 37.371094 L 153.902344 37.371094 L 149.003906 46.90625 L 144.105469 37.371094 L 135.34375 37.371094 L 144.621094 53.609375 Z M 144.621094 65.722656 "/>
<path style=" stroke:none;fill-rule:nonzero;fill:rgb(93.72549%,49.803922%,10.196078%);fill-opacity:1;" d="M 172.457031 65.722656 L 181.734375 65.722656 L 191.015625 37.371094 L 183.539062 37.371094 L 177.613281 57.214844 L 171.941406 37.371094 L 162.921875 37.371094 Z M 172.457031 65.722656 "/>
<path style=" stroke:none;fill-rule:nonzero;fill:rgb(93.72549%,49.803922%,10.196078%);fill-opacity:1;" d="M 194.621094 65.722656 L 214.984375 65.722656 L 214.984375 59.535156 L 202.871094 59.535156 L 202.871094 54.125 L 211.890625 54.125 L 211.890625 48.453125 L 202.871094 48.453125 L 202.871094 43.554688 L 214.46875 43.554688 L 214.46875 37.371094 L 194.621094 37.371094 Z M 194.621094 65.722656 "/>
<path style=" stroke:none;fill-rule:nonzero;fill:rgb(55.686275%,77.647059%,24.705882%);fill-opacity:1;" d="M 13.4375 19.84375 L 32.507812 27.0625 L 52.097656 19.84375 L 196.425781 19.84375 L 196.425781 21.648438 L 52.097656 21.648438 L 32.507812 29.125 L 13.4375 21.90625 Z M 13.4375 19.84375 "/>
<path style=" stroke:none;fill-rule:evenodd;fill:rgb(55.686275%,77.647059%,24.705882%);fill-opacity:1;" d="M 208.796875 26.546875 C 211.890625 26.546875 214.46875 23.96875 214.46875 21.132812 C 214.46875 18.042969 211.890625 15.722656 208.796875 15.722656 L 200.035156 15.722656 C 197.199219 15.722656 194.621094 18.042969 194.621094 21.132812 C 194.621094 23.96875 197.199219 26.546875 200.035156 26.546875 Z M 208.796875 26.546875 "/>
<path style=" stroke:none;fill-rule:evenodd;fill:rgb(99.607843%,99.607843%,99.607843%);fill-opacity:1;" d="M 198.488281 19.84375 L 201.839844 19.84375 C 202.355469 19.84375 202.613281 20.101562 202.613281 20.617188 C 202.613281 21.390625 202.355469 21.648438 201.839844 21.648438 L 198.488281 21.648438 C 197.972656 21.648438 197.457031 21.390625 197.457031 20.617188 C 197.457031 20.101562 197.972656 19.84375 198.488281 19.84375 Z M 198.488281 19.84375 "/>
<path style=" stroke:none;fill-rule:evenodd;fill:rgb(55.686275%,77.647059%,24.705882%);fill-opacity:1;" d="M 55.707031 14.175781 L 62.40625 11.597656 L 32.765625 0 L 16.015625 6.699219 L 22.714844 9.277344 L 32.765625 5.414062 Z M 3.386719 11.597656 L 3.386719 25 L 1.582031 29.125 L 4.160156 35.050781 L 6.480469 29.125 L 4.933594 24.742188 L 4.933594 12.113281 L 32.765625 23.195312 L 49.777344 16.496094 L 43.078125 13.917969 L 32.765625 17.785156 L 10.34375 8.761719 Z M 3.386719 11.597656 "/>
<path style=" stroke:none;fill-rule:nonzero;fill:rgb(16.862745%,16.470588%,16.078431%);fill-opacity:1;" d="M 42.5625 76.546875 L 42.5625 73.453125 L 43.335938 73.453125 C 44.621094 73.453125 45.136719 73.96875 45.136719 75 C 45.136719 76.03125 44.621094 76.546875 43.335938 76.546875 Z M 43.851562 78.351562 C 46.167969 78.351562 47.199219 77.0625 47.199219 75 C 47.199219 72.9375 46.167969 71.648438 43.851562 71.648438 L 40.242188 71.648438 L 40.242188 82.988281 L 42.5625 82.988281 L 42.5625 78.351562 Z M 43.851562 78.351562 "/>
<path style=" stroke:none;fill-rule:nonzero;fill:rgb(16.862745%,16.470588%,16.078431%);fill-opacity:1;" d="M 51.582031 81.441406 C 50.550781 81.441406 50.035156 80.667969 50.035156 78.867188 C 50.035156 77.320312 50.550781 76.546875 51.582031 76.546875 C 52.355469 76.546875 52.871094 77.320312 52.871094 78.867188 C 52.871094 80.667969 52.355469 81.441406 51.582031 81.441406 Z M 51.582031 74.742188 C 49.261719 74.742188 47.972656 76.289062 47.972656 78.867188 C 47.972656 81.699219 49.261719 83.246094 51.582031 83.246094 C 53.644531 83.246094 54.933594 81.699219 54.933594 78.867188 C 54.933594 76.289062 53.644531 74.742188 51.582031 74.742188 Z M 51.582031 74.742188 "/>
<path style=" stroke:none;fill-rule:nonzero;fill:rgb(16.862745%,16.470588%,16.078431%);fill-opacity:1;" d="M 60.085938 75 L 58.796875 80.152344 L 57.765625 75 L 55.707031 75 L 57.765625 82.988281 L 59.828125 82.988281 L 61.117188 77.578125 L 62.40625 82.988281 L 64.726562 82.988281 L 66.53125 75 L 64.46875 75 L 63.4375 80.152344 L 62.148438 75 Z M 60.085938 75 "/>
<path style=" stroke:none;fill-rule:nonzero;fill:rgb(16.862745%,16.470588%,16.078431%);fill-opacity:1;" d="M 69.363281 78.09375 C 69.363281 77.0625 69.878906 76.289062 70.652344 76.289062 C 71.425781 76.289062 71.941406 77.0625 71.941406 78.09375 Z M 70.652344 74.742188 C 68.59375 74.742188 67.304688 76.546875 67.304688 78.867188 C 67.304688 81.441406 68.59375 83.246094 70.910156 83.246094 C 72.714844 83.246094 73.746094 81.699219 73.746094 80.410156 L 71.941406 80.152344 C 71.941406 80.925781 71.683594 81.441406 70.910156 81.441406 C 69.621094 81.441406 69.363281 80.410156 69.363281 79.382812 L 74.003906 79.382812 C 74.003906 79.382812 74.003906 78.867188 74.003906 78.609375 C 74.003906 76.03125 72.714844 74.742188 70.652344 74.742188 Z M 70.652344 74.742188 "/>
<path style=" stroke:none;fill-rule:nonzero;fill:rgb(16.862745%,16.470588%,16.078431%);fill-opacity:1;" d="M 79.675781 75 C 79.675781 74.742188 79.417969 74.742188 79.417969 74.742188 C 78.386719 74.742188 77.613281 75.257812 77.613281 76.289062 L 77.613281 75 L 75.550781 75 L 75.550781 82.988281 L 77.613281 82.988281 L 77.613281 78.867188 C 77.613281 77.578125 78.386719 77.0625 79.417969 77.0625 C 79.417969 77.0625 79.675781 77.0625 79.675781 77.0625 Z M 79.675781 75 "/>
<path style=" stroke:none;fill-rule:nonzero;fill:rgb(16.862745%,16.470588%,16.078431%);fill-opacity:1;" d="M 83.023438 82.988281 L 83.023438 75 L 80.964844 75 L 80.964844 82.988281 Z M 80.707031 72.421875 C 80.707031 73.195312 81.222656 73.710938 81.992188 73.710938 C 82.765625 73.710938 83.28125 73.195312 83.28125 72.421875 C 83.28125 71.648438 82.765625 71.132812 81.992188 71.132812 C 81.222656 71.132812 80.707031 71.648438 80.707031 72.421875 Z M 80.707031 72.421875 "/>
<path style=" stroke:none;fill-rule:nonzero;fill:rgb(16.862745%,16.470588%,16.078431%);fill-opacity:1;" d="M 87.148438 75 L 85.085938 75 L 85.085938 82.988281 L 87.148438 82.988281 L 87.148438 77.835938 C 87.148438 77.0625 87.664062 76.804688 88.179688 76.804688 C 88.953125 76.804688 89.210938 77.0625 89.210938 77.835938 L 89.210938 82.988281 L 91.273438 82.988281 L 91.273438 77.0625 C 91.273438 75.773438 90.5 74.742188 88.953125 74.742188 C 88.179688 74.742188 87.40625 75.257812 87.148438 76.03125 Z M 87.148438 75 "/>
<path style=" stroke:none;fill-rule:nonzero;fill:rgb(16.862745%,16.470588%,16.078431%);fill-opacity:1;" d="M 96.167969 84.277344 C 95.394531 84.277344 94.878906 84.019531 94.621094 83.246094 L 92.820312 83.503906 C 93.078125 84.792969 94.363281 86.082031 96.167969 86.082031 C 98.230469 86.082031 99.519531 84.535156 99.519531 82.214844 L 99.519531 75 L 97.714844 75 L 97.714844 75.773438 C 97.457031 75.257812 96.683594 74.742188 95.910156 74.742188 C 94.363281 74.742188 92.820312 75.773438 92.820312 78.609375 C 92.820312 81.441406 94.363281 82.472656 95.910156 82.472656 C 96.683594 82.472656 97.457031 81.957031 97.457031 81.699219 L 97.457031 82.730469 C 97.457031 83.761719 96.941406 84.277344 96.167969 84.277344 Z M 96.167969 80.667969 C 95.652344 80.667969 94.878906 80.152344 94.878906 78.609375 C 94.878906 77.0625 95.394531 76.546875 96.167969 76.546875 C 96.941406 76.546875 97.457031 77.0625 97.457031 78.609375 C 97.457031 80.152344 96.941406 80.667969 96.167969 80.667969 Z M 96.167969 80.667969 "/>
<path style=" stroke:none;fill-rule:nonzero;fill:rgb(16.862745%,16.470588%,16.078431%);fill-opacity:1;" d="M 107.25 80.925781 L 107.25 73.710938 L 108.023438 73.710938 C 109.570312 73.710938 110.34375 75 110.34375 77.320312 C 110.34375 79.640625 109.570312 80.925781 108.023438 80.925781 Z M 108.28125 82.988281 C 109.570312 82.988281 112.664062 82.472656 112.664062 77.320312 C 112.664062 72.164062 109.570312 71.648438 108.28125 71.648438 L 104.933594 71.648438 L 104.933594 82.988281 Z M 108.28125 82.988281 "/>
<path style=" stroke:none;fill-rule:nonzero;fill:rgb(16.862745%,16.470588%,16.078431%);fill-opacity:1;" d="M 116.273438 82.988281 L 116.273438 75 L 114.210938 75 L 114.210938 82.988281 Z M 113.953125 72.421875 C 113.953125 73.195312 114.46875 73.710938 115.242188 73.710938 C 116.015625 73.710938 116.53125 73.195312 116.53125 72.421875 C 116.53125 71.648438 116.015625 71.132812 115.242188 71.132812 C 114.46875 71.132812 113.953125 71.648438 113.953125 72.421875 Z M 113.953125 72.421875 "/>
<path style=" stroke:none;fill-rule:nonzero;fill:rgb(16.862745%,16.470588%,16.078431%);fill-opacity:1;" d="M 121.167969 84.277344 C 120.394531 84.277344 119.878906 84.019531 119.621094 83.246094 L 117.820312 83.503906 C 118.078125 84.792969 119.363281 86.082031 121.167969 86.082031 C 123.488281 86.082031 124.777344 84.535156 124.777344 82.214844 L 124.777344 75 L 122.714844 75 L 122.714844 75.773438 C 122.457031 75.257812 121.941406 74.742188 120.910156 74.742188 C 119.363281 74.742188 118.078125 75.773438 118.078125 78.609375 C 118.078125 81.441406 119.621094 82.472656 120.910156 82.472656 C 121.941406 82.472656 122.457031 81.957031 122.714844 81.699219 L 122.714844 82.730469 C 122.714844 83.761719 122.199219 84.277344 121.167969 84.277344 Z M 121.425781 80.667969 C 120.652344 80.667969 120.136719 80.152344 120.136719 78.609375 C 120.136719 77.0625 120.652344 76.546875 121.425781 76.546875 C 122.199219 76.546875 122.714844 77.0625 122.714844 78.609375 C 122.714844 80.152344 122.199219 80.667969 121.425781 80.667969 Z M 121.425781 80.667969 "/>
<path style=" stroke:none;fill-rule:nonzero;fill:rgb(16.862745%,16.470588%,16.078431%);fill-opacity:1;" d="M 128.644531 82.988281 L 128.644531 75 L 126.582031 75 L 126.582031 82.988281 Z M 126.324219 72.421875 C 126.324219 73.195312 126.839844 73.710938 127.613281 73.710938 C 128.386719 73.710938 128.902344 73.195312 128.902344 72.421875 C 128.902344 71.648438 128.386719 71.132812 127.613281 71.132812 C 126.839844 71.132812 126.324219 71.648438 126.324219 72.421875 Z M 126.324219 72.421875 "/>
<path style=" stroke:none;fill-rule:nonzero;fill:rgb(16.862745%,16.470588%,16.078431%);fill-opacity:1;" d="M 133.28125 72.679688 L 131.476562 72.679688 L 131.476562 73.96875 C 131.476562 74.484375 131.21875 75 130.707031 75 L 129.933594 75 L 129.933594 76.804688 L 131.21875 76.804688 L 131.21875 80.667969 C 131.21875 82.472656 132.25 82.988281 133.796875 82.988281 C 134.3125 82.988281 134.828125 82.988281 134.828125 82.988281 L 134.828125 81.183594 C 134.570312 81.183594 134.570312 81.183594 134.3125 81.183594 C 133.796875 81.183594 133.28125 80.925781 133.28125 80.152344 L 133.28125 76.804688 L 134.828125 76.804688 L 134.828125 75 L 133.28125 75 Z M 133.28125 72.679688 "/>
<path style=" stroke:none;fill-rule:nonzero;fill:rgb(16.862745%,16.470588%,16.078431%);fill-opacity:1;" d="M 135.859375 80.667969 C 135.859375 82.214844 136.890625 83.246094 138.4375 83.246094 C 139.210938 83.246094 139.984375 82.730469 140.242188 81.957031 C 140.242188 82.472656 140.242188 82.988281 140.242188 82.988281 L 142.304688 82.988281 C 142.304688 82.730469 142.046875 82.214844 142.046875 81.699219 L 142.046875 77.578125 C 142.046875 75.515625 140.757812 74.742188 139.210938 74.742188 C 137.148438 74.742188 136.117188 76.03125 136.117188 77.320312 L 137.921875 77.578125 C 137.921875 76.804688 138.4375 76.289062 138.953125 76.289062 C 139.726562 76.289062 139.984375 76.804688 139.984375 77.320312 C 139.984375 77.835938 139.984375 77.835938 139.46875 77.835938 L 138.179688 78.351562 C 136.890625 78.609375 135.859375 79.382812 135.859375 80.667969 Z M 137.921875 80.667969 C 137.921875 80.152344 138.4375 79.898438 138.953125 79.640625 L 139.46875 79.382812 C 139.726562 79.382812 139.984375 79.382812 139.984375 79.125 L 139.984375 80.152344 C 139.984375 81.183594 139.726562 81.441406 138.953125 81.441406 C 138.4375 81.441406 137.921875 81.183594 137.921875 80.667969 Z M 137.921875 80.667969 "/>
<path style=" stroke:none;fill-rule:nonzero;fill:rgb(16.862745%,16.470588%,16.078431%);fill-opacity:1;" d="M 146.167969 82.988281 L 146.167969 71.390625 L 144.105469 71.390625 L 144.105469 82.988281 Z M 146.167969 82.988281 "/>
<path style=" stroke:none;fill-rule:nonzero;fill:rgb(16.862745%,16.470588%,16.078431%);fill-opacity:1;" d="M 157.507812 82.988281 L 157.507812 80.925781 L 153.644531 80.925781 L 153.644531 78.09375 L 156.992188 78.09375 L 156.992188 76.289062 L 153.644531 76.289062 L 153.644531 73.710938 L 157.507812 73.710938 L 157.507812 71.648438 L 151.582031 71.648438 L 151.582031 82.988281 Z M 157.507812 82.988281 "/>
<path style=" stroke:none;fill-rule:nonzero;fill:rgb(16.862745%,16.470588%,16.078431%);fill-opacity:1;" d="M 158.796875 78.867188 C 158.796875 81.957031 160.085938 83.246094 161.890625 83.246094 C 162.40625 83.246094 163.179688 82.730469 163.695312 81.957031 C 163.695312 82.472656 163.695312 82.730469 163.695312 82.988281 L 165.757812 82.988281 C 165.757812 82.730469 165.5 81.957031 165.5 81.183594 L 165.5 71.390625 L 163.4375 71.390625 L 163.4375 75.773438 C 163.4375 75 162.664062 74.742188 161.890625 74.742188 C 160.085938 74.742188 158.796875 76.03125 158.796875 78.867188 Z M 162.148438 81.441406 C 161.375 81.441406 160.859375 80.667969 160.859375 78.867188 C 160.859375 77.0625 161.375 76.546875 162.148438 76.546875 C 162.921875 76.546875 163.4375 77.0625 163.4375 78.867188 C 163.4375 80.667969 162.921875 81.441406 162.148438 81.441406 Z M 162.148438 81.441406 "/>
<path style=" stroke:none;fill-rule:nonzero;fill:rgb(16.862745%,16.470588%,16.078431%);fill-opacity:1;" d="M 173.746094 82.988281 C 173.746094 82.730469 173.746094 82.214844 173.746094 81.441406 L 173.746094 75 L 171.683594 75 L 171.683594 80.152344 C 171.683594 80.925781 171.167969 81.441406 170.652344 81.441406 C 170.136719 81.441406 169.621094 81.183594 169.621094 80.152344 L 169.621094 75 L 167.5625 75 L 167.5625 80.667969 C 167.5625 82.214844 168.589844 83.246094 169.878906 83.246094 C 170.652344 83.246094 171.683594 82.730469 171.941406 81.957031 C 171.941406 82.214844 171.941406 82.730469 171.941406 82.988281 Z M 173.746094 82.988281 "/>
<path style=" stroke:none;fill-rule:nonzero;fill:rgb(16.862745%,16.470588%,16.078431%);fill-opacity:1;" d="M 177.355469 78.867188 C 177.355469 77.320312 177.871094 76.546875 178.902344 76.546875 C 179.675781 76.546875 179.933594 77.0625 179.933594 77.835938 L 181.734375 77.578125 C 181.734375 76.546875 180.960938 74.742188 178.902344 74.742188 C 176.582031 74.742188 175.292969 76.289062 175.292969 78.867188 C 175.292969 81.699219 176.582031 83.246094 178.902344 83.246094 C 180.703125 83.246094 181.734375 81.699219 181.734375 80.152344 L 179.933594 80.152344 C 179.933594 80.667969 179.675781 81.441406 178.902344 81.441406 C 177.871094 81.441406 177.355469 80.667969 177.355469 78.867188 Z M 177.355469 78.867188 "/>
<path style=" stroke:none;fill-rule:nonzero;fill:rgb(16.862745%,16.470588%,16.078431%);fill-opacity:1;" d="M 183.023438 80.667969 C 183.023438 82.214844 183.796875 83.246094 185.34375 83.246094 C 186.117188 83.246094 186.890625 82.730469 187.148438 81.957031 C 187.148438 82.472656 187.148438 82.988281 187.148438 82.988281 L 189.210938 82.988281 C 189.210938 82.730469 188.953125 82.214844 188.953125 81.699219 L 188.953125 77.578125 C 188.953125 75.515625 187.921875 74.742188 186.117188 74.742188 C 184.054688 74.742188 183.023438 76.03125 183.023438 77.320312 L 184.828125 77.578125 C 184.828125 76.804688 185.34375 76.289062 186.117188 76.289062 C 186.632812 76.289062 186.890625 76.804688 186.890625 77.320312 C 186.890625 77.835938 186.890625 77.835938 186.375 77.835938 L 185.085938 78.351562 C 183.796875 78.609375 183.023438 79.382812 183.023438 80.667969 Z M 185.085938 80.667969 C 185.085938 80.152344 185.34375 79.898438 185.859375 79.640625 L 186.632812 79.382812 C 186.890625 79.382812 186.890625 79.382812 186.890625 79.125 L 186.890625 80.152344 C 186.890625 81.183594 186.632812 81.441406 185.859375 81.441406 C 185.34375 81.441406 185.085938 81.183594 185.085938 80.667969 Z M 185.085938 80.667969 "/>
<path style=" stroke:none;fill-rule:nonzero;fill:rgb(16.862745%,16.470588%,16.078431%);fill-opacity:1;" d="M 193.589844 72.679688 L 191.789062 72.679688 L 191.789062 73.96875 C 191.789062 74.484375 191.53125 75 190.757812 75 L 190.242188 75 L 190.242188 76.804688 L 191.53125 76.804688 L 191.53125 80.667969 C 191.53125 82.472656 192.558594 82.988281 193.847656 82.988281 C 194.621094 82.988281 194.878906 82.988281 194.878906 82.988281 L 194.878906 81.183594 C 194.878906 81.183594 194.621094 81.183594 194.363281 81.183594 C 193.847656 81.183594 193.589844 80.925781 193.589844 80.152344 L 193.589844 76.804688 L 194.878906 76.804688 L 194.878906 75 L 193.589844 75 Z M 193.589844 72.679688 "/>
<path style=" stroke:none;fill-rule:nonzero;fill:rgb(16.862745%,16.470588%,16.078431%);fill-opacity:1;" d="M 198.746094 82.988281 L 198.746094 75 L 196.683594 75 L 196.683594 82.988281 Z M 196.425781 72.421875 C 196.425781 73.195312 196.941406 73.710938 197.714844 73.710938 C 198.230469 73.710938 199.003906 73.195312 199.003906 72.421875 C 199.003906 71.648438 198.230469 71.132812 197.714844 71.132812 C 196.941406 71.132812 196.425781 71.648438 196.425781 72.421875 Z M 196.425781 72.421875 "/>
<path style=" stroke:none;fill-rule:nonzero;fill:rgb(16.862745%,16.470588%,16.078431%);fill-opacity:1;" d="M 203.644531 81.441406 C 202.871094 81.441406 202.355469 80.667969 202.355469 78.867188 C 202.355469 77.320312 202.871094 76.546875 203.644531 76.546875 C 204.675781 76.546875 205.1875 77.320312 205.1875 78.867188 C 205.1875 80.667969 204.675781 81.441406 203.644531 81.441406 Z M 203.644531 74.742188 C 201.582031 74.742188 200.292969 76.289062 200.292969 78.867188 C 200.292969 81.699219 201.582031 83.246094 203.644531 83.246094 C 205.960938 83.246094 207.25 81.699219 207.25 78.867188 C 207.25 76.289062 205.703125 74.742188 203.644531 74.742188 Z M 203.644531 74.742188 "/>
<path style=" stroke:none;fill-rule:nonzero;fill:rgb(16.862745%,16.470588%,16.078431%);fill-opacity:1;" d="M 210.859375 75 L 208.796875 75 L 208.796875 82.988281 L 210.859375 82.988281 L 210.859375 77.835938 C 210.859375 77.0625 211.375 76.804688 211.890625 76.804688 C 212.40625 76.804688 212.921875 77.0625 212.921875 77.835938 L 212.921875 82.988281 L 214.984375 82.988281 L 214.984375 77.0625 C 214.984375 75.773438 214.210938 74.742188 212.664062 74.742188 C 211.890625 74.742188 211.117188 75.257812 210.859375 76.03125 Z M 210.859375 75 "/>
</g>
</svg>
