<?xml version="1.0" encoding="UTF-8"?>
<!DOCTYPE svg PUBLIC "-//W3C//DTD SVG 1.1//EN" "http://www.w3.org/Graphics/SVG/1.1/DTD/svg11.dtd">
<!-- Creator: CorelDRAW X7 -->
<svg xmlns="http://www.w3.org/2000/svg" xml:space="preserve" width="13px" height="16px" version="1.1" style="shape-rendering:geometricPrecision; text-rendering:geometricPrecision; image-rendering:optimizeQuality; fill-rule:evenodd; clip-rule:evenodd"
viewBox="0 0 8245 10224"
 xmlns:xlink="http://www.w3.org/1999/xlink">
 <defs>
  <style type="text/css">
   <![CDATA[
    .fil2 {fill:#FEFEFE}
    .fil0 {fill:#FAC79C}
    .fil1 {fill:#EF7F1A}
    .fil3 {fill:#1C1B17}
   ]]>
  </style>
   <mask id="id0">
  <linearGradient id="id1" gradientUnits="userSpaceOnUse" x1="1575.26" y1="8298.85" x2="6596.5" y2="8294.86">
   <stop offset="0" style="stop-opacity:1; stop-color:white"/>
   <stop offset="1" style="stop-opacity:0; stop-color:white"/>
  </linearGradient>
    <rect style="fill:url(#id1)" x="-538" y="-635" width="9401" height="11509"/>
   </mask>
 </defs>
 <g id="Layer_x0020_1">
  <metadata id="CorelCorpID_0Corel-Layer"/>
  <polygon class="fil0" points="255,134 5869,119 8108,2401 8095,10089 217,10119 "/>
  <polygon class="fil1" style="mask:url(#id0)" points="255,134 5869,119 8108,2401 8095,10089 217,10119 "/>
  <rect class="fil2" x="1589" y="2579" width="5042" height="936"/>
  <rect class="fil2" x="1589" y="4833" width="5042" height="936"/>
  <rect class="fil2" x="1589" y="7103" width="5042" height="936"/>
  <path class="fil3" d="M6614 4700l-4984 0c-90,0 -164,74 -164,165l0 861c0,91 74,165 164,165l4984 0c91,0 165,-74 165,-165l0 -861c0,-91 -74,-165 -165,-165l0 0zm-576 -4651c-31,-31 -72,-49 -116,-49l-5757 0c-92,0 -165,74 -165,165l0 9894c0,91 73,165 165,165l7915 0c91,0 165,-74 165,-165l0 -7736c0,-44 -17,-85 -49,-116l-2158 -2158zm1877 9845l-7585 0 0 -9564 5523 0 2062 2062 0 7502zm-1301 -2949l-4984 0c-90,0 -164,74 -164,164l0 861c0,91 74,165 164,165l4984 0c91,0 165,-74 165,-165l0 -861c0,-90 -74,-164 -165,-164l0 0zm-165 861l-4654 0 0 -532 4654 0 0 532zm-4983 -5186l0 861c0,92 74,166 164,166l4984 0c91,0 165,-74 165,-166l0 -861c0,-91 -74,-164 -165,-164l-4984 -1c-90,0 -164,74 -164,165l0 0zm329 166l4654 0 0 531 -4654 0 0 -531zm4654 2775l-4654 0 0 -531 4654 0 0 531z"/>
 </g>
</svg>
