<?xml version="1.0" encoding="UTF-8"?>
<!DOCTYPE svg PUBLIC "-//W3C//DTD SVG 1.1//EN" "http://www.w3.org/Graphics/SVG/1.1/DTD/svg11.dtd">
<!-- Creator: CorelDRAW X7 -->
<svg xmlns="http://www.w3.org/2000/svg" xml:space="preserve" width="12px" height="16px" version="1.1" style="shape-rendering:geometricPrecision; text-rendering:geometricPrecision; image-rendering:optimizeQuality; fill-rule:evenodd; clip-rule:evenodd"
viewBox="0 0 5915 7948"
 xmlns:xlink="http://www.w3.org/1999/xlink">
 <defs>
  <style type="text/css">
   <![CDATA[
    .fil0 {fill:#8EC63F}
   ]]>
  </style>
 </defs>
 <g id="Layer_x0020_1">
  <metadata id="CorelCorpID_0Corel-Layer"/>
  <path class="fil0" d="M1189 7948l4598 0c71,0 128,-58 128,-128l0 -708c0,-70 -57,-128 -128,-128l-4598 0c-124,0 -225,-101 -225,-226 0,-123 101,-225 225,-225l4598 0c71,0 128,-57 128,-128l0 -707 0 -5570c0,-71 -57,-128 -128,-128l-4538 0c-71,0 -129,57 -129,128l0 5444c-53,3 -105,9 -156,19l0 -5463c0,-71 -58,-128 -129,-128 -460,0 -835,374 -835,835l0 5895c0,1 1,3 1,6 0,7 -1,15 -1,22 0,656 533,1190 1189,1190l0 0zm3537 -6586l-2417 0c-71,0 -128,58 -128,128l0 1541c0,70 57,128 128,128l2417 0c70,0 128,-58 128,-128l0 -1541c0,-70 -58,-128 -128,-128zm-128 1541l-2160 0 0 -1284 2160 0 0 1284zm1060 3374l-4469 0c-265,0 -481,216 -481,481 0,267 216,483 481,483l4469 0 0 451 -4469 0c-514,0 -932,-419 -932,-934 0,-46 4,-92 10,-137 3,-20 7,-40 11,-59 1,-5 2,-8 3,-12 3,-15 6,-30 11,-44 1,-6 3,-11 4,-17 5,-16 10,-32 16,-48 3,-8 6,-15 10,-23 3,-9 7,-19 11,-28 4,-10 8,-19 13,-29 3,-6 5,-10 8,-16 64,-129 157,-241 270,-328 5,-3 9,-6 13,-10 9,-6 18,-12 26,-18 11,-7 20,-13 30,-19 6,-4 12,-8 18,-12 15,-9 29,-17 45,-25 3,-2 7,-4 11,-5 17,-9 34,-17 51,-24 0,0 0,0 0,0 20,-9 40,-17 60,-25 0,0 1,0 1,0 97,-34 202,-53 310,-53l60 0 4409 0 0 451zm-4282 -6021l4282 0 0 5314 -4282 0 0 -5314zm-1119 579c0,-275 192,-506 451,-565l0 5402c-3,1 -6,2 -7,3 -17,8 -33,15 -48,23 -7,4 -13,7 -19,10 -13,7 -24,13 -37,20 -41,24 -81,50 -118,78 0,0 0,0 -1,0 -83,62 -158,134 -221,215l0 -5186z"/>
 </g>
</svg>
