<?xml version="1.0" encoding="UTF-8"?>
<!DOCTYPE svg PUBLIC "-//W3C//DTD SVG 1.1//EN" "http://www.w3.org/Graphics/SVG/1.1/DTD/svg11.dtd">
<!-- Creator: CorelDRAW X7 -->
<svg xmlns="http://www.w3.org/2000/svg" xml:space="preserve" width="16px" height="14px" version="1.1" style="shape-rendering:geometricPrecision; text-rendering:geometricPrecision; image-rendering:optimizeQuality; fill-rule:evenodd; clip-rule:evenodd"
viewBox="0 0 13784 11811"
 xmlns:xlink="http://www.w3.org/1999/xlink">
 <defs>
  <style type="text/css">
   <![CDATA[
    .fil0 {fill:#8EC63F}
   ]]>
  </style>
 </defs>
 <g id="Layer_x0020_1">
  <metadata id="CorelCorpID_0Corel-Layer"/>
  <path class="fil0" d="M13561 0l-13339 0c-123,0 -222,100 -222,223l0 987 0 2051 0 8327c0,123 99,223 222,223l13339 -1c123,0 222,-99 222,-222l1 -8327 0 -2051 0 -987c0,-123 -100,-222 -223,-222l0 -1zm-8209 1920l-947 0 0 553 947 0 0 -553zm-1696 0l-947 0 0 553 947 0 0 -553zm-1698 0l-947 0 0 553 947 0 0 -553zm6070 5360l288 -292c50,-51 72,-123 60,-194 -12,-70 -58,-131 -122,-162l-3419 -1646c-85,-42 -188,-24 -255,44 -66,68 -83,170 -40,255l1702 3391c33,64 94,109 164,120 71,11 144,-12 194,-64l286 -291 1192 1172c42,41 98,63 157,63 0,0 1,0 1,0 60,0 116,-23 156,-66l832 -843c85,-88 84,-229 -3,-315l-1193 -1172zm204 1860l-1192 -1172c-42,-42 -98,-64 -156,-64 -1,0 -2,0 -2,0 -59,1 -116,24 -156,66l-225 229 -1271 -2529 2551 1228 -225 229c-42,41 -64,98 -64,157 0,59 24,115 66,157l1193 1172 -519 527zm5107 -8695l0 542 -12894 0 0 -542 12894 0zm0 2594l-12894 0 0 -1607 12894 0 0 1607zm-12894 8328l0 -7883 12894 0 0 7883 -12894 0z"/>
 </g>
</svg>
