<?xml version="1.0" encoding="UTF-8"?>
<!DOCTYPE svg PUBLIC "-//W3C//DTD SVG 1.1//EN" "http://www.w3.org/Graphics/SVG/1.1/DTD/svg11.dtd">
<!-- Creator: CorelDRAW X7 -->
<svg xmlns="http://www.w3.org/2000/svg" xml:space="preserve" width="16px" height="16px" version="1.1" style="shape-rendering:geometricPrecision; text-rendering:geometricPrecision; image-rendering:optimizeQuality; fill-rule:evenodd; clip-rule:evenodd"
viewBox="0 0 22430 22430"
 xmlns:xlink="http://www.w3.org/1999/xlink">
 <defs>
  <style type="text/css">
   <![CDATA[
    .fil0 {fill:#E31E24}
   ]]>
  </style>
 </defs>
 <g id="Layer_x0020_1">
  <metadata id="CorelCorpID_0Corel-Layer"/>
  <path id="play-button.eps" class="fil0" d="M15577 11934l-6408 3206c-395,197 -877,36 -1074,-359 -56,-113 -86,-237 -85,-363l0 -6408c0,-442 358,-801 800,-801 124,0 248,28 359,84l6408 3204c397,197 558,679 361,1075 -78,156 -205,281 -361,359l0 3zm-4363 -11934c-6194,0 -11214,5020 -11214,11214 0,6194 5020,11216 11214,11216 6194,0 11216,-5022 11216,-11216 -6,-6191 -5025,-11207 -11216,-11214z"/>
 </g>
</svg>
