<?xml version="1.0" encoding="UTF-8"?>
<!DOCTYPE svg PUBLIC "-//W3C//DTD SVG 1.1//EN" "http://www.w3.org/Graphics/SVG/1.1/DTD/svg11.dtd">
<!-- Creator: CorelDRAW X7 -->
<svg xmlns="http://www.w3.org/2000/svg" xml:space="preserve" width="16px" height="9px" version="1.1" style="shape-rendering:geometricPrecision; text-rendering:geometricPrecision; image-rendering:optimizeQuality; fill-rule:evenodd; clip-rule:evenodd"
viewBox="0 0 22474 13205"
 xmlns:xlink="http://www.w3.org/1999/xlink">
 <defs>
  <style type="text/css">
   <![CDATA[
    .fil0 {fill:#008DD2}
   ]]>
  </style>
 </defs>
 <g id="Layer_x0020_1">
  <metadata id="CorelCorpID_0Corel-Layer"/>
  <g id="video-camera.eps">
   <path class="fil0" d="M12712 0l-10252 0c-1354,0 -2460,1106 -2460,2460l0 8284c0,1354 1106,2461 2460,2461l10252 0c1352,0 2458,-1107 2458,-2461l0 -8284c0,-1377 -1106,-2458 -2458,-2460z"/>
   <path class="fil0" d="M20654 1354c-147,23 -295,98 -418,170l-3835 2213 0 5705 3860 2213c712,418 1598,173 2016,-541 123,-222 196,-467 196,-738l1 -7597c0,-909 -861,-1648 -1820,-1425z"/>
  </g>
 </g>
</svg>
