<?xml version="1.0" encoding="UTF-8"?>
<!DOCTYPE svg PUBLIC "-//W3C//DTD SVG 1.1//EN" "http://www.w3.org/Graphics/SVG/1.1/DTD/svg11.dtd">
<!-- Creator: CorelDRAW X7 -->
<svg xmlns="http://www.w3.org/2000/svg" xml:space="preserve" width="16px" height="11px" version="1.1" style="shape-rendering:geometricPrecision; text-rendering:geometricPrecision; image-rendering:optimizeQuality; fill-rule:evenodd; clip-rule:evenodd"
viewBox="0 0 22490 15746"
 xmlns:xlink="http://www.w3.org/1999/xlink">
 <defs>
  <style type="text/css">
   <![CDATA[
    .fil0 {fill:red}
    .fil1 {fill:white}
   ]]>
  </style>
 </defs>
 <g id="Layer_x0020_1">
  <metadata id="CorelCorpID_0Corel-Layer"/>
  <g id="youtube.eps">
   <path class="fil0" d="M22025 2465c-259,-964 -1018,-1723 -1981,-1982 -1761,-483 -8800,-481 -8800,-481 0,-2 -7039,0 -8800,463 -945,259 -1722,1036 -1982,2000 -455,1732 -462,5296 -462,5406l0 3 0 3c0,111 7,3692 462,5406 260,964 1019,1723 1983,1982 1778,481 8799,481 8799,481 0,0 7039,0 8800,-463 963,-259 1722,-1018 1981,-1982 463,-1760 463,-5409 463,-5409 0,0 20,-3667 -463,-5427z"/>
   <polygon class="fil1" points="9003,11246 14856,7874 9003,4502 "/>
  </g>
 </g>
</svg>
