<?xml version="1.0" encoding="UTF-8"?>
<!DOCTYPE svg PUBLIC "-//W3C//DTD SVG 1.1//EN" "http://www.w3.org/Graphics/SVG/1.1/DTD/svg11.dtd">
<!-- Creator: CorelDRAW X7 -->
<svg xmlns="http://www.w3.org/2000/svg" xml:space="preserve" width="166.793mm" height="74.5067mm" version="1.1" style="shape-rendering:geometricPrecision; text-rendering:geometricPrecision; image-rendering:optimizeQuality; fill-rule:evenodd; clip-rule:evenodd"
viewBox="0 0 16679 7451"
 xmlns:xlink="http://www.w3.org/1999/xlink">
 <defs>
  <style type="text/css">
   <![CDATA[
    .fil0 {fill:none}
    .fil4 {fill:#FEFEFE}
    .fil3 {fill:#8EC63F}
    .fil5 {fill:#727271;fill-rule:nonzero}
    .fil1 {fill:#EF7F1A;fill-rule:nonzero}
    .fil2 {fill:#8EC63F;fill-rule:nonzero}
   ]]>
  </style>
 </defs>
 <g id="Layer_x0020_1">
  <metadata id="CorelCorpID_0Corel-Layer"/>
  <rect class="fil0" width="16679" height="7451"/>
  <polygon class="fil1" points="1480,5179 2688,5179 2688,4775 2003,4775 2003,3363 1480,3363 "/>
  <polygon id="1" class="fil1" points="2965,5179 4260,5179 4260,4778 3483,4778 3483,4448 4070,4448 4070,4077 3483,4077 3483,3765 4219,3765 4219,3363 2965,3363 "/>
  <path id="2" class="fil1" d="M4402 5179l485 0 97 -338 602 0 96 338 551 0 -576 -1816 -673 0 -582 1816zm884 -1394l198 698 -399 0 201 -698z"/>
  <path id="3" class="fil1" d="M6467 5179l518 0 0 -650 122 0 368 650 548 0 -434 -752c191,-73 328,-218 328,-477l0 -10c0,-384 -264,-577 -739,-577l-711 0 0 1816zm518 -988l0 -437 170 0c168,0 259,59 259,206l0 10c0,148 -86,221 -262,221l-167 0z"/>
  <polygon id="4" class="fil1" points="8262,5179 8719,5179 8719,4039 9382,5179 9885,5179 9885,3363 9430,3363 9430,4387 8849,3363 8262,3363 "/>
  <polygon id="5" class="fil1" points="10697,5179 11220,5179 11220,4402 11784,3363 11286,3363 10979,3975 10672,3363 10106,3363 10697,4402 "/>
  <polygon id="6" class="fil1" points="12475,5179 13067,5179 13661,3363 13173,3363 12803,4638 12434,3363 11873,3363 "/>
  <polygon id="7" class="fil1" points="13892,5179 15187,5179 15187,4778 14410,4778 14410,4448 14996,4448 14996,4077 14410,4077 14410,3765 15146,3765 15146,3363 13892,3363 "/>
  <polygon class="fil2" points="2338,2249 3554,2717 4804,2250 14005,2250 14005,2373 4804,2373 3554,2849 2338,2381 "/>
  <path class="fil3" d="M14798 2680c193,0 348,-156 348,-348 0,-193 -155,-349 -348,-349l-560 0c-192,0 -348,156 -348,349 0,192 156,348 348,348l560 0z"/>
  <path class="fil4" d="M14131 2249l210 0c34,0 62,28 62,62l0 0c0,34 -28,62 -62,62l-210 0c-34,0 -62,-28 -62,-62l0 0c0,-34 28,-62 62,-62z"/>
  <path class="fil3" d="M5023 1898l434 -171 -1884 -739 -1082 424 437 170 645 -253 1450 569zm-3335 -171l0 0 0 850 -102 261 154 393 154 -393 -105 -266 0 -805 1784 698 1081 -424 -437 -170 -644 253 -1440 -572 -445 175z"/>
  <path class="fil5" d="M4188 5866l0 -190 58 0c72,0 108,29 108,95 0,64 -36,95 -108,95l-58 0zm81 120c146,0 223,-88 223,-216 0,-127 -77,-216 -223,-216l-220 0 0 727 138 0 0 -295 82 0z"/>
  <path id="1" class="fil5" d="M4759 6181c-55,0 -88,-49 -88,-158 0,-110 32,-159 88,-159 54,0 87,49 87,159 0,109 -34,158 -87,158zm0 -429c-135,0 -220,105 -220,272 0,167 83,272 220,272 135,0 219,-105 219,-272 0,-168 -86,-272 -219,-272z"/>
  <polygon id="2" class="fil5" points="5307,5767 5232,6103 5163,5767 5024,5767 5154,6281 5292,6281 5373,5942 5461,6281 5600,6281 5719,5767 5580,5767 5522,6106 5437,5767 "/>
  <path id="3" class="fil5" d="M5903 5963c1,-63 34,-105 84,-105 53,0 76,40 76,105l-160 0zm83 -211c-138,0 -216,118 -216,273 0,163 83,271 222,271 128,0 189,-104 194,-177l-117 -13c-3,43 -28,79 -77,79 -74,0 -92,-70 -92,-135l291 0c1,-4 3,-27 3,-47 0,-166 -78,-251 -208,-251z"/>
  <path id="4" class="fil5" d="M6556 5764c-5,-1 -13,-2 -21,-2 -54,0 -101,34 -112,89l0 -84 -126 0 0 514 132 0 0 -257c0,-88 41,-127 107,-127 7,0 14,0 20,2l0 -135z"/>
  <path id="5" class="fil5" d="M6777 6281l0 -514 -132 0 0 514 132 0zm-148 -671c0,46 36,82 81,82 46,0 83,-36 83,-82 0,-46 -37,-83 -83,-83 -45,0 -81,37 -81,83z"/>
  <path id="6" class="fil5" d="M7032 5767l-127 0 0 514 132 0 0 -321c0,-56 31,-81 69,-81 37,0 62,20 62,77l0 325 132 0 0 -370c0,-96 -49,-155 -143,-155 -56,0 -110,30 -125,84l0 -73z"/>
  <path id="7" class="fil5" d="M7606 6365c-47,0 -84,-25 -92,-74l-115 27c11,86 89,159 204,159 146,0 224,-94 224,-241l0 -469 -124 0 0 57c-13,-39 -53,-68 -111,-68 -97,0 -190,73 -190,247 0,179 97,246 193,246 53,0 93,-29 102,-56l0 67c0,73 -34,105 -91,105zm10 -225c-46,0 -80,-39 -80,-138 0,-92 33,-136 80,-136 48,0 80,45 80,136 0,98 -32,138 -80,138z"/>
  <path id="8" class="fil5" d="M8311 6147l0 -463 60 0c97,0 146,83 146,232 0,150 -49,231 -145,231l-61 0zm70 134c87,0 275,-40 275,-365 0,-324 -188,-362 -275,-362l-205 0 0 727 205 0z"/>
  <path id="9" class="fil5" d="M8897 6281l0 -514 -133 0 0 514 133 0zm-148 -671c0,46 36,82 81,82 46,0 83,-36 83,-82 0,-46 -37,-83 -83,-83 -45,0 -81,37 -81,83z"/>
  <path id="10" class="fil5" d="M9205 6365c-46,0 -83,-25 -91,-74l-115 27c10,86 88,159 204,159 146,0 224,-94 224,-241l0 -469 -124 0 0 57c-14,-39 -54,-68 -111,-68 -97,0 -190,73 -190,247 0,179 97,246 193,246 52,0 92,-29 102,-56l0 67c0,73 -34,105 -92,105zm11 -225c-47,0 -80,-39 -80,-138 0,-92 32,-136 80,-136 48,0 80,45 80,136 0,98 -32,138 -80,138z"/>
  <path id="11" class="fil5" d="M9686 6281l0 -514 -132 0 0 514 132 0zm-147 -671c0,46 35,82 81,82 46,0 83,-36 83,-82 0,-46 -37,-83 -83,-83 -46,0 -81,37 -81,83z"/>
  <path id="12" class="fil5" d="M9984 5620l-120 0 0 85c0,40 -15,62 -58,62l-36 0 0 114 81 0 0 255c0,107 65,153 153,153 41,0 64,-10 70,-13l0 -117c-7,2 -21,5 -36,5 -33,0 -54,-15 -54,-58l0 -225 91 0 0 -114 -91 0 0 -147z"/>
  <path id="13" class="fil5" d="M10149 6140c0,84 62,150 153,150 56,0 97,-27 113,-70 0,27 3,57 5,61l127 0c-2,-8 -8,-42 -8,-85l0 -264c0,-123 -78,-180 -191,-180 -128,0 -188,84 -192,161l117 16c4,-44 31,-72 73,-72 41,0 64,24 64,62l0 6c0,19 -8,26 -36,34l-90 26c-78,23 -135,67 -135,155l0 0zm131 -10c0,-35 19,-53 60,-66l38 -11c17,-5 26,-8 31,-13l0 66c0,53 -24,82 -70,82 -36,0 -59,-25 -59,-58l0 0z"/>
  <polygon id="14" class="fil5" points="10799,6281 10799,5538 10665,5538 10665,6281 "/>
  <polygon id="15" class="fil5" points="11517,6281 11517,6149 11284,6149 11284,5976 11491,5976 11491,5854 11284,5854 11284,5684 11516,5684 11516,5554 11149,5554 11149,6281 "/>
  <path id="16" class="fil5" d="M11605 6023c0,188 86,269 195,269 42,0 92,-19 114,-75 1,25 3,49 5,64l125 0c-2,-15 -6,-61 -6,-109l0 -634 -132 0 0 280c-13,-40 -56,-63 -109,-63 -105,0 -192,84 -192,268l0 0zm216 157c-50,0 -85,-44 -85,-157 0,-112 35,-157 85,-157 51,0 85,45 85,157 0,113 -34,157 -85,157z"/>
  <path id="17" class="fil5" d="M12563 6281c-2,-9 -7,-46 -7,-94l0 -420 -131 0 0 330c0,56 -30,78 -66,78 -32,0 -64,-17 -64,-75l0 -333 -131 0 0 358c0,100 57,167 156,167 46,0 105,-26 116,-75 0,22 1,41 5,64l122 0z"/>
  <path id="18" class="fil5" d="M12792 6023c0,-106 31,-157 88,-157 51,0 69,40 73,86l120 -19c-5,-61 -48,-181 -192,-181 -136,0 -221,104 -221,272 0,170 85,272 222,272 119,0 184,-99 191,-193l-118 -11c-4,42 -22,87 -75,87 -58,0 -88,-51 -88,-156z"/>
  <path id="19" class="fil5" d="M13142 6140c0,84 63,150 153,150 56,0 97,-27 114,-70 0,27 3,57 5,61l126 0c-2,-8 -7,-42 -7,-85l0 -264c0,-123 -78,-180 -192,-180 -127,0 -188,84 -192,161l117 16c4,-44 31,-72 73,-72 41,0 65,24 65,62l0 6c0,19 -9,26 -36,34l-91 26c-77,23 -135,67 -135,155l0 0zm131 -10c0,-35 20,-53 61,-66l38 -11c16,-5 25,-8 31,-13l0 66c0,53 -25,82 -70,82 -37,0 -60,-25 -60,-58l0 0z"/>
  <path id="20" class="fil5" d="M13822 5620l-120 0 0 85c0,40 -14,62 -57,62l-36 0 0 114 81 0 0 255c0,107 64,153 152,153 42,0 64,-10 70,-13l0 -117c-7,2 -20,5 -36,5 -32,0 -54,-15 -54,-58l0 -225 91 0 0 -114 -91 0 0 -147z"/>
  <path id="21" class="fil5" d="M14147 6281l0 -514 -132 0 0 514 132 0zm-148 -671c0,46 36,82 81,82 47,0 83,-36 83,-82 0,-46 -36,-83 -83,-83 -45,0 -81,37 -81,83z"/>
  <path id="22" class="fil5" d="M14470 6181c-54,0 -88,-49 -88,-158 0,-110 33,-159 88,-159 54,0 87,49 87,159 0,109 -34,158 -87,158zm0 -429c-134,0 -219,105 -219,272 0,167 83,272 219,272 135,0 220,-105 220,-272 0,-168 -87,-272 -220,-272z"/>
  <path id="23" class="fil5" d="M14919 5767l-127 0 0 514 132 0 0 -321c0,-56 31,-81 69,-81 37,0 62,20 62,77l0 325 132 0 0 -370c0,-96 -49,-155 -143,-155 -56,0 -110,30 -125,84l0 -73z"/>
 </g>
</svg>
