<?xml version="1.0" encoding="UTF-8"?>
<!DOCTYPE svg PUBLIC "-//W3C//DTD SVG 1.1//EN" "http://www.w3.org/Graphics/SVG/1.1/DTD/svg11.dtd">
<!-- Creator: CorelDRAW X7 -->
<svg xmlns="http://www.w3.org/2000/svg" xml:space="preserve" width="13px" height="17px" version="1.1" style="shape-rendering:geometricPrecision; text-rendering:geometricPrecision; image-rendering:optimizeQuality; fill-rule:evenodd; clip-rule:evenodd"
viewBox="0 0 14645 18880"
 xmlns:xlink="http://www.w3.org/1999/xlink">
 <defs>
  <style type="text/css">
   <![CDATA[
    .fil3 {fill:#CC4B4C}
    .fil1 {fill:#D9D7CA}
    .fil0 {fill:#E9E9E0}
    .fil4 {fill:white}
    .fil5 {fill:#FEFEFE;fill-rule:nonzero}
    .fil6 {fill:#2B2A29;fill-rule:nonzero}
    .fil2 {fill:#1C1B17;fill-rule:nonzero}
   ]]>
  </style>
 </defs>
 <g id="Layer_x0020_1">
  <metadata id="CorelCorpID_0Corel-Layer"/>
  <path class="fil0" d="M10127 441l-9447 0c-264,0 -477,215 -477,628l0 17281c0,113 213,327 477,327l13047 0c262,0 475,-214 475,-327l0 -13682c0,-228 -30,-300 -82,-353l-3788 -3789c-55,-54 -128,-83 -205,-85z"/>
  <g>
   <polygon class="fil1" points="10297,491 10297,4350 14153,4350 "/>
   <path id="1" class="fil2" d="M10094 4350l0 -3859 406 0 0 3859 -203 204 -203 -204zm203 204l-203 0 0 -204 203 204zm3856 0l-3856 0 0 -407 3856 0 144 59 -144 348zm144 -348l348 348 -492 0 144 -348zm-3856 -3859l3856 3859 -288 288 -3856 -3859 -59 -144 347 -144zm-347 144l0 -491 347 347 -347 144z"/>
  </g>
  <path class="fil3" d="M4439 11293c-113,0 -221,-36 -315,-106 -338,-255 -385,-537 -362,-730 59,-532 713,-1086 1949,-1650 490,-1074 956,-2396 1232,-3501 -323,-708 -641,-1625 -409,-2163 80,-189 180,-334 368,-396 76,-25 263,-55 330,-55 166,0 310,211 412,342 96,122 314,381 -123,2214 439,906 1064,1831 1657,2462 428,-77 796,-117 1095,-117 510,0 818,120 943,365 105,202 64,438 -125,702 -183,255 -432,388 -723,388 -395,0 -857,-249 -1373,-744 -923,195 -2000,538 -2873,919 -272,577 -533,1043 -776,1385 -332,467 -622,685 -907,685zm867 -1669c-695,392 -980,712 -999,894 -4,29 -12,107 140,226 49,-16 331,-146 859,-1120zm4440 -1447c266,205 332,308 505,308 76,0 294,-2 393,-144 49,-68 68,-111 76,-136 -41,-20 -95,-63 -384,-63 -164,0 -370,8 -590,35zm-2432 -2143c-233,806 -540,1676 -869,2462 679,-264 1418,-494 2114,-655 -439,-512 -880,-1149 -1245,-1807zm-198 -2755c-31,11 -432,572 33,1047 308,-688 -18,-1053 -33,-1047z"/>
  <path class="fil3" d="M13727 18677l-13047 0c-264,0 -477,-214 -477,-478l0 -5058 13999 0 0 5058c0,264 -213,478 -475,478z"/>
  <g>
   <path class="fil4" d="M2754 17699l-533 0 0 -3281 943 0c139,0 278,23 414,68 136,44 259,110 367,200 108,89 195,195 263,322 66,127 99,268 99,425 0,167 -27,317 -85,451 -55,136 -134,251 -234,342 -102,92 -223,163 -366,214 -141,50 -300,76 -472,76l-396 0 0 1183zm0 -2875l0 1298 490 0c64,0 130,-10 194,-32 63,-23 122,-59 176,-110 53,-49 96,-121 129,-210 33,-90 50,-203 50,-337 0,-52 -8,-114 -23,-184 -16,-70 -46,-137 -91,-201 -47,-63 -111,-117 -196,-160 -82,-43 -192,-64 -328,-64l-401 0z"/>
   <path id="1" class="fil5" d="M2221 17596l533 0 0 205 -533 0 -102 -102 102 -103zm0 205l-102 0 0 -102 102 102zm102 -3383l0 3281 -204 0 0 -3281 102 -102 102 102zm-204 0l0 -102 102 0 -102 102zm1045 103l-943 0 0 -205 943 0 0 0 0 205zm445 -132l-62 194 0 0 -12 -4 -14 -4 -12 -4 -8 -3 -12 -3 -12 -4 -15 -3 -12 -4 -10 -1 -12 -3 -13 -2 -12 -3 -12 -3 -15 -2 -7 -2 -13 -1 -13 -3 -12 -1 -14 -3 -7 -1 -14 -2 -12 -1 -13 -1 -14 -2 -6 -1 -14 0 -13 -1 -12 0 -14 -2 -8 2 -12 0 -14 0 0 -205 14 0 12 0 19 2 13 1 12 0 14 1 13 0 18 2 13 1 14 1 12 2 13 1 18 1 12 3 15 1 12 3 13 1 18 4 12 3 15 3 12 2 13 3 12 3 18 4 12 4 12 3 15 4 12 2 19 6 12 4 14 4 12 4 0 0zm401 219l-129 156 -2 0 -8 -6 -9 -8 -8 -7 -14 -10 -9 -8 -6 -4 -10 -6 -11 -9 -11 -6 -8 -7 -8 -4 -14 -8 -8 -5 -12 -7 -6 -4 -13 -6 -10 -6 -11 -4 -14 -8 -6 -4 -11 -5 -12 -5 -12 -5 -12 -6 -13 -5 -6 -4 -11 -3 -14 -5 -13 -6 -11 -4 -9 -2 -12 -4 62 -194 12 4 17 5 14 7 10 3 14 5 13 5 18 7 12 6 12 5 12 5 12 6 14 6 15 7 10 6 14 6 11 7 12 5 15 10 12 7 13 8 8 5 16 9 14 10 11 7 10 8 11 6 16 13 10 8 8 6 13 10 10 8 13 9 -1 0zm-129 156l-2 0 -89 -74 91 74zm417 197l-181 94 0 0 -4 -8 -9 -15 -7 -13 0 -3 -6 -8 -11 -17 -7 -13 -3 -4 -8 -10 -6 -11 -6 -8 -9 -11 -7 -9 -7 -11 -6 -8 -6 -7 -8 -9 -9 -11 -8 -10 -6 -6 -9 -10 -8 -9 -7 -7 -9 -9 -7 -7 -10 -8 -12 -12 -6 -7 -7 -5 -10 -8 -10 -10 -8 -7 129 -156 11 10 10 9 10 8 12 11 12 12 7 7 9 8 12 12 10 9 12 12 8 10 9 9 11 12 8 10 10 11 8 9 10 12 10 14 9 10 7 10 7 11 10 13 7 11 8 11 11 17 7 12 2 4 10 14 13 21 4 11 4 7 10 16 0 0zm0 0l0 0 0 0 0 0zm112 472l-205 0 0 0 0 -14 1 -11 -1 -14 0 -13 -1 -11 -2 -15 -1 -13 -1 -15 -2 -12 -1 -10 -3 -13 -1 -15 -2 -8 -2 -13 -2 -10 -4 -12 -2 -12 -4 -15 -3 -13 -3 -7 -4 -12 -4 -14 -1 -6 -7 -14 -4 -13 -3 -6 -5 -12 -5 -12 -6 -12 -5 -12 -4 -8 -6 -11 181 -94 8 13 7 17 5 12 5 12 6 12 5 12 8 19 4 13 4 11 7 18 4 13 4 12 5 20 3 14 4 12 3 12 4 15 4 17 3 14 4 19 1 14 3 14 1 17 1 15 2 15 1 13 1 15 2 19 0 14 1 16 2 19 0 14 0 0zm-93 489l-189 -75 2 -3 4 -11 4 -9 4 -12 5 -13 4 -14 5 -12 3 -9 4 -13 4 -13 3 -9 3 -13 4 -13 1 -9 3 -20 4 -13 2 -10 2 -9 1 -15 3 -13 1 -14 3 -16 1 -8 2 -15 1 -15 1 -14 2 -17 1 -9 -1 -11 1 -19 1 -16 -1 -11 0 -16 205 0 0 16 -2 19 -1 16 1 11 -1 19 -2 20 -1 16 -1 15 -2 15 -1 15 -1 19 -3 13 -1 16 -3 14 -1 15 -4 17 -3 20 -4 14 -3 9 -4 19 -4 13 -3 14 -5 19 -4 13 -4 14 -5 19 -6 12 -4 12 -5 15 -4 12 -7 17 -7 14 2 -3zm-189 -75l2 -3 -4 11 2 -8zm-72 455l-135 -151 -1 0 9 -7 4 -4 11 -12 12 -11 4 -4 5 -7 11 -12 10 -9 2 -4 8 -11 8 -9 8 -11 6 -7 5 -8 8 -11 7 -11 8 -10 4 -7 7 -11 5 -8 7 -12 7 -11 6 -12 7 -11 3 -6 4 -8 7 -17 6 -12 4 -8 4 -9 6 -14 5 -10 189 75 -6 13 -5 14 -7 15 -7 16 -6 12 -4 8 -7 16 -11 18 -7 10 -6 13 -7 10 -7 12 -8 14 -7 11 -9 14 -8 11 -7 11 -8 11 -8 13 -11 12 -8 11 -8 10 -8 10 -13 15 -10 10 -5 6 -11 12 -15 15 -7 6 -5 6 -15 15 -9 10 -1 0zm1 0l-1 0 51 -46 -50 46zm-401 234l-68 -191 0 0 14 -6 12 -4 8 -4 15 -5 12 -6 9 -4 15 -6 10 -3 9 -7 12 -5 12 -7 11 -4 11 -7 13 -6 7 -3 11 -7 12 -7 4 -2 11 -8 17 -11 8 -4 8 -7 8 -5 7 -6 16 -12 8 -5 7 -6 11 -8 9 -8 8 -5 7 -7 11 -9 135 151 -9 6 -12 12 -13 11 -10 8 -10 8 -12 11 -14 8 -5 4 -12 11 -14 8 -13 9 -16 10 -4 3 -11 8 -18 10 -12 7 -11 7 -17 11 -11 4 -11 6 -13 7 -12 7 -12 5 -15 7 -18 8 -9 4 -15 7 -15 5 -12 6 -16 6 -15 4 -13 6 0 0zm0 0l0 0 0 0 0 0zm-506 82l0 -205 0 0 16 0 12 2 16 -2 20 -1 11 1 12 -1 15 -1 20 -2 11 0 11 -2 19 -2 16 -1 10 -2 15 -2 15 -2 9 -1 15 -3 15 -2 15 -3 15 -3 9 -2 15 -4 13 -3 15 -4 14 -3 9 -3 12 -2 14 -4 13 -4 10 -3 13 -5 13 -4 68 191 -14 4 -13 5 -18 6 -13 4 -14 4 -14 5 -21 5 -13 3 -15 4 -13 3 -15 4 -18 3 -14 2 -15 3 -15 3 -15 2 -20 4 -15 2 -15 2 -18 2 -17 1 -10 1 -19 3 -22 0 -9 1 -18 2 -20 1 -19 1 -12 -1 -16 1 -20 2 -16 0 0 0zm-396 -205l396 0 0 205 -396 0 -102 -102 102 -103zm-102 103l0 -103 102 0 -102 103zm0 1183l0 -1183 204 0 0 1183 -102 102 -102 -102zm204 0l0 102 -102 0 102 -102zm-204 -1577l0 -1298 204 0 0 1298 -102 103 -102 -103zm102 103l-102 0 0 -103 102 103zm490 0l-490 0 0 -205 490 0 0 0 0 205zm159 -230l70 191 -3 1 -5 1 -7 3 -5 1 -7 3 -16 4 -7 2 -5 1 4 -1 -6 2 -17 4 -6 2 -6 1 -17 3 -6 0 5 0 -7 1 -16 3 -7 0 6 0 -18 2 -5 0 -7 2 -16 1 4 -1 -5 1 -18 1 6 -1 -7 1 -16 2 -7 0 -5 0 -7 0 0 -205 7 0 5 0 7 0 -6 2 7 -2 16 -1 -4 1 6 -1 17 -1 -5 1 6 -1 6 0 -4 0 16 -3 7 0 -6 0 7 -2 16 -2 7 0 -6 0 7 -2 6 -1 -4 1 5 -2 17 -4 6 -2 7 -1 -6 1 7 -2 5 -2 7 -2 5 -2 -2 2zm70 191l-3 1 -17 5 20 -6zm72 -282l138 151 1 -1 -8 8 -7 4 2 -1 -10 10 -12 8 -5 5 -6 4 -5 4 -6 4 -5 4 -5 4 -6 4 -5 4 -12 9 -6 3 -5 4 -5 3 -6 4 -5 2 -9 7 -15 7 -2 1 -5 3 -9 4 -7 3 -2 1 -9 4 -7 3 -1 1 -19 8 -7 1 -2 2 -70 -191 8 -4 7 -2 -9 3 10 -4 7 -3 1 -1 9 -4 7 -3 1 -1 6 -3 9 -4 -1 1 1 -1 6 -3 5 -4 5 -2 6 -4 5 -3 -1 1 5 -4 6 -4 5 -4 5 -4 6 -4 5 -4 6 -4 5 -4 -1 0 1 0 9 -9 4 -5 3 -2 1 -2zm-1 2l4 -4 -3 2 -1 2zm104 -170l191 67 0 3 -4 11 -4 8 -3 8 -4 8 -3 8 -4 8 -4 11 -8 14 0 1 -3 7 -8 14 -5 11 -4 7 -4 7 -4 6 -4 7 -4 7 -4 7 -7 10 -4 6 -4 6 -12 17 -1 0 0 1 -13 16 -5 6 -4 5 -11 9 -4 4 0 2 -9 9 -8 8 -138 -151 3 0 -1 -1 11 -9 4 -4 0 -2 4 -5 5 -5 -4 5 8 -12 9 -11 -4 5 4 -6 4 -6 2 -2 4 -7 4 -7 4 -7 4 -6 4 -7 4 -7 3 -2 0 -2 2 -7 8 -14 0 0 2 -6 4 -8 3 -8 4 -8 2 -8 4 -8 2 -5 0 2zm191 67l0 3 -18 47 18 -50zm-148 -370l204 0 0 0 0 12 0 13 -1 17 -1 12 1 7 -1 17 -2 13 0 10 -1 19 -1 11 -2 5 0 12 -1 17 -1 10 -3 18 -3 11 0 5 -1 9 -3 17 -3 12 -1 10 -3 10 -1 8 -4 16 -3 12 -4 11 -2 8 -2 8 -4 11 -2 8 -3 9 -4 12 -191 -67 1 -4 3 -9 2 -8 2 -8 4 -11 2 -8 2 -8 3 -7 1 -5 1 -11 3 -10 1 -8 3 -9 0 -6 1 -9 3 -16 3 -11 0 -4 1 -11 1 -5 0 -9 2 -19 1 -11 1 -5 0 -11 2 -12 -2 -7 2 -18 1 -12 -1 -6 0 -13 0 -12 0 0zm-20 -161l199 -46 0 1 1 8 1 6 2 5 1 8 2 7 2 16 0 6 0 -4 2 5 1 7 3 16 0 7 1 5 0 7 -1 -8 4 18 0 7 1 4 0 6 1 5 2 17 -2 -6 2 5 1 18 0 5 -1 -7 1 6 1 17 0 6 0 5 0 4 0 5 -204 0 0 -5 0 -4 0 -5 0 -6 1 7 -1 -6 -2 -17 0 -5 2 6 -2 -5 -1 -18 1 7 -1 -5 0 -6 -1 -6 0 -7 1 8 -4 -19 0 -7 -1 -5 0 -7 0 6 -2 -7 -1 -5 -3 -18 0 -5 0 2 -1 -6 -1 -6 -2 -5 -1 -8 -1 -6 0 2zm199 -46l0 1 -4 -16 4 15zm-273 -117l164 -121 0 1 6 8 5 7 4 5 4 7 4 5 4 7 8 12 2 7 4 5 3 7 4 6 6 10 1 3 7 13 4 11 1 3 3 5 4 11 1 3 3 5 4 11 5 15 2 4 -2 -4 7 19 1 6 3 7 4 15 -1 -6 2 10 4 16 2 4 -199 46 -2 -10 2 3 -3 -4 -4 -16 1 1 -3 -6 -1 -7 1 5 -6 -15 -2 -9 0 1 -1 -2 -3 -6 -4 -11 -1 -2 -3 -6 -4 -10 -1 -3 1 3 -6 -11 0 -3 -5 -5 -2 -7 -4 -5 -3 -7 0 1 -4 -6 -4 -6 -4 -7 -4 -5 -4 -7 -1 -2 0 1zm164 -121l0 1 -34 -47 34 46zm-325 -10l95 -180 -2 0 8 3 11 6 7 4 15 7 6 6 2 1 10 5 13 8 6 6 7 4 7 5 6 4 13 10 5 4 5 4 12 11 0 0 7 4 15 14 5 6 2 1 6 5 15 14 4 5 0 2 6 5 15 15 4 7 1 0 8 10 5 7 6 7 -164 121 -3 -4 -6 -7 0 0 -9 -11 -4 -6 4 4 -5 -6 -11 -9 -4 -5 4 2 -7 -5 -9 -10 -6 -5 4 4 -6 -4 -11 -11 -1 0 -6 -4 -8 -6 -1 -2 -7 -4 -7 -5 -6 -4 -7 -6 -2 0 -2 -2 -15 -7 -7 -5 -1 -2 -7 -4 -5 -1 -8 -6 -2 0zm2 0l-2 0 -41 -21 43 21zm-283 -52l0 -205 0 0 12 0 14 0 17 2 12 1 12 0 12 1 13 0 17 2 12 1 11 1 11 2 12 1 12 1 16 3 10 3 10 1 12 3 11 1 14 4 10 3 13 3 9 2 11 4 8 3 16 4 8 4 9 3 11 5 8 3 15 7 8 4 10 5 -95 180 -6 -2 -8 -4 -2 -2 -8 -2 -5 -3 -10 -3 -8 -4 -2 -1 -9 -3 -8 -1 -9 -3 -7 -3 -11 -2 -5 -2 -8 -1 -9 -3 -11 -1 -12 -3 -3 0 -9 -1 -13 -1 -10 -2 -11 -1 -12 -1 -4 -2 -12 0 -12 -1 -13 0 -12 -1 -6 1 -14 0 -12 0 0 0zm-401 -205l401 0 0 205 -401 0 -102 -102 102 -103zm-102 103l0 -103 102 0 -102 103z"/>
  </g>
  <g>
   <path class="fil4" d="M8575 15968c0,270 -28,500 -84,693 -60,190 -132,351 -221,479 -89,129 -190,232 -302,306 -110,75 -219,130 -321,167 -104,36 -200,60 -286,71 -86,11 -149,15 -192,15l-1241 0 0 -3281 988 0c276,0 519,44 727,131 210,88 383,205 521,350 138,145 242,311 310,495 69,187 101,377 101,574zm-1584 1340c362,0 623,-117 784,-347 161,-231 240,-568 240,-1007 0,-136 -16,-272 -48,-405 -34,-133 -97,-254 -188,-362 -95,-109 -223,-195 -383,-262 -160,-68 -367,-101 -623,-101l-311 0 0 2484 529 0z"/>
   <path id="1" class="fil5" d="M8588 16692l-194 -62 0 3 5 -18 4 -15 4 -19 6 -18 2 -17 6 -21 4 -19 4 -15 2 -19 4 -22 3 -17 3 -21 4 -20 3 -18 2 -21 3 -22 3 -21 2 -22 3 -20 1 -22 3 -23 1 -18 2 -23 1 -25 1 -22 0 -22 0 -24 2 -24 0 -25 1 -25 0 -22 0 -25 205 0 0 25 0 27 -2 26 0 24 -1 24 0 24 -3 27 -1 23 -1 24 -2 23 -1 27 -3 23 -1 22 -3 25 -2 22 -3 21 -3 22 -3 21 -2 26 -4 20 -3 22 -5 24 -4 17 -3 19 -4 26 -7 21 -3 17 -5 21 -5 19 -4 19 -7 23 -5 17 0 3zm0 -3l0 3 -14 43 14 -46zm-235 509l-167 -116 0 0 7 -11 8 -12 7 -9 8 -14 8 -12 7 -12 7 -9 6 -14 8 -13 6 -12 8 -15 7 -14 6 -13 6 -11 6 -15 7 -14 7 -15 7 -14 6 -16 7 -15 5 -14 6 -14 5 -16 8 -17 6 -15 5 -18 7 -15 4 -12 7 -21 6 -18 4 -13 6 -19 194 62 -6 16 -7 22 -6 17 -4 14 -7 22 -7 18 -5 15 -8 20 -6 15 -5 16 -8 19 -8 17 -7 15 -7 16 -6 16 -7 15 -7 15 -7 15 -8 19 -9 16 -7 13 -8 15 -8 15 -8 13 -7 14 -9 17 -10 15 -8 12 -8 14 -9 14 -8 13 -10 13 0 0zm-167 -116l0 0 0 0 0 0zm-160 447l-116 -167 2 -1 7 -4 9 -8 13 -8 9 -7 9 -7 8 -5 9 -8 11 -8 4 -3 12 -12 11 -8 7 -7 9 -8 7 -7 9 -9 10 -10 7 -8 9 -10 12 -11 7 -8 7 -8 6 -8 8 -11 10 -11 8 -11 9 -11 7 -8 8 -9 10 -15 9 -11 4 -6 9 -14 167 116 -6 11 -13 17 -9 11 -7 9 -10 15 -10 14 -9 10 -8 11 -10 11 -8 11 -12 13 -12 14 -12 10 -7 9 -9 10 -12 11 -10 9 -9 10 -12 12 -10 8 -12 12 -11 8 -6 7 -15 13 -11 9 -9 8 -14 10 -9 7 -14 10 -8 5 -9 8 -15 9 1 -1zm-116 -167l2 -1 21 -14 -23 15zm-230 346l-67 -191 0 0 9 -4 11 -4 6 -1 6 -3 10 -4 12 -6 11 -4 6 -2 12 -6 6 -1 7 -5 12 -4 5 -4 15 -7 11 -4 4 -4 10 -6 10 -5 11 -5 5 -3 14 -8 12 -7 5 -3 11 -6 9 -6 10 -5 8 -6 9 -6 14 -8 8 -6 9 -6 9 -6 116 167 -12 8 -9 7 -14 8 -8 5 -9 7 -14 8 -12 8 -9 6 -11 6 -13 8 -10 4 -8 6 -13 8 -11 5 -10 6 -10 5 -15 7 -11 4 -4 4 -16 7 -7 4 -12 5 -16 7 -7 2 -12 6 -11 4 -6 3 -10 4 -12 5 -16 7 -8 1 -10 4 0 0zm0 0l0 0 0 0 0 0zm-307 77l-24 -202 0 0 4 -1 8 -2 16 -1 9 0 -6 0 7 -1 16 -5 9 -1 10 -1 -1 1 9 -4 9 -1 8 -3 11 -1 8 -3 8 -1 3 0 8 -3 18 -5 9 -2 3 -1 8 -1 8 -3 5 -1 10 -4 15 -6 9 -3 5 -1 11 -4 14 -4 4 0 9 -4 67 191 -9 4 -15 6 -5 1 -11 4 -14 4 -9 3 -4 0 -9 4 -14 4 -8 2 -11 4 -16 4 -9 2 -2 0 -8 3 -16 5 -8 1 -11 3 -8 1 -8 3 -9 1 -7 2 -17 4 -10 1 -7 1 0 -1 -9 4 -24 3 -8 0 0 1 -8 1 -13 2 0 0zm-204 16l0 -205 0 0 4 0 4 0 4 0 5 0 4 0 6 0 -11 2 8 -2 18 -1 4 0 5 0 -5 1 6 -1 16 -1 -6 1 6 -1 18 -2 -4 2 5 -2 18 -1 -4 1 7 -1 6 0 7 -1 8 0 -1 0 16 -3 8 0 -3 0 19 -3 8 0 4 -1 24 202 -12 1 -8 0 3 0 -16 3 -8 0 2 0 -17 3 -5 0 -7 1 -7 0 -7 1 -17 2 4 -2 -6 2 -17 1 4 -1 -4 1 -18 1 6 -1 -7 1 -16 2 -5 0 -4 0 6 -2 -2 2 -19 1 -6 0 -4 0 -5 0 -4 0 -4 0 -4 0 0 0zm-1241 -205l1241 0 0 205 -1241 0 -102 -102 102 -103zm0 205l-102 0 0 -102 102 102zm102 -3383l0 3281 -204 0 0 -3281 102 -102 102 102zm-204 0l0 -102 102 0 -102 102zm1090 103l-988 0 0 -205 988 0 0 0 0 205zm766 -66l-78 188 0 0 -21 -8 -16 -7 -19 -6 -20 -8 -17 -6 -19 -6 -22 -7 -18 -6 -18 -5 -20 -5 -22 -6 -21 -5 -20 -4 -22 -4 -22 -6 -20 -4 -23 -4 -20 -2 -20 -3 -27 -3 -23 -4 -17 -2 -24 -2 -25 -3 -24 -1 -24 -3 -20 0 -25 0 -28 -2 -23 0 -23 0 -25 0 0 -205 25 0 29 0 28 3 23 0 24 0 31 3 24 2 24 2 25 2 24 2 31 2 23 4 21 3 26 3 25 5 23 4 26 4 24 6 22 4 25 6 22 6 21 5 23 5 23 6 24 8 22 7 21 6 23 8 20 9 22 6 21 10 21 8 0 0zm-78 188l0 0 0 0 0 0zm634 186l-148 140 0 0 -14 -13 -12 -14 -9 -9 -14 -12 -15 -14 -12 -12 -11 -9 -16 -14 -12 -11 -15 -9 -16 -15 -11 -8 -16 -11 -15 -12 -12 -8 -16 -11 -15 -9 -17 -11 -16 -11 -14 -9 -17 -10 -18 -10 -15 -7 -16 -9 -19 -10 -17 -9 -18 -8 -16 -8 -19 -9 -18 -9 -15 -7 -20 -8 78 -188 20 8 23 9 19 10 18 8 22 11 20 10 18 10 19 9 18 10 21 12 17 10 18 10 21 12 16 11 18 11 17 12 16 10 21 14 14 12 17 11 18 16 14 9 17 15 15 14 14 10 18 15 15 15 12 11 17 15 17 17 12 14 14 13 0 0zm-148 140l0 0 0 0 0 0zm480 390l-191 70 0 0 -7 -16 -5 -16 -7 -16 -5 -15 -8 -16 -7 -18 -7 -10 -8 -17 -8 -16 -5 -13 -10 -16 -8 -16 -8 -14 -9 -15 -10 -15 -9 -16 -7 -12 -11 -16 -8 -12 -9 -14 -11 -14 -11 -15 -9 -12 -12 -15 -11 -15 -8 -11 -12 -13 -12 -15 -12 -13 -13 -15 -9 -10 -13 -13 148 -140 13 13 15 18 12 15 12 13 12 15 12 13 16 19 11 15 12 15 12 17 11 15 11 15 12 16 11 18 11 16 12 17 9 16 10 15 9 18 11 19 8 16 9 16 11 19 8 16 8 16 10 22 6 17 8 16 9 20 6 17 8 18 7 19 0 0zm0 0l0 0 0 0 0 0zm108 609l-205 0 0 0 0 -19 0 -14 -1 -18 0 -19 0 -14 -3 -23 1 -13 -2 -16 -2 -20 -1 -17 -3 -16 -1 -19 -3 -14 -2 -18 -3 -17 -1 -15 -4 -18 -3 -17 -4 -15 -4 -19 -4 -16 -4 -17 -3 -14 -5 -17 -4 -19 -4 -16 -6 -17 -5 -17 -4 -14 -7 -17 -5 -18 -7 -16 191 -70 7 19 5 18 7 17 7 22 5 17 5 19 7 22 4 16 6 17 5 22 4 17 4 19 4 19 4 20 3 18 4 17 4 23 3 18 2 17 3 23 1 16 3 19 1 21 2 15 2 22 2 21 0 15 2 22 0 18 2 19 0 22 0 19 0 0zm-987 935l167 116 0 0 -16 24 -19 23 -19 23 -20 21 -20 22 -22 20 -20 19 -21 19 -23 19 -25 19 -24 14 -23 17 -25 14 -27 15 -28 14 -26 12 -28 12 -29 11 -28 10 -29 8 -29 10 -33 9 -30 6 -30 6 -33 7 -34 4 -32 4 -35 3 -32 3 -35 1 -35 3 -37 0 0 -205 31 0 32 0 30 -1 30 -3 29 -3 27 -4 28 -4 26 -4 27 -7 27 -5 23 -7 25 -6 25 -8 22 -9 23 -8 21 -9 22 -9 21 -11 18 -10 18 -12 23 -13 16 -12 19 -14 17 -13 16 -14 18 -16 16 -15 15 -16 15 -16 13 -17 14 -18 13 -19 0 0zm0 0l0 0 0 0 0 0zm222 -949l205 0 0 0 0 42 -2 43 -1 40 -1 39 -3 39 -3 40 -2 40 -4 38 -4 36 -4 38 -6 36 -5 36 -7 37 -7 33 -6 35 -8 33 -9 32 -8 35 -10 32 -10 30 -9 29 -11 31 -12 30 -11 30 -13 29 -14 26 -13 29 -15 27 -14 25 -16 26 -16 26 -16 23 -167 -116 14 -20 13 -20 11 -19 13 -24 12 -22 11 -21 11 -26 11 -24 10 -24 10 -25 8 -25 9 -27 10 -30 8 -27 8 -27 5 -29 8 -32 7 -30 7 -31 4 -31 5 -34 6 -33 4 -33 4 -36 4 -35 2 -35 3 -36 0 -37 1 -39 2 -40 1 -38 0 -39 0 0zm-44 -381l196 -48 0 0 4 15 3 13 3 12 2 12 3 14 3 12 2 12 5 19 1 12 3 12 1 14 3 12 1 13 3 12 1 18 1 13 2 12 1 14 1 12 2 12 1 19 0 12 1 8 2 18 0 13 1 12 1 19 -1 7 1 13 2 18 0 13 0 12 -205 0 0 -12 0 -13 2 -7 -2 -14 -1 -17 1 -8 -1 -12 0 -14 -2 -6 -1 -19 0 -12 -1 -8 -2 -13 -1 -12 -1 -13 -2 -12 -1 -14 -1 -6 -3 -13 -1 -13 -3 -12 -1 -14 -3 -12 -1 -12 -2 -8 -2 -12 -3 -12 -3 -14 -2 -12 -3 -12 -3 -13 -1 -10 0 0zm196 -48l0 0 0 0 0 0zm-363 -272l153 -132 2 0 6 11 10 9 11 14 10 12 8 13 6 8 11 14 9 15 4 6 8 11 10 15 9 15 7 13 4 8 8 12 8 18 4 8 7 11 6 16 8 15 4 15 5 6 6 15 6 16 2 10 6 12 6 16 6 17 3 14 2 8 6 16 2 15 -196 48 -3 -9 -3 -8 -5 -19 -3 -11 -2 -7 -2 -8 -5 -12 -5 -15 -3 -5 -4 -9 -7 -18 -4 -9 -3 -7 -4 -8 -6 -11 -7 -16 -3 -4 -5 -9 -10 -17 -4 -8 -4 -6 -4 -7 -8 -11 -9 -15 -4 -6 -6 -8 -10 -14 -6 -8 -5 -7 -6 -8 -9 -9 -9 -11 1 0zm153 -132l2 0 80 94 -82 -94zm-498 -102l78 -189 0 0 18 8 12 6 16 7 16 8 19 8 14 8 10 5 19 10 14 8 16 8 12 8 13 7 18 10 12 8 12 8 12 9 12 8 15 9 14 11 12 9 13 10 14 12 8 6 12 11 13 12 11 10 9 9 13 12 12 12 9 11 11 12 9 11 -153 132 -10 -11 -5 -7 -9 -8 -7 -9 -10 -7 -9 -9 -11 -10 -5 -6 -10 -6 -13 -12 -8 -7 -8 -6 -12 -10 -8 -5 -10 -7 -12 -8 -12 -8 -12 -8 -12 -8 -7 -6 -13 -6 -12 -8 -11 -6 -14 -8 -8 -4 -19 -8 -13 -8 -11 -5 -11 -6 -13 -4 -18 -8 -12 -5 0 0zm-584 -93l0 -205 0 0 24 0 26 0 23 2 24 0 26 2 21 2 24 1 22 1 21 2 25 1 24 3 17 2 22 2 23 2 24 5 19 4 19 2 20 4 20 3 20 4 19 4 23 5 18 6 17 4 22 7 12 4 17 4 26 8 17 8 11 4 20 7 16 6 -78 189 -13 -7 -12 -4 -19 -7 -15 -5 -7 -3 -17 -4 -20 -7 -14 -4 -17 -4 -18 -5 -12 -3 -19 -4 -15 -4 -17 -2 -20 -5 -19 -2 -19 -4 -16 -2 -18 -2 -18 -2 -26 -2 -16 -3 -19 -1 -22 -2 -21 -1 -22 -1 -24 -2 -17 0 -25 0 -22 -1 -21 0 -24 0 0 0zm-311 -205l311 0 0 205 -311 0 -102 -102 102 -103zm-102 103l0 -103 102 0 -102 103zm0 2484l0 -2484 204 0 0 2484 -102 103 -102 -103zm102 103l-102 0 0 -103 102 103zm529 0l-529 0 0 -205 529 0 0 0 0 205z"/>
  </g>
  <g>
   <polygon class="fil4" points="11039,14824 11039,15856 12409,15856 12409,16222 11039,16222 11039,17699 10495,17699 10495,14418 12547,14418 12547,14824 "/>
   <path id="1" class="fil5" d="M10936 15856l0 -1032 205 0 0 1032 -102 102 -103 -102zm103 102l-103 0 0 -102 103 102zm1370 0l-1370 0 0 -204 1370 0 102 102 -102 102zm0 -204l102 0 0 102 -102 -102zm-102 468l0 -366 204 0 0 366 -102 102 -102 -102zm204 0l0 102 -102 0 102 -102zm-1472 -102l1370 0 0 204 -1370 0 -103 -102 103 -102zm-103 102l0 -102 103 0 -103 102zm0 1477l0 -1477 205 0 0 1477 -102 102 -103 -102zm205 0l0 102 -102 0 102 -102zm-646 -103l544 0 0 205 -544 0 -102 -102 102 -103zm0 205l-102 0 0 -102 102 102zm102 -3383l0 3281 -204 0 0 -3281 102 -102 102 102zm-204 0l0 -102 102 0 -102 102zm2154 103l-2052 0 0 -205 2052 0 103 102 -103 103zm0 -205l103 0 0 102 -103 -102zm-102 508l0 -406 205 0 0 406 -103 102 -102 -102zm205 0l0 102 -103 0 103 -102zm-1611 -103l1508 0 0 205 -1508 0 -103 -102 103 -103zm-103 103l0 -103 103 0 -103 103z"/>
  </g>
  <g>
   <path class="fil6" d="M10127 645l-9447 0 0 -407 9447 0 0 0 0 407zm348 -261l-288 288 -2 -2 6 6 -6 -4 -15 -15 4 4 7 5 -5 -4 -6 -4 4 3 -6 -4 -6 -4 8 4 -5 -3 0 0 3 2 -6 -3 0 0 -6 -3 -7 -3 -7 -2 11 4 11 2 -25 -5 -6 -3 11 3 -7 -1 15 2 -8 0 -9 -2 -6 0 -6 0 11 0 -7 0 0 -407 7 0 27 0 8 3 7 0 5 0 8 0 29 5 6 2 25 5 6 3 -11 -3 25 5 24 10 7 3 6 2 7 3 14 5 5 3 16 7 14 8 5 3 21 12 6 4 7 4 14 10 6 5 5 4 18 13 14 15 -4 -4 6 4 16 16 -1 -1zm-288 288l-2 -2 0 0 2 2zm3789 3787l-3789 -3787 288 -288 3789 3787 0 0 -288 288zm429 209l-407 0 0 0 0 -22 0 -12 -1 -20 0 -16 -1 -18 0 -17 -2 -5 -1 -17 0 -13 0 -3 -3 -10 -1 -11 -3 -11 -1 -8 0 1 -1 -8 -2 -5 -1 -7 1 5 -2 -4 0 0 -4 -8 1 0 3 7 -4 -7 1 2 3 4 -11 -15 12 15 4 5 -13 -15 4 4 288 -288 14 15 -5 -4 15 14 20 28 -3 -4 11 15 10 14 4 7 10 20 7 14 4 8 6 13 5 15 7 22 4 12 4 13 4 14 5 23 1 13 3 13 2 14 2 16 3 24 3 16 1 17 1 24 0 17 2 18 0 19 1 20 0 25 0 22 0 0zm-407 13683l0 -13683 407 0 0 13683 0 0 -407 0zm-271 529l0 -406 0 0 13 0 12 -1 19 -3 11 -1 16 -4 16 -4 10 -3 16 -7 14 -4 7 -4 19 -9 11 -6 15 -9 12 -8 5 -3 14 -12 8 -5 10 -11 13 -10 5 -6 5 -6 7 -8 7 -9 5 -8 4 -6 -1 3 3 -7 -2 6 -1 2 1 -4 -1 11 -2 13 407 0 -1 35 -7 35 -4 18 -10 30 -12 29 -10 20 -15 27 -15 22 -13 19 -15 17 -15 19 -19 22 -21 20 -18 17 -19 16 -21 19 -22 15 -27 22 -25 13 -23 15 -27 13 -22 12 -33 15 -29 12 -27 10 -33 11 -30 6 -29 7 -35 7 -30 2 -36 4 -35 0 0 0zm-13047 -406l13047 0 0 406 -13047 0 0 0 0 -406zm-680 -123l406 0 0 0 -1 -13 -1 -11 1 4 -1 -2 -2 -6 3 7 -1 -3 4 6 5 8 7 9 7 8 5 6 5 6 13 10 10 11 8 5 11 9 10 6 14 9 11 8 11 6 19 9 7 4 14 4 15 7 12 3 15 4 18 4 10 1 19 3 12 1 14 0 0 406 -35 0 -37 -4 -29 -2 -35 -7 -31 -7 -28 -6 -34 -11 -28 -10 -29 -12 -33 -15 -22 -12 -27 -13 -27 -16 -20 -12 -25 -19 -25 -18 -21 -19 -19 -16 -18 -17 -21 -20 -19 -22 -15 -19 -15 -17 -13 -19 -15 -22 -15 -27 -10 -20 -12 -29 -10 -30 -4 -18 -7 -35 -1 -35 0 0zm406 -17282l0 17282 -406 0 0 -17282 0 0 406 0zm274 -831l0 407 0 0 -14 0 -12 1 -19 3 -5 0 -12 4 -15 4 -17 7 -10 2 -5 4 -10 6 -13 8 -10 7 -9 8 -11 10 -12 12 -5 4 -6 11 -14 22 -10 12 -7 11 -6 16 -8 17 -9 22 -6 23 -7 17 -4 23 -5 27 -4 26 -4 24 -2 32 -3 30 0 31 -406 0 0 -45 3 -45 4 -41 4 -43 6 -42 9 -37 9 -42 12 -42 12 -33 14 -35 13 -34 18 -35 20 -38 20 -31 15 -21 24 -33 30 -33 23 -23 24 -22 28 -24 28 -20 27 -19 31 -19 38 -17 34 -14 28 -9 28 -10 36 -9 41 -8 29 -3 37 -4 35 0 0 0z"/>
  </g>
 </g>
</svg>
