<?xml version="1.0" encoding="UTF-8"?>
<!DOCTYPE svg PUBLIC "-//W3C//DTD SVG 1.1//EN" "http://www.w3.org/Graphics/SVG/1.1/DTD/svg11.dtd">
<!-- Creator: CorelDRAW X7 -->
<svg xmlns="http://www.w3.org/2000/svg" xml:space="preserve" width="16px" height="15px" version="1.1" style="shape-rendering:geometricPrecision; text-rendering:geometricPrecision; image-rendering:optimizeQuality; fill-rule:evenodd; clip-rule:evenodd"
viewBox="0 0 22746 21802"
 xmlns:xlink="http://www.w3.org/1999/xlink">
 <defs>
  <style type="text/css">
   <![CDATA[
    .fil0 {fill:#1565C0}
    .fil1 {fill:#FCFCFD}
   ]]>
  </style>
 </defs>
 <g id="Layer_x0020_1">
  <metadata id="CorelCorpID_0Corel-Layer"/>
  <g id="word_x0020__x0028_1_x0029_.eps">
   <path class="fil0" d="M13091 106c-112,-91 -260,-126 -403,-94l-12320 2842c-217,51 -370,244 -366,467l0 16110c0,234 169,434 401,469l12321 1895c258,39 500,-137 540,-396 4,-25 5,-48 5,-72l0 -20850c0,-145 -65,-281 -178,-371z"/>
   <path class="fil0" d="M22272 19905l-9476 0c-262,0 -475,-212 -475,-474 0,-262 213,-473 475,-473l9003 0 0 -16112 -9003 0c-262,0 -475,-212 -475,-474 0,-261 213,-473 475,-473l9476 0c262,0 474,212 474,473l0 17059c0,262 -212,474 -474,474z"/>
   <path class="fil1" d="M8056 15167c-210,0 -396,-140 -455,-343l-1441 -5040 -1439 5040c-105,252 -392,371 -644,267 -121,-50 -217,-146 -267,-267l-1896 -6634c-79,-250 59,-517 309,-596 249,-79 515,59 594,309 4,9 5,17 9,27l1440 5039 1441 -5041c104,-251 391,-371 643,-267 121,51 217,146 267,267l1439 5041 1441 -5039c68,-250 325,-396 575,-329 4,2 7,2 11,3 251,73 397,334 325,586l-1895 6634c-59,203 -245,343 -457,343z"/>
   <path class="fil0" d="M20377 5690l-7581 0c-262,0 -475,-213 -475,-473 0,-262 213,-475 475,-475l7581 0c262,0 475,213 475,475 0,262 -213,473 -475,473z"/>
   <path class="fil0" d="M20377 8533l-7581 0c-262,0 -475,-212 -475,-474 0,-262 213,-473 475,-473l7581 0c262,0 475,211 475,473 0,262 -213,474 -475,474z"/>
   <path class="fil0" d="M20377 11375l-7581 0c-262,0 -475,-211 -475,-473 0,-262 213,-474 475,-474l7581 0c262,0 475,212 475,474 0,262 -213,473 -475,473z"/>
   <path class="fil0" d="M20377 14220l-7581 0c-262,0 -475,-214 -475,-475 0,-262 213,-474 475,-474l7581 0c262,0 475,212 475,474 0,261 -213,475 -475,475z"/>
   <path class="fil0" d="M20377 17062l-7581 0c-262,0 -475,-213 -475,-473 0,-262 213,-475 475,-475l7581 0c262,0 475,213 475,475 0,262 -213,473 -475,473z"/>
  </g>
 </g>
</svg>
