<?xml version="1.0" encoding="UTF-8"?>
<!DOCTYPE svg PUBLIC "-//W3C//DTD SVG 1.1//EN" "http://www.w3.org/Graphics/SVG/1.1/DTD/svg11.dtd">
<!-- Creator: CorelDRAW X7 -->
<svg xmlns="http://www.w3.org/2000/svg" xml:space="preserve" width="16px" height="15px" version="1.1" style="shape-rendering:geometricPrecision; text-rendering:geometricPrecision; image-rendering:optimizeQuality; fill-rule:evenodd; clip-rule:evenodd"
viewBox="0 0 22599 21186"
 xmlns:xlink="http://www.w3.org/1999/xlink">
 <defs>
  <style type="text/css">
   <![CDATA[
    .fil3 {fill:#FAF9F9}
    .fil0 {fill:#E7EBED}
    .fil1 {fill:#016FB7}
    .fil2 {fill:#0F60A9}
   ]]>
  </style>
 </defs>
 <g id="Layer_x0020_1">
  <metadata id="CorelCorpID_0Corel-Layer"/>
  <g id="word.eps">
   <path class="fil0" d="M21892 18362l-9888 0c-388,0 -705,-316 -705,-708 0,-390 0,-13732 0,-14122 0,-391 317,-706 705,-706l9888 0c390,0 705,315 705,706l2 14122c0,392 -317,708 -707,708z"/>
   <path class="fil1" d="M19067 7061l-7063 0c-388,0 -705,-313 -705,-705 0,-391 317,-706 705,-706l7063 0c389,0 706,315 706,706 0,390 -317,705 -706,705z"/>
   <path class="fil1" d="M19067 9887l-7063 0c-388,0 -705,-315 -705,-707 0,-390 317,-706 705,-706l7063 0c389,0 706,317 706,706 0,390 -317,707 -706,707z"/>
   <path class="fil1" d="M19067 12712l-7063 0c-388,0 -705,-316 -705,-706 0,-392 317,-707 705,-707l7063 0c389,0 706,317 706,707 0,389 -317,706 -706,706z"/>
   <path class="fil1" d="M19067 15536l-7063 0c-388,0 -705,-314 -705,-706 0,-390 317,-706 705,-706l7063 0c389,0 706,316 706,706 0,390 -317,706 -706,706z"/>
   <path class="fil2" d="M12455 163c-125,-105 -286,-163 -446,-163 -45,0 -90,3 -135,13l-11298 2119c-334,62 -576,354 -576,694l0 15536c0,338 240,630 576,692l11298 2119c43,8 85,13 129,13l1 0c165,0 324,-57 451,-162 163,-135 257,-334 257,-544l0 -19773c0,-212 -94,-408 -257,-544z"/>
   <path class="fil3" d="M9175 14203c-37,323 -290,582 -614,622 -30,3 -58,5 -87,5 -292,0 -557,-180 -662,-457l-1456 -3887 -1458 3887c-114,302 -411,487 -738,454 -320,-35 -577,-284 -623,-604l-706 -4943c-55,-385 213,-744 599,-799 387,-55 744,214 799,599l315 2210 1148 -3064c207,-551 1116,-551 1324,0l1081 2884 381 -3421c43,-387 402,-664 780,-624 387,45 666,393 624,780l-707 6358z"/>
  </g>
 </g>
</svg>
