<?xml version="1.0" encoding="UTF-8"?>
<!DOCTYPE svg PUBLIC "-//W3C//DTD SVG 1.1//EN" "http://www.w3.org/Graphics/SVG/1.1/DTD/svg11.dtd">
<!-- Creator: CorelDRAW X7 -->
<svg xmlns="http://www.w3.org/2000/svg" xml:space="preserve" width="116px" height="52px" version="1.1" style="shape-rendering:geometricPrecision; text-rendering:geometricPrecision; image-rendering:optimizeQuality; fill-rule:evenodd; clip-rule:evenodd"
viewBox="0 0 6728776 3005754"
 xmlns:xlink="http://www.w3.org/1999/xlink">
 <defs>
  <style type="text/css">
   <![CDATA[
    .fil0 {fill:none}
    .fil4 {fill:#FEFEFE}
    .fil3 {fill:#8EC63F}
    .fil5 {fill:#2B2A29;fill-rule:nonzero}
    .fil1 {fill:#EF7F1A;fill-rule:nonzero}
    .fil2 {fill:#8EC63F;fill-rule:nonzero}
   ]]>
  </style>
 </defs>
 <g id="Layer_x0020_1">
  <metadata id="CorelCorpID_0Corel-Layer"/>
  <g id="_2625725134224">
   <polygon class="fil0" points="-68,-68 6728844,-68 6728844,3005754 -68,3005754 "/>
   <polygon class="fil1" points="596768,2089267 1084368,2089267 1084368,1926370 807797,1926370 807797,1356843 596768,1356843 "/>
   <polygon id="1" class="fil1" points="1196130,2089267 1718549,2089267 1718549,1927394 1405111,1927394 1405111,1794263 1641743,1794263 1641743,1644678 1405111,1644678 1405111,1518716 1702164,1518716 1702164,1356843 1196130,1356843 "/>
   <path id="2" class="fil1" d="M1776034 2089267l195668 0 38916 -136271 242776 0 38915 136271 222294 0 -232535 -732424 -271450 0 -234584 732424zm356449 -562358l79947 281691 -160849 0 80902 -281691z"/>
   <path id="3" class="fil1" d="M2608955 2089267l208982 0 0 -262234 49156 0 148560 262234 221271 0 -175187 -303197c76806,-29698 132175,-88139 132175,-192596l0 -4096c0,-154705 -106573,-232535 -298145,-232535l-286812 0 0 732424zm208982 -398505l0 -176142 68613 0c67658,0 104525,23554 104525,82950l0 4097c0,59397 -34819,89095 -105549,89095l-67589 0z"/>
   <polygon id="4" class="fil1" points="3333324,2089267 3517727,2089267 3517727,1629317 3785081,2089267 3987918,2089267 3987918,1356843 3804539,1356843 3804539,1769685 3569956,1356843 3333324,1356843 "/>
   <polygon id="5" class="fil1" points="4315830,2089267 4526859,2089267 4526859,1775829 4754274,1356843 4553485,1356843 4429503,1603715 4305589,1356843 4077150,1356843 4315830,1775829 "/>
   <polygon id="6" class="fil1" points="5033030,2089267 5271709,2089267 5511413,1356843 5314721,1356843 5165205,1871069 5016644,1356843 4790254,1356843 "/>
   <polygon id="7" class="fil1" points="5604741,2089267 6127161,2089267 6127161,1927394 5813723,1927394 5813723,1794263 6050354,1794263 6050354,1644678 5813723,1644678 5813723,1518716 6110775,1518716 6110775,1356843 5604741,1356843 "/>
   <polygon class="fil2" points="943044,907406 1433854,1096179 1937908,907679 5649801,907679 5649801,957450 1937908,957518 1433854,1149295 943044,960522 "/>
   <path class="fil3" d="M5969930 1081091c77557,0 140504,-62879 140504,-140504 0,-77626 -62947,-140505 -140504,-140505l-225913 0c-77626,0 -140505,62879 -140505,140505 0,77625 62879,140504 140505,140504l225913 0z"/>
   <path class="fil4" d="M5700800 907406l84590 0c13722,0 24919,11197 24919,24920l0 0c0,13654 -11197,24919 -24919,24919l-84590 0c-13722,0 -24919,-11265 -24919,-24919l0 0c0,-13723 11197,-24920 24919,-24920z"/>
   <path class="fil3" d="M2026184 765673l175459 -69091 -760416 -297872 -436191 170817 176347 68614 259844 -101863 584957 229395zm-1345305 -69091l0 0 137 343136 -41237 105207 62060 158392 62127 -158392 -42124 -107392 0 -324907 719453 281896 436328 -171022 -176415 -68546 -259981 101863 -580792 -230624 -179556 70389z"/>
   <path class="fil5" d="M1689328 2366657l0 -76943 23623 0c28947,0 43421,12016 43421,38506 0,25602 -14474,38437 -43421,38437l-23623 0zm32703 48405c59124,0 90119,-35570 90119,-87252 0,-51340 -30995,-87320 -90119,-87320l-88549 0 0 293298 55437 0 0 -118726 33112 0z"/>
   <path id="1" class="fil5" d="M1919679 2493644c-21916,0 -35570,-19868 -35570,-63698 0,-44650 13245,-64108 35570,-64108 21915,0 35160,19458 35160,64108 0,43830 -13654,63698 -35160,63698zm0 -173275c-54208,0 -88549,42602 -88549,109986 0,67044 33521,109645 88549,109645 54618,0 88481,-42601 88481,-109645 0,-67794 -34683,-109986 -88481,-109986z"/>
   <polygon id="2" class="fil5" points="2140949,2326513 2110363,2462238 2082645,2326513 2026798,2326513 2078958,2533788 2134805,2533788 2167439,2397311 2203009,2533788 2258855,2533788 2306851,2326513 2251004,2326513 2227450,2463467 2193109,2326513 "/>
   <path id="3" class="fil5" d="M2381336 2405572c409,-25260 13654,-42192 33931,-42192 21096,0 30586,16112 30586,42192l-64517 0zm33521 -85203c-55846,0 -87320,47517 -87320,110396 0,65814 33522,109235 89778,109235 51273,0 76124,-42192 78172,-71549l-47176 -4984c-1229,17341 -11538,31883 -30996,31883 -30176,0 -37208,-28606 -37208,-54617l117428 0c478,-1707 1297,-10787 1297,-19048 0,-67044 -31883,-101316 -83975,-101316z"/>
   <path id="4" class="fil5" d="M2644867 2325284c-2117,-409 -5394,-819 -8739,-819 -21916,0 -40486,13654 -45060,35979l0 -33931 -50863 0 0 207275 53321 0 0 -103433c0,-35570 16590,-51272 43011,-51272 2936,0 5804,0 8330,819l0 -54618z"/>
   <path id="5" class="fil5" d="M2733757 2533788l0 -207275 -53321 0 0 207275 53321 0zm-59533 -270563c0,18638 14473,33112 32634,33112 18638,0 33521,-14474 33521,-33112 0,-18570 -14883,-33454 -33521,-33454 -18161,0 -32634,14884 -32634,33454z"/>
   <path id="6" class="fil5" d="M2836780 2326513l-51273 0 0 207275 53321 0 0 -129444c0,-22394 12426,-32703 27719,-32703 14883,0 24851,8261 24851,30996l0 131151 53320 0 0 -149312c0,-38505 -19799,-62469 -57485,-62469 -22735,0 -44650,12426 -50453,33932l0 -29426z"/>
   <path id="7" class="fil5" d="M3068018 2567719c-18638,0 -33522,-9968 -36799,-29767l-46357 10719c4165,34751 35570,64108 82337,64108 58714,0 90187,-37618 90187,-97220l0 -189046 -50043 0 0 23213c-5394,-15703 -21506,-27719 -44719,-27719 -39256,0 -76533,29357 -76533,99678 0,72368 38915,99268 77762,99268 21097,0 37277,-11538 40964,-22735l0 27309c0,29357 -13655,42192 -36799,42192zm4165 -90597c-18639,0 -32293,-15703 -32293,-55847 0,-37208 13245,-54618 32293,-54618 19389,0 32224,17819 32224,54618 0,39734 -12835,55847 -32224,55847z"/>
   <path id="8" class="fil5" d="M3352577 2479989l0 -186929 23963 0c39325,0 59192,33453 59192,93464 0,60831 -19867,93465 -58714,93465l-24441 0zm28128 53799c35160,0 110874,-16113 110874,-147264 0,-130741 -75714,-146034 -110874,-146034l-82746 0 0 293298 82746 0z"/>
   <path id="9" class="fil5" d="M3588730 2533788l0 -207275 -53320 0 0 207275 53320 0zm-59533 -270563c0,18638 14474,33112 32634,33112 18638,0 33522,-14474 33522,-33112 0,-18570 -14884,-33454 -33522,-33454 -18160,0 -32634,14884 -32634,33454z"/>
   <path id="10" class="fil5" d="M3713259 2567719c-18638,0 -33522,-9968 -36799,-29767l-46357 10719c4165,34751 35570,64108 82337,64108 58714,0 90187,-37618 90187,-97220l0 -189046 -50043 0 0 23213c-5394,-15703 -21506,-27719 -44719,-27719 -39256,0 -76533,29357 -76533,99678 0,72368 38915,99268 77762,99268 21096,0 37277,-11538 40964,-22735l0 27309c0,29357 -13655,42192 -36799,42192zm4165 -90597c-18639,0 -32293,-15703 -32293,-55847 0,-37208 13245,-54618 32293,-54618 19389,0 32224,17819 32224,54618 0,39734 -12835,55847 -32224,55847z"/>
   <path id="11" class="fil5" d="M3907220 2533788l0 -207275 -53320 0 0 207275 53320 0zm-59533 -270563c0,18638 14474,33112 32634,33112 18638,0 33522,-14474 33522,-33112 0,-18570 -14884,-33454 -33522,-33454 -18160,0 -32634,14884 -32634,33454z"/>
   <path id="12" class="fil5" d="M4027175 2267389l-48405 0 0 34341c0,16113 -5735,24783 -23145,24783l-14473 0 0 45947 32702 0 0 103023c0,43012 26012,61582 61650,61582 16522,0 25602,-4097 28128,-5325l0 -47177c-2936,820 -8329,2049 -14474,2049 -13244,0 -21983,-5804 -21983,-23145l0 -91007 36867 0 0 -45947 -36867 0 0 -59124z"/>
   <path id="13" class="fil5" d="M4093808 2477122c0,33931 25261,60421 61650,60421 22735,0 39257,-10787 45879,-28128 0,10718 1297,22734 2117,24373l50862 0c-819,-3277 -2867,-16932 -2867,-34341l0 -106300c0,-49634 -31473,-72778 -77352,-72778 -51341,0 -75714,33863 -77421,64927l47176 6622c1639,-17819 12426,-28947 29357,-28947 16590,0 26080,9489 26080,24782l0 2526c0,7852 -3277,10310 -14474,13587l-36389 10787c-31473,9080 -54618,26899 -54618,62469l0 0zm52980 -4165c0,-14064 7851,-21506 24373,-26421l15293 -4574c6622,-2049 10377,-3346 12425,-5394l0 26899c0,21096 -9899,33112 -28128,33112 -14883,0 -23963,-10377 -23963,-23622l0 0z"/>
   <polygon id="14" class="fil5" points="4356042,2533788 4356042,2234277 4301902,2234277 4301902,2533788 "/>
   <polygon id="15" class="fil5" points="4645585,2533788 4645585,2480808 4551710,2480808 4551710,2410898 4635276,2410898 4635276,2361673 4551710,2361673 4551710,2293060 4645175,2293060 4645175,2240490 4497093,2240490 4497093,2533788 "/>
   <path id="16" class="fil5" d="M4681155 2429946c0,75714 34750,108416 78649,108416 16932,0 37209,-7851 45879,-30245 410,9968 1229,19868 2048,25671l50522 0c-888,-5803 -2526,-24373 -2526,-43831l0 -255680 -52911 0 0 112923c-5394,-16113 -22803,-25602 -44309,-25602 -42192,0 -77352,33931 -77352,108348l0 0zm87320 63288c-20277,0 -34341,-17751 -34341,-63288 0,-45470 14064,-63289 34341,-63289 20277,0 34341,17819 34341,63289 0,45537 -14064,63288 -34341,63288z"/>
   <path id="17" class="fil5" d="M5067507 2533788c-819,-3755 -2867,-18639 -2867,-37618l0 -169657 -52502 0 0 133199c0,22394 -12425,31474 -26899,31474 -12835,0 -25670,-7032 -25670,-30177l0 -134496 -52980 0 0 144396c0,40554 23213,67453 62879,67453 18639,0 42670,-10377 46767,-30245 0,8739 409,16590 2048,25671l49224 0z"/>
   <path id="18" class="fil5" d="M5160221 2429946c0,-43012 12425,-63289 35160,-63289 20687,0 28128,16112 29767,34341l48405 -7441c-2048,-24852 -19458,-73188 -77762,-73188 -54618,0 -88959,42192 -88959,109986 0,68272 34341,109645 89368,109645 47996,0 74485,-40144 77353,-77762l-47586 -4574c-1639,17000 -9080,35160 -30586,35160 -23144,0 -35160,-20686 -35160,-62878z"/>
   <path id="19" class="fil5" d="M5301271 2477122c0,33931 25261,60421 61650,60421 22735,0 39257,-10787 45879,-28128 0,10718 1297,22734 2116,24373l50863 0c-819,-3277 -2867,-16932 -2867,-34341l0 -106300c0,-49634 -31474,-72778 -77353,-72778 -51340,0 -75713,33863 -77420,64927l47176 6622c1638,-17819 12425,-28947 29357,-28947 16590,0 26080,9489 26080,24782l0 2526c0,7852 -3277,10310 -14474,13587l-36389 10787c-31473,9080 -54618,26899 -54618,62469l0 0zm52980 -4165c0,-14064 7851,-21506 24373,-26421l15293 -4574c6622,-2049 10377,-3346 12425,-5394l0 26899c0,21096 -9899,33112 -28128,33112 -14883,0 -23963,-10377 -23963,-23622l0 0z"/>
   <path id="20" class="fil5" d="M5575521 2267389l-48405 0 0 34341c0,16113 -5735,24783 -23144,24783l-14474 0 0 45947 32702 0 0 103023c0,43012 26012,61582 61650,61582 16522,0 25602,-4097 28128,-5325l0 -47177c-2935,820 -8329,2049 -14473,2049 -13245,0 -21984,-5804 -21984,-23145l0 -91007 36867 0 0 -45947 -36867 0 0 -59124z"/>
   <path id="21" class="fil5" d="M5706672 2533788l0 -207275 -53321 0 0 207275 53321 0zm-59534 -270563c0,18638 14474,33112 32635,33112 18638,0 33521,-14474 33521,-33112 0,-18570 -14883,-33454 -33521,-33454 -18161,0 -32635,14884 -32635,33454z"/>
   <path id="22" class="fil5" d="M5837004 2493644c-21916,0 -35570,-19868 -35570,-63698 0,-44650 13245,-64108 35570,-64108 21915,0 35160,19458 35160,64108 0,43830 -13655,63698 -35160,63698zm0 -173275c-54209,0 -88550,42602 -88550,109986 0,67044 33522,109645 88550,109645 54617,0 88480,-42601 88480,-109645 0,-67794 -34682,-109986 -88480,-109986z"/>
   <path id="23" class="fil5" d="M6018198 2326513l-51272 0 0 207275 53320 0 0 -129444c0,-22394 12426,-32703 27719,-32703 14883,0 24851,8261 24851,30996l0 131151 53320 0 0 -149312c0,-38505 -19798,-62469 -57485,-62469 -22734,0 -44650,12426 -50453,33932l0 -29426z"/>
  </g>
 </g>
</svg>
