<?xml version="1.0" encoding="UTF-8"?>
<!DOCTYPE svg PUBLIC "-//W3C//DTD SVG 1.1//EN" "http://www.w3.org/Graphics/SVG/1.1/DTD/svg11.dtd">
<!-- Creator: CorelDRAW X7 -->
<svg xmlns="http://www.w3.org/2000/svg" xml:space="preserve" width="56.8168mm" height="56.8168mm" version="1.1" style="shape-rendering:geometricPrecision; text-rendering:geometricPrecision; image-rendering:optimizeQuality; fill-rule:evenodd; clip-rule:evenodd"
viewBox="0 0 799 799"
 xmlns:xlink="http://www.w3.org/1999/xlink">
 <defs>
  <style type="text/css">
   <![CDATA[
    .fil4 {fill:none}
    .fil5 {fill:#FEFEFE}
    .fil0 {fill:#FEFEFE}
    .fil3 {fill:#EF7F1A}
    .fil7 {fill:#EF7F1A}
    .fil2 {fill:#ED5300}
    .fil1 {fill:#F67F21}
    .fil6 {fill:#FEFEFE;fill-rule:nonzero}
   ]]>
  </style>
   <clipPath id="id0">
    <path d="M399 38c200,0 361,162 361,361 0,200 -161,361 -361,361 -199,0 -361,-161 -361,-361 0,-199 162,-361 361,-361z"/>
   </clipPath>
    <clipPath id="id1">
     <path d="M399 38c200,0 361,162 361,361 0,200 -161,361 -361,361 -199,0 -361,-161 -361,-361 0,-199 162,-361 361,-361z"/>
    </clipPath>
    <clipPath id="id2">
     <path d="M399 38c200,0 361,162 361,361 0,200 -161,361 -361,361 -199,0 -361,-161 -361,-361 0,-199 162,-361 361,-361z"/>
    </clipPath>
 </defs>
 <g id="Layer_x0020_1">
  <metadata id="CorelCorpID_0Corel-Layer"/>
  <path class="fil0" d="M399 0c221,0 400,179 400,399 0,221 -179,400 -400,400 -220,0 -399,-179 -399,-400 0,-220 179,-399 399,-399z"/>
  <g>
  </g>
  <g style="clip-path:url(#id0)">
   <g>
    <polygon class="fil1" points="17,17 782,17 782,782 17,782 "/>
   </g>
   <g style="clip-path:url(#id1)">
    <g id="_2622438263952">
     <path id="1" class="fil2" d="M838 688c0,83 -67,150 -150,150l-577 0c-83,0 -150,-67 -150,-150l0 -577c0,-83 67,-150 150,-150l577 0c83,0 150,67 150,150l0 577z"/>
     <path class="fil3" d="M597 560c-13,0 -26,-1 -39,-1 -47,-3 -94,-7 -142,-21 -208,-49 -384,-181 -490,-359l0 -184c0,-84 65,-152 147,-157 9,0 17,0 26,0l591 0c0,0 0,0 1,0 0,0 0,0 0,0 0,0 0,0 0,0 1,0 1,0 1,0 0,0 0,0 0,0 0,0 0,0 0,0 0,0 1,0 1,0 0,0 0,0 0,0 1,0 1,0 1,0 0,0 0,0 0,0 0,0 0,0 0,0 0,0 0,0 0,0 85,2 153,71 153,157l0 523c-78,27 -163,42 -250,42z"/>
    </g>
   </g>
   <g style="clip-path:url(#id2)">
    <polygon class="fil4" points="17,17 782,17 782,782 17,782 "/>
    <g id="_2622438261840">
     <polygon class="fil0" points="206,393 395,466 507,420 462,401 393,427 252,374 "/>
     <polygon class="fil0" points="531,411 571,394 383,322 275,365 321,382 386,355 "/>
     <polygon class="fil0" points="216,481 228,504 211,532 194,504 206,482 206,393 216,395 "/>
     <polygon class="fil0" points="651,464 643,463 511,463 513,449 654,449 "/>
     <path class="fil5" d="M613 275l-6 -8 14 -3 5 7c20,-2 40,11 45,31l13 45c6,23 -7,46 -30,52 -22,6 -45,-7 -52,-29l-12 -46c-5,-20 4,-40 23,-49z"/>
     <path class="fil6" d="M653 456c-14,62 -48,114 -94,152 -46,37 -105,59 -168,59 -73,0 -140,-30 -189,-78 -48,-49 -78,-116 -78,-190 0,-73 30,-140 78,-189 49,-48 116,-78 189,-78 50,0 98,14 139,39 41,24 75,60 98,104l-13 7c-22,-42 -54,-76 -93,-99 -39,-23 -84,-36 -131,-36 -69,0 -133,28 -178,74 -46,45 -74,109 -74,178 0,70 28,133 74,179 45,46 109,74 178,74 60,0 115,-20 159,-56 44,-35 76,-85 88,-143l15 3z"/>
     <polygon class="fil0" points="277,450 277,464 396,509 395,493 513,449 514,463 396,509 395,493 "/>
    </g>
   </g>
  </g>
  <path class="fil4" d="M399 38c200,0 361,162 361,361 0,200 -161,361 -361,361 -199,0 -361,-161 -361,-361 0,-199 162,-361 361,-361z"/>
  <path class="fil7" d="M625 290c4,-1 9,1 10,5l8 27c2,4 -1,8 -5,10 -4,1 -9,-1 -10,-6l-8 -26c-1,-4 1,-9 5,-10z"/>
 </g>
</svg>
