<?xml version="1.0" encoding="UTF-8"?>
<!DOCTYPE svg PUBLIC "-//W3C//DTD SVG 1.1//EN" "http://www.w3.org/Graphics/SVG/1.1/DTD/svg11.dtd">
<!-- Creator: CorelDRAW X7 -->
<svg xmlns="http://www.w3.org/2000/svg" xml:space="preserve" width="16px" height="12px" version="1.1" style="shape-rendering:geometricPrecision; text-rendering:geometricPrecision; image-rendering:optimizeQuality; fill-rule:evenodd; clip-rule:evenodd"
viewBox="0 0 11445 8633"
 xmlns:xlink="http://www.w3.org/1999/xlink">
 <defs>
  <style type="text/css">
   <![CDATA[
    .fil0 {fill:#727271}
   ]]>
  </style>
 </defs>
 <g id="Layer_x0020_1">
  <metadata id="CorelCorpID_0Corel-Layer"/>
  <path class="fil0" d="M11260 0l-887 0 -3424 0c-446,0 -876,148 -1227,418 -350,-270 -780,-418 -1226,-418l-3425 0 -888 0c-102,0 -183,83 -183,184l0 7748c0,102 81,185 183,185l4201 0c450,0 881,166 1214,468 1,1 2,1 2,1 7,7 15,13 24,19 3,2 4,2 6,3 6,3 12,6 18,9 1,1 2,1 3,1 9,3 16,6 25,8 3,1 7,3 10,3 12,2 24,4 35,4 1,0 1,0 1,0 0,0 0,0 0,0 0,0 0,0 0,0 0,0 0,0 1,0 12,0 24,-2 35,-4 4,0 7,-2 12,-3 7,-2 15,-5 23,-8 1,0 3,0 4,-1 6,-3 11,-6 17,-9 2,-1 4,-1 5,-3 10,-6 18,-12 25,-19 0,0 2,0 2,-1 332,-302 764,-468 1215,-468l4199 0c103,0 185,-83 185,-185l0 -7748c0,-101 -82,-184 -185,-184l0 0zm-4644 6188l2863 0c102,0 185,-83 185,-185 0,-102 -83,-184 -185,-184l-2863 0c-101,0 -184,82 -184,184 0,102 83,185 184,185l0 0zm0 -1039l2863 0c102,0 185,-82 185,-185 0,-102 -83,-185 -185,-185l-2863 0c-101,0 -184,83 -184,185 0,103 83,185 184,185l0 0zm0 -1038l2863 0c102,0 185,-83 185,-185 0,-102 -83,-184 -185,-184l-2863 0c-101,0 -184,82 -184,184 0,102 83,185 184,185l0 0zm0 -1039l2863 0c102,0 185,-83 185,-184 0,-102 -83,-185 -185,-185l-2863 0c-101,0 -184,83 -184,185 0,101 83,184 184,184l0 0zm0 -1038l2863 0c102,0 185,-82 185,-185 0,-102 -83,-185 -185,-185l-2863 0c-101,0 -184,83 -184,185 0,103 83,185 184,185l0 0zm-4651 4404l2863 0c101,0 184,-82 184,-184 0,-103 -83,-185 -184,-185l-2863 0c-102,0 -185,82 -185,185 0,102 83,184 185,184l0 0zm0 -1038l2863 0c101,0 184,-82 184,-185 0,-102 -83,-185 -184,-185l-2863 0c-102,0 -185,83 -185,185 0,103 83,185 185,185l0 0zm0 -1039l2863 0c101,0 184,-83 184,-184 0,-102 -83,-185 -184,-185l-2863 0c-102,0 -185,83 -185,185 0,101 83,184 185,184l0 0zm0 -1102l2863 0c101,0 184,-82 184,-185l0 -2053c0,-102 -83,-185 -184,-185l-2863 0c-102,0 -185,83 -185,185l0 2053c0,103 83,185 185,185l0 0zm184 -2053l2494 0 0 1683 -2494 0 0 -1683zm8040 -837l0 6572 -3240 0c-22,0 -44,1 -68,3 -3,1 -7,1 -11,1 -22,2 -43,4 -64,7 -4,1 -8,1 -12,2 -19,3 -39,8 -59,12 -2,1 -4,1 -7,2 -21,4 -42,10 -62,16 -4,1 -8,2 -13,4 -20,6 -41,13 -61,20 -2,1 -5,2 -8,4 -19,6 -37,14 -56,21 -3,2 -6,3 -9,5 -20,8 -40,17 -59,27 -4,2 -8,4 -12,6 -19,10 -39,20 -59,31 0,1 -1,1 -2,2 -19,10 -38,21 -56,32 -4,2 -7,5 -11,6 -18,12 -37,24 -55,36 -4,2 -7,4 -10,7 -18,12 -36,23 -53,36 -2,1 -2,2 -5,3 -17,13 -35,26 -53,39 -4,4 -8,6 -12,9 -17,13 -34,27 -52,40 -2,2 -5,5 -7,7 -16,13 -32,25 -48,39 -3,2 -5,3 -7,6 -17,14 -35,28 -51,42 -3,3 -6,7 -12,9 -15,15 -31,29 -47,43 0,0 -1,0 -1,1l0 -6716c293,-242 660,-374 1042,-374l3240 0zm-4652 374l0 6716c0,-1 -1,-1 -1,-1 -16,-14 -33,-28 -48,-43 -4,-2 -7,-6 -11,-9 -17,-14 -34,-28 -51,-42 -1,-3 -4,-4 -6,-6 -16,-14 -32,-26 -48,-39 -3,-2 -5,-5 -8,-7 -19,-13 -35,-27 -52,-40 -4,-3 -8,-5 -11,-9 -18,-13 -37,-26 -54,-39 -2,-1 -4,-2 -5,-3 -17,-13 -34,-24 -52,-36 -3,-3 -7,-5 -10,-7 -19,-12 -37,-24 -56,-36 -3,-1 -7,-4 -11,-6 -18,-11 -37,-22 -56,-32 0,-1 -1,-1 -2,-2 -20,-11 -39,-21 -58,-31 -5,-2 -8,-4 -12,-6 -21,-10 -39,-19 -59,-27 -3,-2 -6,-3 -10,-5 -18,-7 -37,-15 -55,-21 -3,-2 -6,-3 -9,-4 -20,-7 -40,-14 -61,-20 -4,-2 -9,-3 -12,-4 -22,-6 -42,-12 -63,-16 -3,-1 -4,-1 -7,-2 -20,-4 -39,-9 -59,-12 -4,-1 -7,-1 -12,-2 -21,-3 -42,-5 -64,-7 -3,0 -8,0 -12,-1 -23,-2 -45,-3 -66,-3l-3241 0 0 -6572 3241 0c381,0 747,132 1041,374l0 0zm-5168 7004l0 -7378 517 0 0 6757c0,102 83,185 185,185l3425 0c343,0 697,330 982,594 20,19 40,38 59,56l0 117c-343,-216 -742,-331 -1153,-331l-4015 0zm10707 0l-4015 0c-412,0 -812,115 -1154,331l0 -117c20,-18 39,-37 59,-56 285,-264 639,-594 983,-594l3424 0c102,0 185,-83 185,-185l0 -6757 518 0 0 7378z"/>
 </g>
</svg>
